<svg width="85" height="85" viewBox="0 0 85 85" fill="none" xmlns="http://www.w3.org/2000/svg">
<circle cx="42.5" cy="42.5" r="42.5" fill="#E9FFF3"/>
<path d="M44.0938 60.0312V50.4688H50.4688L42.5 40.9062L34.5312 50.4688H40.9062V60.0312H32.9375V59.9516C32.6698 59.9675 32.4148 60.0312 32.1406 60.0312C28.9705 60.0312 25.9301 58.7719 23.6885 56.5303C21.4468 54.2886 20.1875 51.2483 20.1875 48.0781C20.1875 41.9454 24.8253 36.9474 30.7764 36.2621C31.2981 33.5345 32.754 31.074 34.8937 29.3037C37.0333 27.5335 39.723 26.5642 42.5 26.5625C45.2774 26.5641 47.9675 27.5333 50.1077 29.3035C52.2478 31.0737 53.7044 33.5342 54.2268 36.2621C60.1779 36.9474 64.8093 41.9454 64.8093 48.0781C64.8093 51.2483 63.55 54.2886 61.3083 56.5303C59.0667 58.7719 56.0264 60.0312 52.8562 60.0312C52.5884 60.0312 52.3302 59.9675 52.0593 59.9516V60.0312H44.0938Z" fill="#1BAD5F"/>
</svg>
