<svg width="378" height="272" viewBox="0 0 378 272" fill="none" xmlns="http://www.w3.org/2000/svg">
<path d="M221.211 60.4301H256.791C256.791 60.4301 256.795 51.638 252.59 51.638C247.042 51.638 246.066 57.0888 246.066 57.0888C246.066 57.0888 246.066 40.6796 238.417 43.0868C231.179 45.3651 230.361 55.8692 230.361 55.8692C230.361 55.8692 229.058 50.587 225.134 53.5637C221.211 56.541 221.211 60.4301 221.211 60.4301Z" fill="#EBEBEB"/>
<path d="M102.389 90.9951H124.071C124.071 90.9951 124.074 85.6373 121.511 85.6373C118.13 85.6373 117.536 88.9589 117.536 88.9589C117.536 88.9589 117.536 78.9591 112.874 80.4263C108.463 81.8146 107.965 88.2158 107.965 88.2158C107.965 88.2158 107.171 84.997 104.78 86.8107C102.389 88.6249 102.389 90.9951 102.389 90.9951Z" fill="#E0E0E0"/>
<path d="M146.311 204.88L138.403 239.61H142.575L149.918 204.88H146.311Z" fill="#E0E0E0"/>
<path d="M160.878 204.88L167.675 239.61H171.976L164.346 204.88H160.878Z" fill="#E0E0E0"/>
<path d="M140.921 176.774L145.468 202.538H150.634L145.778 176.774H140.921Z" fill="#E0E0E0"/>
<path d="M61.7339 204.88L53.8267 239.61H57.9978L65.341 204.88H61.7339Z" fill="#E0E0E0"/>
<path d="M76.3005 204.88L83.0985 239.61H87.3991L79.7686 204.88H76.3005Z" fill="#E0E0E0"/>
<path d="M56.3447 176.774L60.8913 202.538H66.0578L61.2012 176.774H56.3447Z" fill="#E0E0E0"/>
<path d="M150.788 174.433H47.0449V179.117H150.788V174.433Z" fill="#F0F0F0"/>
<path d="M152.235 184.024H48.4918V188.709H152.235V184.024Z" fill="#F0F0F0"/>
<path d="M153.888 192.946H50.145V197.631H153.888V192.946Z" fill="#F0F0F0"/>
<path d="M167.453 202.538H56.6833V207.222H167.453V202.538Z" fill="#F0F0F0"/>
<path d="M270.599 204.144C263.88 202.117 258.01 197.013 254.744 190.359C251.478 183.706 250.862 175.596 253.081 168.458C254.813 162.887 258.15 157.984 259.581 152.315C261.205 145.88 260.237 139.053 259.235 132.472C258.232 125.891 257.21 119.086 258.733 112.622C260.255 106.158 265.049 100.087 271.213 99.6281C276.931 99.2022 282.213 103.775 284.599 109.4C286.985 115.025 287 121.475 286.443 127.632C285.885 133.789 284.799 139.937 285.141 146.113C285.832 158.614 292.319 170.381 291.557 182.878C291.16 189.385 288.827 193.55 284.834 198.444C281.391 202.663 275.668 205.438 270.599 204.144Z" fill="#F0F0F0"/>
<path d="M272.527 143.915C272.698 143.918 272.545 165.373 272.186 191.83C271.827 218.296 271.397 239.742 271.226 239.74C271.056 239.737 271.208 218.286 271.567 191.82C271.926 165.363 272.356 143.912 272.527 143.915Z" fill="#E0E0E0"/>
<path d="M283.593 156.937C283.728 157.05 281.433 160.508 278.466 164.661C275.499 168.815 272.985 172.089 272.85 171.977C272.715 171.864 275.01 168.407 277.977 164.253C280.943 160.101 283.458 156.825 283.593 156.937Z" fill="#E0E0E0"/>
<path d="M272.307 170.9C272.202 171.045 269.891 169.291 267.146 166.981C264.4 164.671 262.26 162.682 262.365 162.536C262.47 162.391 264.78 164.144 267.527 166.454C270.271 168.764 272.412 170.754 272.307 170.9Z" fill="#E0E0E0"/>
<path d="M271.689 195.749C271.567 195.888 269.08 193.53 265.918 190.754C262.76 187.97 260.118 185.817 260.22 185.66C260.312 185.514 263.129 187.434 266.308 190.236C269.492 193.031 271.804 195.622 271.689 195.749Z" fill="#E0E0E0"/>
<path d="M284.556 180.389C284.689 180.504 282.171 184.125 278.933 188.475C275.693 192.827 272.959 196.26 272.826 196.144C272.693 196.029 275.211 192.409 278.45 188.057C281.689 183.707 284.423 180.273 284.556 180.389Z" fill="#E0E0E0"/>
<path d="M337.11 240.069C337.11 240.15 270.794 240.215 189.007 240.215C107.192 240.215 40.8895 240.149 40.8895 240.069C40.8895 239.988 107.192 239.922 189.007 239.922C270.794 239.922 337.11 239.988 337.11 240.069Z" fill="#263238"/>
<path d="M247.768 215.673C246.558 215.73 245.428 216.45 244.638 217.44C243.847 218.43 243.368 219.67 243.065 220.935C242.479 223.383 242.874 226.262 243.539 228.687C245.981 227.719 247.469 224.885 248.14 223.397C249.202 221.043 249.796 216.095 247.768 215.673Z" fill="#1BAD5F"/>
<path d="M240.038 231.68C240.801 230.475 240.806 228.809 240.185 227.512C239.563 226.215 238.382 225.287 237.086 224.871C236.486 224.678 235.792 224.601 235.275 224.981C234.791 225.336 234.587 226.025 234.654 226.652C234.722 227.279 235.021 227.851 235.373 228.355C236.578 230.084 238.038 231.519 240.038 231.68Z" fill="#1BAD5F"/>
<path d="M240.017 240.077C240.035 240.08 240.077 239.897 240.137 239.562C240.198 239.227 240.276 238.742 240.357 238.138C240.51 236.934 240.694 235.234 240.471 233.365C240.246 231.493 239.544 229.897 238.813 228.949C238.451 228.47 238.106 228.134 237.849 227.931C237.592 227.727 237.436 227.639 237.428 227.652C237.394 227.696 237.999 228.105 238.666 229.071C239.34 230.024 239.991 231.579 240.211 233.402C240.429 235.227 240.278 236.908 240.172 238.113C240.057 239.322 239.978 240.071 240.017 240.077Z" fill="#455A64"/>
<path d="M247.007 219.399C246.99 219.391 246.862 219.671 246.646 220.183C246.428 220.695 246.125 221.442 245.76 222.369C245.028 224.222 244.057 226.801 243.05 229.676C242.043 232.553 241.191 235.181 240.604 237.093C240.31 238.049 240.079 238.825 239.929 239.364C239.778 239.904 239.702 240.204 239.719 240.211C239.736 240.217 239.845 239.928 240.025 239.4C240.219 238.824 240.473 238.069 240.779 237.159C241.411 235.264 242.289 232.65 243.295 229.777C244.302 226.905 245.244 224.317 245.931 222.446C246.26 221.544 246.532 220.797 246.74 220.227C246.928 219.701 247.024 219.406 247.007 219.399Z" fill="#455A64"/>
<path d="M242.58 234.083C244.167 231.526 246.958 229.891 249.809 229.848C250.535 229.837 251.398 230.024 251.682 230.745C251.967 231.467 251.489 232.271 250.966 232.815C248.786 235.081 245.274 235.697 242.542 234.291" fill="#1BAD5F"/>
<path d="M248.56 231.77C248.559 231.751 248.392 231.755 248.089 231.778C247.937 231.787 247.752 231.805 247.54 231.851C247.328 231.893 247.082 231.927 246.822 232.012C246.292 232.148 245.679 232.387 245.026 232.718C244.381 233.064 243.7 233.512 243.05 234.075C242.406 234.647 241.861 235.274 241.415 235.886C240.981 236.508 240.639 237.106 240.407 237.639C240.277 237.897 240.197 238.149 240.115 238.365C240.03 238.579 239.975 238.771 239.936 238.929C239.853 239.245 239.816 239.421 239.833 239.426C239.882 239.444 240.067 238.747 240.572 237.73C240.82 237.22 241.171 236.646 241.605 236.047C242.051 235.459 242.587 234.853 243.215 234.295C243.85 233.746 244.509 233.303 245.134 232.952C245.765 232.616 246.357 232.363 246.871 232.205C247.896 231.879 248.566 231.825 248.56 231.77Z" fill="#455A64"/>
<path d="M219.211 187.463L168.871 187.211C162.817 187.181 157.931 181.861 157.956 175.326L158.49 39.1058C158.516 32.5669 163.448 27.2895 169.506 27.3195L219.846 27.5702C225.901 27.6007 230.787 32.9216 230.761 39.4561L230.227 175.677C230.202 182.216 225.269 187.493 219.211 187.463Z" fill="#263238"/>
<path d="M219.511 32.3431L209.751 32.2947C208.442 32.2882 207.376 33.4806 207.371 34.957L207.363 36.8681C207.357 38.3451 206.291 39.537 204.982 39.5304L185.958 39.4358C184.649 39.4292 183.593 38.2265 183.598 36.7495L183.606 34.8384C183.611 33.3615 182.555 32.1587 181.246 32.1527L177.813 32.1353L169.271 32.0929C165.028 32.0716 161.574 35.7676 161.556 40.347L161.035 173.307C161.017 177.884 164.439 181.611 168.679 181.632L218.919 181.882C223.161 181.903 226.616 178.207 226.634 173.628L227.155 40.6674C227.173 36.0907 223.751 32.3643 219.511 32.3431Z" fill="white"/>
<path d="M201.645 48.6735L188.684 48.6094L188.673 51.1765L201.634 51.2406L201.645 48.6735Z" fill="#455A64"/>
<path d="M174.584 65.893C175.262 65.5857 175.745 64.8312 175.749 63.9417C175.753 62.7765 174.936 61.8277 173.924 61.8223C172.912 61.8174 172.087 62.758 172.083 63.9232C172.08 64.8208 172.566 65.5851 173.251 65.893C171.708 66.1438 171.051 67.2465 170.768 68.1947C171.411 68.9813 172.302 69.5221 173.312 69.6744L174.441 69.6798C175.467 69.534 176.373 68.9873 177.023 68.1887C176.747 67.2367 176.101 66.1406 174.584 65.893Z" fill="#455A64"/>
<path d="M173.894 69.7229C173.892 69.6891 174.265 69.7098 174.899 69.5287C175.521 69.3497 176.432 68.8954 177.134 67.8847C177.477 67.3842 177.767 66.7553 177.882 66.0318C177.993 65.3132 177.969 64.5037 177.695 63.7345C177.57 63.3472 177.38 62.974 177.141 62.6313C176.908 62.2848 176.617 61.9698 176.281 61.7108C175.619 61.175 174.77 60.8736 173.894 60.8644C173.017 60.8731 172.167 61.1744 171.505 61.7103C171.169 61.9698 170.879 62.2842 170.645 62.6307C170.406 62.9735 170.217 63.3466 170.091 63.734C169.817 64.5032 169.794 65.3127 169.904 66.0313C170.019 66.7548 170.31 67.3837 170.653 67.8841C171.354 68.8944 172.266 69.3486 172.887 69.5276C173.522 69.7098 173.896 69.6897 173.894 69.7229C173.894 69.7327 173.802 69.737 173.627 69.737C173.451 69.7403 173.19 69.7158 172.863 69.6358C172.219 69.4851 171.26 69.0472 170.506 68.0065C170.138 67.4914 169.823 66.8359 169.692 66.0753C169.565 65.3203 169.581 64.4646 169.865 63.6458C169.995 63.234 170.193 62.8364 170.444 62.4708C170.691 62.1009 170.998 61.7652 171.354 61.4878C172.056 60.915 172.962 60.5902 173.895 60.582C174.827 60.5907 175.733 60.9155 176.434 61.4878C176.791 61.7652 177.097 62.1014 177.344 62.4708C177.595 62.8364 177.793 63.234 177.923 63.6458C178.206 64.4646 178.223 65.3197 178.096 66.0753C177.965 66.8359 177.649 67.4914 177.282 68.0065C176.528 69.0467 175.568 69.4851 174.924 69.6358C174.598 69.7158 174.337 69.7403 174.161 69.737C173.985 69.7376 173.894 69.7327 173.894 69.7229Z" fill="#455A64"/>
<path d="M222.662 73.7811C222.661 73.7697 222.791 73.7805 223.036 73.7272C223.275 73.6728 223.644 73.5412 223.997 73.181C224.35 72.8307 224.654 72.2127 224.604 71.4397C224.601 70.6667 224.597 69.7767 224.592 68.7757C224.586 66.7684 224.578 64.3166 224.57 61.4714C224.568 60.7593 224.566 60.0228 224.565 59.2628C224.606 58.5213 224.249 57.7592 223.622 57.3691C223 56.9448 222.19 57.1303 221.407 57.0906C220.617 57.0922 219.807 57.0939 218.976 57.0955C205.688 57.1058 187.343 57.1205 167.082 57.1368C166.487 57.1347 165.907 57.4578 165.569 57.9811C165.395 58.2374 165.29 58.5436 165.248 58.8553C165.212 59.1594 165.234 59.5168 165.228 59.8492C165.228 61.1994 165.227 62.5415 165.227 63.8732C165.228 66.5344 165.229 69.1571 165.23 71.734C165.249 72.3389 165.543 72.9172 165.995 73.2643C166.219 73.4411 166.479 73.5613 166.751 73.6108C167.016 73.6619 167.314 73.6385 167.608 73.6445C168.781 73.6451 169.942 73.6456 171.091 73.6467C173.39 73.6483 175.64 73.65 177.835 73.6516C186.616 73.663 194.523 73.6734 201.166 73.6821C207.802 73.7011 213.173 73.7163 216.895 73.7272C218.746 73.7386 220.186 73.7479 221.171 73.7539C221.655 73.7599 222.025 73.7648 222.284 73.768C222.533 73.7713 222.662 73.7811 222.662 73.7811C222.662 73.7811 222.533 73.7909 222.283 73.7958C222.024 73.799 221.654 73.8039 221.17 73.8099C220.185 73.8159 218.745 73.8251 216.894 73.8366C213.172 73.8474 207.801 73.8627 201.165 73.8817C194.522 73.8904 186.615 73.9008 177.834 73.9122C175.639 73.9138 173.389 73.9154 171.09 73.9171C169.941 73.9176 168.78 73.9182 167.607 73.9193C167.316 73.9127 167.023 73.9405 166.705 73.8823C166.396 73.8257 166.099 73.6891 165.845 73.4884C165.33 73.0945 164.994 72.4358 164.972 71.7471C164.97 69.1663 164.968 66.5393 164.966 63.8737C164.966 62.542 164.965 61.2005 164.965 59.8498C164.972 59.5076 164.947 59.1856 164.988 58.8167C165.036 58.4604 165.157 58.1106 165.355 57.8179C165.739 57.2212 166.405 56.8512 167.082 56.8545C187.343 56.8708 205.688 56.8855 218.976 56.8959C219.807 56.8975 220.617 56.8991 221.407 56.9008C221.801 56.9018 222.192 56.9024 222.576 56.9035C222.969 56.8904 223.374 56.9981 223.707 57.2146C224.387 57.6368 224.77 58.4833 224.722 59.2633C224.721 60.0239 224.719 60.7599 224.717 61.472C224.708 64.3171 224.701 66.7689 224.695 68.7763C224.69 69.7772 224.686 70.6672 224.683 71.4402C224.726 72.229 224.402 72.8742 224.034 73.2235C223.665 73.5869 223.286 73.7109 223.041 73.7566C222.792 73.8001 222.662 73.7811 222.662 73.7811Z" fill="#E0E0E0"/>
<path d="M196.594 61.3584H181.936V62.5449H196.594V61.3584Z" fill="#455A64"/>
<path d="M207.619 68.0645H181.936V69.2509H207.619V68.0645Z" fill="#455A64"/>
<path d="M219.156 64.6299H181.936V65.8163H219.156V64.6299Z" fill="#455A64"/>
<path d="M174.584 108.439C175.262 108.133 175.745 107.377 175.749 106.488C175.753 105.323 174.936 104.374 173.924 104.369C172.912 104.364 172.087 105.305 172.083 106.47C172.08 107.368 172.566 108.132 173.251 108.44C171.708 108.691 171.051 109.793 170.768 110.742C171.411 111.528 172.302 112.068 173.312 112.221L174.441 112.227C175.467 112.081 176.373 111.535 177.023 110.736C176.747 109.783 176.101 108.686 174.584 108.439Z" fill="#455A64"/>
<path d="M173.894 112.269C173.892 112.235 174.265 112.256 174.899 112.075C175.521 111.896 176.432 111.442 177.134 110.431C177.477 109.931 177.767 109.302 177.882 108.578C177.993 107.86 177.969 107.05 177.695 106.281C177.57 105.894 177.38 105.52 177.141 105.178C176.908 104.831 176.617 104.516 176.281 104.257C175.619 103.721 174.77 103.42 173.894 103.411C173.017 103.419 172.167 103.721 171.505 104.257C171.169 104.516 170.879 104.831 170.645 105.177C170.406 105.52 170.217 105.893 170.091 106.28C169.817 107.05 169.794 107.859 169.904 108.578C170.019 109.301 170.31 109.93 170.653 110.43C171.354 111.441 172.266 111.895 172.887 112.074C173.522 112.256 173.896 112.236 173.894 112.269C173.894 112.279 173.802 112.283 173.627 112.283C173.451 112.287 173.19 112.262 172.863 112.182C172.219 112.031 171.26 111.594 170.506 110.553C170.138 110.038 169.823 109.383 169.692 108.622C169.565 107.867 169.581 107.011 169.865 106.193C169.995 105.781 170.193 105.383 170.444 105.018C170.691 104.648 170.998 104.312 171.354 104.035C172.056 103.462 172.962 103.137 173.895 103.129C174.827 103.138 175.733 103.462 176.434 104.035C176.791 104.312 177.097 104.648 177.344 105.018C177.595 105.383 177.793 105.781 177.923 106.193C178.206 107.011 178.223 107.867 178.096 108.622C177.965 109.382 177.649 110.038 177.282 110.553C176.528 111.593 175.568 112.031 174.924 112.182C174.598 112.262 174.337 112.287 174.161 112.283C173.985 112.284 173.894 112.279 173.894 112.269Z" fill="#455A64"/>
<path d="M222.662 116.328C222.661 116.316 222.791 116.327 223.036 116.274C223.275 116.219 223.644 116.088 223.997 115.727C224.35 115.377 224.654 114.759 224.604 113.986C224.601 113.213 224.597 112.323 224.592 111.322C224.586 109.315 224.578 106.863 224.57 104.018C224.568 103.306 224.566 102.569 224.565 101.809C224.606 101.068 224.249 100.306 223.622 99.9156C223 99.4913 222.19 99.6768 221.407 99.6371C220.617 99.6387 219.807 99.6403 218.976 99.6419C205.688 99.6528 187.343 99.667 167.082 99.6833C166.487 99.6811 165.907 100.004 165.569 100.528C165.395 100.784 165.29 101.09 165.248 101.402C165.212 101.706 165.234 102.063 165.228 102.396C165.228 103.746 165.227 105.088 165.227 106.42C165.228 109.081 165.229 111.704 165.23 114.28C165.249 114.885 165.543 115.464 165.995 115.811C166.219 115.988 166.479 116.108 166.751 116.157C167.016 116.208 167.314 116.185 167.608 116.191C168.781 116.192 169.942 116.192 171.091 116.193C173.39 116.194 175.64 116.196 177.835 116.198C186.616 116.209 194.523 116.219 201.166 116.228C207.802 116.247 213.173 116.262 216.895 116.273C218.746 116.285 220.186 116.294 221.171 116.3C221.655 116.306 222.025 116.311 222.284 116.314C222.533 116.318 222.662 116.328 222.662 116.328C222.662 116.328 222.533 116.337 222.283 116.342C222.024 116.345 221.654 116.35 221.17 116.356C220.185 116.362 218.745 116.372 216.894 116.383C213.172 116.394 207.801 116.409 201.165 116.428C194.522 116.437 186.615 116.447 177.834 116.459C175.639 116.46 173.389 116.462 171.09 116.464C169.941 116.464 168.78 116.465 167.607 116.466C167.316 116.459 167.023 116.487 166.705 116.429C166.396 116.372 166.099 116.236 165.845 116.035C165.33 115.64 164.994 114.982 164.972 114.293C164.97 111.712 164.968 109.085 164.966 106.42C164.966 105.088 164.965 103.746 164.965 102.396C164.972 102.054 164.947 101.732 164.988 101.363C165.036 101.006 165.157 100.657 165.355 100.364C165.739 99.7676 166.405 99.3971 167.082 99.4004C187.343 99.4167 205.688 99.4314 218.976 99.4418C219.807 99.4434 220.617 99.445 221.407 99.4467C221.801 99.4472 222.192 99.4483 222.576 99.4494C222.969 99.4363 223.374 99.544 223.707 99.7605C224.387 100.183 224.77 101.029 224.722 101.809C224.721 102.57 224.719 103.306 224.717 104.018C224.708 106.863 224.701 109.315 224.695 111.322C224.69 112.323 224.686 113.213 224.683 113.986C224.726 114.775 224.402 115.42 224.034 115.769C223.665 116.133 223.286 116.256 223.041 116.302C222.792 116.347 222.662 116.328 222.662 116.328Z" fill="#E0E0E0"/>
<path d="M196.298 103.904H181.64V105.091H196.298V103.904Z" fill="#455A64"/>
<path d="M207.619 110.611H181.936V111.798H207.619V110.611Z" fill="#455A64"/>
<path d="M219.156 107.177H181.936V108.363H219.156V107.177Z" fill="#455A64"/>
<path d="M174.584 129.712C175.262 129.406 175.745 128.65 175.749 127.761C175.753 126.596 174.936 125.647 173.924 125.642C172.912 125.637 172.087 126.577 172.083 127.743C172.08 128.64 172.566 129.404 173.251 129.712C171.708 129.963 171.051 131.066 170.768 132.014C171.411 132.801 172.302 133.341 173.312 133.494L174.441 133.499C175.467 133.353 176.373 132.807 177.023 132.008C176.747 131.056 176.101 129.959 174.584 129.712Z" fill="#455A64"/>
<path d="M173.894 133.543C173.892 133.509 174.265 133.53 174.899 133.348C175.521 133.169 176.432 132.715 177.134 131.704C177.477 131.204 177.767 130.575 177.882 129.852C177.993 129.133 177.969 128.323 177.695 127.554C177.57 127.167 177.38 126.794 177.141 126.451C176.908 126.105 176.617 125.79 176.281 125.531C175.619 124.995 174.77 124.693 173.894 124.684C173.017 124.693 172.167 124.994 171.505 125.53C171.169 125.79 170.879 126.104 170.645 126.451C170.406 126.793 170.217 127.166 170.091 127.554C169.817 128.323 169.794 129.132 169.904 129.851C170.019 130.575 170.31 131.203 170.653 131.704C171.354 132.715 172.266 133.168 172.887 133.347C173.522 133.529 173.896 133.509 173.894 133.543C173.894 133.552 173.802 133.557 173.627 133.557C173.451 133.56 173.19 133.536 172.863 133.456C172.219 133.305 171.26 132.867 170.506 131.827C170.138 131.312 169.823 130.656 169.692 129.896C169.565 129.141 169.581 128.285 169.865 127.466C169.995 127.054 170.193 126.657 170.444 126.291C170.691 125.921 170.998 125.586 171.354 125.308C172.056 124.735 172.962 124.411 173.895 124.402C174.827 124.411 175.733 124.736 176.434 125.308C176.791 125.586 177.097 125.922 177.344 126.291C177.595 126.657 177.793 127.054 177.923 127.466C178.206 128.285 178.223 129.14 178.096 129.896C177.965 130.656 177.649 131.312 177.282 131.827C176.528 132.867 175.568 133.305 174.924 133.456C174.598 133.536 174.337 133.561 174.161 133.557C173.985 133.557 173.894 133.552 173.894 133.543Z" fill="#455A64"/>
<path d="M222.662 137.6C222.661 137.588 222.791 137.6 223.036 137.547C223.275 137.492 223.644 137.361 223.997 137C224.35 136.65 224.654 136.032 224.604 135.259C224.601 134.486 224.597 133.596 224.592 132.595C224.586 130.588 224.578 128.136 224.57 125.291C224.568 124.579 224.566 123.842 224.565 123.082C224.606 122.341 224.249 121.579 223.622 121.189C223 120.765 222.19 120.95 221.407 120.91C220.617 120.912 219.807 120.914 218.976 120.915C205.688 120.926 187.343 120.94 167.082 120.957C166.487 120.955 165.907 121.278 165.569 121.801C165.395 122.057 165.29 122.364 165.248 122.675C165.212 122.979 165.234 123.337 165.228 123.669C165.228 125.02 165.227 126.361 165.227 127.693C165.228 130.354 165.229 132.977 165.23 135.554C165.249 136.159 165.543 136.737 165.995 137.084C166.219 137.261 166.479 137.381 166.751 137.431C167.016 137.482 167.314 137.459 167.608 137.465C168.781 137.465 169.942 137.466 171.091 137.467C173.39 137.468 175.64 137.47 177.835 137.471C186.616 137.483 194.523 137.493 201.166 137.502C207.802 137.521 213.173 137.536 216.895 137.547C218.746 137.559 220.186 137.568 221.171 137.574C221.655 137.58 222.025 137.585 222.284 137.588C222.533 137.591 222.662 137.6 222.662 137.6C222.662 137.6 222.533 137.61 222.283 137.615C222.024 137.618 221.654 137.623 221.17 137.629C220.185 137.635 218.745 137.644 216.894 137.656C213.172 137.667 207.801 137.682 201.165 137.701C194.522 137.71 186.615 137.72 177.834 137.732C175.639 137.733 173.389 137.735 171.09 137.736C169.941 137.737 168.78 137.737 167.607 137.739C167.316 137.732 167.023 137.76 166.705 137.702C166.396 137.645 166.099 137.508 165.845 137.308C165.33 136.914 164.994 136.255 164.972 135.566C164.97 132.986 164.968 130.359 164.966 127.693C164.966 126.361 164.965 125.02 164.965 123.669C164.972 123.327 164.947 123.005 164.988 122.636C165.036 122.28 165.157 121.93 165.355 121.637C165.739 121.041 166.405 120.671 167.082 120.674C187.343 120.69 205.688 120.705 218.976 120.715C219.807 120.717 220.617 120.718 221.407 120.72C221.801 120.721 222.192 120.722 222.576 120.723C222.969 120.71 223.374 120.817 223.707 121.034C224.387 121.456 224.77 122.302 224.722 123.083C224.721 123.843 224.719 124.58 224.717 125.291C224.708 128.136 224.701 130.588 224.695 132.596C224.69 133.597 224.686 134.487 224.683 135.26C224.726 136.048 224.402 136.694 224.034 137.043C223.665 137.406 223.286 137.53 223.041 137.576C222.792 137.619 222.662 137.6 222.662 137.6Z" fill="#E0E0E0"/>
<path d="M196.594 125.178H181.936V126.364H196.594V125.178Z" fill="#455A64"/>
<path d="M207.619 131.884H181.936V133.07H207.619V131.884Z" fill="#455A64"/>
<path d="M219.156 128.449H181.936V129.636H219.156V128.449Z" fill="#455A64"/>
<path d="M174.584 150.986C175.262 150.678 175.745 149.924 175.749 149.034C175.753 147.869 174.936 146.92 173.924 146.915C172.912 146.91 172.087 147.851 172.083 149.016C172.08 149.914 172.566 150.678 173.251 150.986C171.708 151.237 171.051 152.339 170.768 153.287C171.411 154.074 172.302 154.615 173.312 154.767L174.441 154.773C175.467 154.627 176.373 154.081 177.023 153.281C176.747 152.329 176.101 151.233 174.584 150.986Z" fill="#455A64"/>
<path d="M173.894 154.816C173.892 154.782 174.265 154.803 174.899 154.622C175.521 154.443 176.432 153.989 177.134 152.978C177.477 152.478 177.767 151.849 177.882 151.125C177.993 150.407 177.969 149.597 177.695 148.828C177.57 148.44 177.38 148.067 177.141 147.725C176.908 147.378 176.617 147.063 176.281 146.804C175.619 146.268 174.77 145.967 173.894 145.958C173.017 145.966 172.167 146.268 171.505 146.804C171.169 147.063 170.879 147.378 170.645 147.724C170.406 148.067 170.217 148.44 170.091 148.827C169.817 149.596 169.794 150.406 169.904 151.125C170.019 151.848 170.31 152.477 170.653 152.977C171.354 153.988 172.266 154.442 172.887 154.621C173.522 154.803 173.896 154.782 173.894 154.816C173.894 154.826 173.802 154.83 173.627 154.83C173.451 154.834 173.19 154.809 172.863 154.729C172.219 154.578 171.26 154.141 170.506 153.1C170.138 152.585 169.823 151.929 169.692 151.169C169.565 150.414 169.581 149.558 169.865 148.739C169.995 148.327 170.193 147.93 170.444 147.564C170.691 147.194 170.998 146.859 171.354 146.581C172.056 146.008 172.962 145.683 173.895 145.675C174.827 145.684 175.733 146.008 176.434 146.581C176.791 146.858 177.097 147.194 177.344 147.564C177.595 147.929 177.793 148.327 177.923 148.739C178.206 149.557 178.223 150.412 178.096 151.168C177.965 151.929 177.649 152.584 177.282 153.099C176.528 154.139 175.568 154.578 174.924 154.729C174.598 154.809 174.337 154.833 174.161 154.83C173.985 154.83 173.894 154.826 173.894 154.816Z" fill="#455A64"/>
<path d="M222.662 158.873C222.661 158.861 222.791 158.873 223.036 158.82C223.275 158.765 223.644 158.634 223.997 158.273C224.35 157.923 224.654 157.305 224.604 156.532C224.601 155.759 224.597 154.869 224.592 153.868C224.586 151.861 224.578 149.409 224.57 146.564C224.568 145.852 224.566 145.115 224.565 144.355C224.606 143.614 224.249 142.852 223.622 142.462C223 142.038 222.19 142.223 221.407 142.183C220.617 142.185 219.807 142.187 218.976 142.188C205.688 142.199 187.343 142.214 167.082 142.23C166.487 142.228 165.907 142.551 165.569 143.074C165.395 143.33 165.29 143.637 165.248 143.948C165.212 144.252 165.234 144.61 165.228 144.942C165.228 146.292 165.227 147.634 165.227 148.966C165.228 151.627 165.229 154.25 165.23 156.827C165.249 157.432 165.543 158.01 165.995 158.357C166.219 158.534 166.479 158.654 166.751 158.704C167.016 158.755 167.314 158.731 167.608 158.737C168.781 158.738 169.942 158.739 171.091 158.74C173.39 158.741 175.64 158.743 177.835 158.744C186.616 158.756 194.523 158.766 201.166 158.775C207.802 158.794 213.173 158.809 216.895 158.82C218.746 158.832 220.186 158.841 221.171 158.847C221.655 158.853 222.025 158.858 222.284 158.861C222.533 158.864 222.662 158.873 222.662 158.873C222.662 158.873 222.533 158.883 222.283 158.888C222.024 158.891 221.654 158.896 221.17 158.902C220.185 158.908 218.745 158.917 216.894 158.929C213.172 158.94 207.801 158.955 201.165 158.974C194.522 158.983 186.615 158.993 177.834 159.005C175.639 159.006 173.389 159.008 171.09 159.009C169.941 159.01 168.78 159.011 167.607 159.012C167.316 159.005 167.023 159.033 166.705 158.975C166.396 158.918 166.099 158.781 165.845 158.581C165.33 158.186 164.994 157.528 164.972 156.839C164.97 154.258 164.968 151.631 164.966 148.966C164.966 147.634 164.965 146.292 164.965 144.942C164.972 144.599 164.947 144.277 164.988 143.909C165.036 143.552 165.157 143.202 165.355 142.91C165.739 142.313 166.405 141.943 167.082 141.946C187.343 141.963 205.688 141.977 218.976 141.988C219.807 141.989 220.617 141.991 221.407 141.993C221.801 141.994 222.192 141.994 222.576 141.995C222.969 141.982 223.374 142.09 223.707 142.306C224.387 142.729 224.77 143.575 224.722 144.355C224.721 145.116 224.719 145.852 224.717 146.564C224.708 149.409 224.701 151.861 224.695 153.868C224.69 154.869 224.686 155.759 224.683 156.532C224.726 157.321 224.402 157.966 224.034 158.315C223.665 158.679 223.286 158.803 223.041 158.848C222.792 158.892 222.662 158.873 222.662 158.873Z" fill="#E0E0E0"/>
<path d="M196.594 146.45H181.936V147.637H196.594V146.45Z" fill="#455A64"/>
<path d="M207.619 153.157H181.936V154.344H207.619V153.157Z" fill="#455A64"/>
<path d="M219.156 149.723H181.936V150.909H219.156V149.723Z" fill="#455A64"/>
<path d="M191.338 169.315C191.336 169.973 190.869 170.505 190.297 170.503C189.724 170.5 189.263 169.963 189.265 169.304C189.268 168.646 189.734 168.113 190.306 168.116C190.878 168.118 191.341 168.655 191.338 169.315Z" fill="#455A64"/>
<path d="M194.55 169.33C194.547 169.989 194.081 170.521 193.509 170.518C192.936 170.516 192.475 169.979 192.477 169.32C192.48 168.661 192.946 168.129 193.518 168.132C194.091 168.135 194.553 168.671 194.55 169.33Z" fill="#455A64"/>
<path d="M197.762 169.346C197.76 170.005 197.293 170.537 196.721 170.534C196.148 170.531 195.687 169.995 195.689 169.336C195.692 168.677 196.158 168.145 196.73 168.147C197.302 168.15 197.765 168.687 197.762 169.346Z" fill="#455A64"/>
<path d="M201.924 90.387L146.484 94.7014C145.392 94.7863 144.444 93.9001 144.365 92.7218L143.532 80.2457C143.453 79.0674 144.274 78.0436 145.366 77.9588L200.805 73.6443C201.897 73.5594 202.845 74.4456 202.924 75.6239L203.758 88.1C203.836 89.2783 203.015 90.3021 201.924 90.387Z" fill="#1BAD5F"/>
<path d="M175.093 80.0216L160.472 81.1592L160.551 82.3426L175.172 81.2049L175.093 80.0216Z" fill="#FAFAFA"/>
<path d="M186.536 85.8545L160.919 87.8477L160.998 89.031L186.615 87.0378L186.536 85.8545Z" fill="#FAFAFA"/>
<path d="M197.814 81.5333L160.691 84.4219L160.77 85.6053L197.893 82.7167L197.814 81.5333Z" fill="#FAFAFA"/>
<path d="M153.445 86.2513C154.101 85.8922 154.532 85.1018 154.477 84.2145C154.404 83.052 153.525 82.1691 152.515 82.2426C151.506 82.316 150.746 83.318 150.819 84.4811C150.876 85.3771 151.411 86.1011 152.116 86.3552C150.594 86.7251 150.011 87.8757 149.793 88.8434C150.486 89.5784 151.412 90.0479 152.428 90.1218L153.555 90.0397C154.568 89.815 155.436 89.1992 156.031 88.3522C155.692 87.4236 154.974 86.3802 153.445 86.2513Z" fill="#FAFAFA"/>
<path d="M153.011 90.1251C153.007 90.0919 153.381 90.0832 154.001 89.8531C154.609 89.6263 155.488 89.1024 156.12 88.04C156.429 87.5139 156.676 86.8644 156.743 86.1338C156.805 85.4086 156.728 84.603 156.404 83.8572C156.253 83.4807 156.039 83.1233 155.779 82.8002C155.522 82.4727 155.212 82.1811 154.859 81.9488C154.163 81.4657 153.296 81.2313 152.422 81.29C151.548 81.3667 150.721 81.7334 150.096 82.3193C149.778 82.6038 149.509 82.9405 149.299 83.3044C149.084 83.6646 148.919 84.0519 148.82 84.4479C148.598 85.2362 148.629 86.0457 148.787 86.754C148.951 87.4666 149.282 88.071 149.657 88.5437C150.424 89.4974 151.363 89.8792 151.995 90.0092C152.64 90.1409 153.011 90.0919 153.011 90.1251C153.012 90.1349 152.921 90.1463 152.746 90.1599C152.571 90.1768 152.309 90.1725 151.978 90.1181C151.325 90.018 150.34 89.6551 149.519 88.6764C149.117 88.1912 148.759 87.5618 148.578 86.8132C148.401 86.0696 148.36 85.215 148.588 84.3767C148.69 83.9562 148.862 83.5438 149.088 83.1598C149.309 82.7719 149.593 82.4128 149.93 82.1082C150.592 81.4826 151.474 81.0882 152.403 81.0077C153.334 80.944 154.259 81.1975 154.997 81.7143C155.371 81.9635 155.699 82.2747 155.969 82.6244C156.244 82.9693 156.468 83.3507 156.625 83.7516C156.962 84.5459 157.036 85.3983 156.96 86.161C156.879 86.9297 156.609 87.608 156.276 88.1504C155.594 89.2466 154.666 89.7585 154.033 89.9587C153.713 90.0637 153.454 90.1088 153.279 90.1186C153.104 90.1327 153.012 90.1349 153.011 90.1251Z" fill="#FAFAFA"/>
<path d="M132.863 235.628L132.124 240.245L138.714 240.763L138.738 236.227L132.863 235.628Z" fill="#1BAD5F"/>
<path d="M135.829 235.691C135.884 235.698 135.831 236.642 135.712 237.799C135.592 238.957 135.451 239.889 135.397 239.883C135.343 239.876 135.396 238.933 135.515 237.776C135.634 236.618 135.776 235.685 135.829 235.691Z" fill="#263238"/>
<path d="M138.717 240.265C138.712 240.294 138.348 240.256 137.762 240.187C137.105 240.108 136.329 240.015 135.472 239.913C134.577 239.802 133.767 239.684 133.184 239.576C132.601 239.469 132.245 239.378 132.25 239.35C132.254 239.32 132.617 239.359 133.204 239.427C133.861 239.506 134.638 239.599 135.495 239.702C136.389 239.812 137.199 239.931 137.781 240.038C138.365 240.145 138.721 240.236 138.717 240.265Z" fill="#263238"/>
<path d="M160.072 239.316L160.913 235.279L153.917 233.53L152.629 239.422L153.057 239.561C154.962 240.159 162.785 242.457 164.166 242.357C165.706 242.246 160.072 239.316 160.072 239.316Z" fill="#1BAD5F"/>
<path d="M155.178 239.997C155.214 239.342 155.014 238.674 154.631 238.164C154.247 237.655 153.716 237.303 153.113 237.207L152.659 239.317L155.178 239.997Z" fill="#EBEBEB"/>
<path d="M162.801 240.859C162.801 240.859 164.745 242.029 164.405 242.334C164.066 242.639 156.08 240.639 152.629 239.423L152.676 239.257L161.973 241.677C161.973 241.677 162.39 240.776 162.801 240.859Z" fill="#EBEBEB"/>
<path d="M152.568 239.224C152.567 239.228 152.608 239.243 152.685 239.268C152.788 239.301 152.9 239.337 153.026 239.377C153.368 239.48 153.789 239.606 154.285 239.755C155.349 240.065 156.826 240.474 158.465 240.886C160.105 241.298 161.596 241.636 162.679 241.865C163.185 241.969 163.614 242.056 163.962 242.127C164.092 242.151 164.207 242.172 164.313 242.192C164.393 242.205 164.435 242.211 164.436 242.208C164.436 242.205 164.395 242.193 164.316 242.173C164.211 242.149 164.097 242.122 163.969 242.092C163.622 242.013 163.195 241.915 162.691 241.801C161.613 241.555 160.124 241.207 158.485 240.795C156.847 240.382 155.369 239.985 154.301 239.69C153.802 239.553 153.379 239.436 153.036 239.342C152.908 239.308 152.794 239.278 152.691 239.25C152.611 239.23 152.568 239.221 152.568 239.224Z" fill="#263238"/>
<path d="M161.946 241.793C161.972 241.803 162.062 241.48 162.325 241.197C162.583 240.91 162.881 240.808 162.871 240.781C162.871 240.757 162.541 240.824 162.263 241.132C161.982 241.436 161.924 241.794 161.946 241.793Z" fill="#263238"/>
<path d="M160.125 240.145C160.142 240.164 160.269 240.059 160.408 239.911C160.548 239.763 160.647 239.628 160.63 239.61C160.613 239.591 160.486 239.696 160.347 239.844C160.208 239.992 160.109 240.127 160.125 240.145Z" fill="#263238"/>
<path d="M159.629 239.681C159.64 239.703 159.768 239.651 159.914 239.565C160.059 239.478 160.168 239.39 160.157 239.367C160.145 239.344 160.017 239.396 159.872 239.483C159.726 239.569 159.617 239.658 159.629 239.681Z" fill="#263238"/>
<path d="M159.424 238.878C159.418 238.903 159.577 238.967 159.778 239.019C159.979 239.072 160.147 239.095 160.153 239.069C160.159 239.044 160 238.981 159.799 238.928C159.597 238.876 159.429 238.853 159.424 238.878Z" fill="#263238"/>
<path d="M159.409 238.346C159.397 238.366 159.556 238.497 159.789 238.576C160.022 238.655 160.222 238.645 160.222 238.621C160.224 238.594 160.036 238.562 159.814 238.486C159.594 238.412 159.422 238.322 159.409 238.346Z" fill="#263238"/>
<path d="M160.504 239.547C160.502 239.557 160.669 239.623 160.954 239.657C161.097 239.673 161.268 239.679 161.457 239.663C161.552 239.651 161.65 239.648 161.757 239.609C161.809 239.589 161.868 239.556 161.901 239.486C161.935 239.418 161.917 239.327 161.875 239.275C161.497 238.928 161.01 239.08 160.8 239.28C160.685 239.381 160.62 239.49 160.584 239.567C160.548 239.645 160.539 239.693 160.544 239.695C160.558 239.706 160.615 239.512 160.838 239.332C160.947 239.245 161.1 239.171 161.28 239.159C161.449 239.148 161.678 239.191 161.807 239.333C161.866 239.408 161.818 239.492 161.728 239.523C161.643 239.556 161.541 239.563 161.45 239.576C161.267 239.597 161.1 239.598 160.96 239.59C160.679 239.574 160.507 239.531 160.504 239.547Z" fill="#263238"/>
<path d="M160.616 239.6C160.621 239.607 160.714 239.499 160.74 239.276C160.752 239.166 160.743 239.03 160.694 238.891C160.637 238.763 160.567 238.589 160.373 238.55C160.265 238.538 160.187 238.653 160.186 238.739C160.176 238.826 160.196 238.908 160.216 238.975C160.257 239.113 160.311 239.23 160.365 239.322C160.474 239.506 160.573 239.591 160.58 239.583C160.591 239.573 160.509 239.473 160.418 239.288C160.373 239.197 160.327 239.082 160.293 238.95C160.253 238.832 160.25 238.637 160.368 238.643C160.483 238.66 160.572 238.809 160.619 238.923C160.667 239.046 160.682 239.169 160.679 239.27C160.671 239.477 160.602 239.593 160.616 239.6Z" fill="#263238"/>
<path d="M153.155 237.194C153.153 237.211 153.36 237.223 153.667 237.343C153.972 237.459 154.378 237.707 154.687 238.127C154.995 238.548 155.125 239.031 155.16 239.378C155.197 239.728 155.16 239.949 155.177 239.95C155.182 239.951 155.197 239.897 155.21 239.798C155.223 239.698 155.232 239.552 155.221 239.371C155.202 239.013 155.076 238.507 154.755 238.068C154.433 237.629 154.005 237.382 153.687 237.279C153.526 237.226 153.392 237.202 153.3 237.193C153.207 237.186 153.155 237.188 153.155 237.194Z" fill="#263238"/>
<path d="M154.556 234.234C154.533 234.228 154.356 234.916 154.162 235.77C153.967 236.625 153.828 237.322 153.852 237.328C153.875 237.334 154.052 236.647 154.246 235.792C154.44 234.938 154.579 234.241 154.556 234.234Z" fill="#455A64"/>
<path d="M156.217 239.481C156.209 239.504 156.647 239.7 157.214 239.846C157.781 239.996 158.254 240.038 158.257 240.015C158.26 239.987 157.797 239.903 157.235 239.756C156.673 239.609 156.225 239.455 156.217 239.481Z" fill="#263238"/>
<path d="M154.846 239.135C154.825 239.149 154.862 239.249 154.884 239.374C154.907 239.499 154.91 239.606 154.935 239.61C154.957 239.616 154.996 239.5 154.969 239.356C154.943 239.211 154.866 239.121 154.846 239.135Z" fill="#263238"/>
<path d="M154.479 238.312C154.458 238.326 154.487 238.416 154.542 238.513C154.598 238.61 154.659 238.678 154.679 238.665C154.7 238.651 154.672 238.561 154.616 238.464C154.561 238.367 154.5 238.299 154.479 238.312Z" fill="#263238"/>
<path d="M153.808 237.81C153.808 237.837 153.901 237.859 153.995 237.924C154.091 237.986 154.151 238.066 154.173 238.054C154.195 238.044 154.159 237.922 154.041 237.845C153.924 237.765 153.806 237.785 153.808 237.81Z" fill="#263238"/>
<path d="M153.314 237.529C153.3 237.55 153.332 237.599 153.385 237.638C153.438 237.676 153.492 237.69 153.505 237.669C153.518 237.648 153.487 237.599 153.434 237.56C153.381 237.521 153.327 237.507 153.314 237.529Z" fill="#263238"/>
<path d="M196.518 87.8241C195.994 87.0032 192.72 89.1944 192.429 89.3576C192.148 89.5165 191.911 89.0747 192.18 88.942C192.566 88.7516 196.582 86.6447 196.075 85.8336C195.793 85.3837 195.091 86.0039 195.091 86.0039C195.091 86.0039 191.469 88.2734 191.241 87.8818C191.009 87.4841 193.095 86.074 193.829 85.6524C194.555 85.2357 194.666 84.6934 194.228 84.5003C193.93 84.3681 191.653 85.6029 190.935 86.0381C190.218 86.4733 188.271 87.7055 188.773 86.2552C189.275 84.8049 189.155 83.4862 188.893 83.1533C188.63 82.8209 188.106 83.094 188.139 83.5738C188.165 83.9611 188.024 84.6216 187.899 85.1133C187.796 85.5186 187.666 85.9326 187.409 86.2487C187.269 86.4217 187.14 86.5816 187.02 86.7339L187.01 86.7154L186.631 87.2338C186.159 87.8502 185.922 88.2 185.922 88.2L185.923 88.2011L166.964 114.095L167.983 124.851L189.972 92.6124L189.959 92.5857C191.526 92.1331 193.192 91.612 194.095 91.2078C196.068 90.3243 195.997 90.1323 195.862 89.9016C195.501 89.2831 192.339 91.3138 192.784 90.4522C193.23 89.5899 196.92 88.454 196.518 87.8241Z" fill="#E5BAAB"/>
<path d="M142.871 106.373L145.515 89.6708C145.813 89.2611 146.25 88.6486 146.747 87.9033C146.982 87.5492 147.276 87.2434 147.608 86.9954C148.011 86.694 148.562 86.317 148.922 86.2126C149.369 86.082 149.436 85.4341 149.044 85.2709C148.652 85.1077 147.414 85.4346 146.271 86.4639C145.128 87.4931 145.576 85.0114 145.724 84.1035C145.873 83.1955 146.21 80.364 145.987 80.0936C145.661 79.6976 145.207 80.0017 145.079 80.9118C144.949 81.8328 144.387 84.5223 143.946 84.4146C143.513 84.3085 144.326 79.6992 144.326 79.6992C144.326 79.6992 144.647 78.744 144.142 78.6014C143.232 78.3441 142.701 83.313 142.662 83.7874C142.634 84.1176 142.152 84.0186 142.199 83.6666C142.247 83.3038 143.11 79.0894 142.184 78.8174C141.475 78.6091 141.713 82.9001 141.084 83.6672C140.456 84.4337 141.21 80.3928 140.525 80.2237C140.269 80.1611 140.071 80.1518 139.948 82.5406C139.888 83.6976 140.004 85.8002 140.143 87.6988C140.038 88.3178 136.989 106.32 136.784 109.007C136.575 111.741 145.157 127.589 145.157 127.589L151.062 121.068L142.871 106.373Z" fill="#E5BAAB"/>
<path d="M139.057 117.215C138.854 117.706 142.595 123.346 144.486 127.624L146.178 139.532C144.261 143.319 142.058 147.749 140.993 152.629C148.581 156.455 157.212 155.99 165.511 154.239L163.751 141.114L166.648 128.039L173.808 118.718L168.605 111.243L162.908 117.803L160.221 118.524C157.771 119.181 153.245 118.748 150.94 117.636L147.077 112.264L139.057 117.215Z" fill="#1BAD5F"/>
<path d="M157.446 138.79C157.459 138.819 157.034 139.077 156.29 139.353C155.548 139.63 154.478 139.894 153.275 139.943C152.072 139.989 150.987 139.81 150.229 139.592C149.468 139.376 149.027 139.152 149.038 139.122C149.057 139.028 150.899 139.769 153.266 139.66C155.634 139.581 157.42 138.697 157.446 138.79Z" fill="#263238"/>
<path d="M168.571 125.797C168.579 125.812 168.488 125.901 168.299 126.03C168.111 126.159 167.818 126.315 167.433 126.44C166.677 126.695 165.481 126.759 164.362 126.148C163.245 125.529 162.59 124.447 162.337 123.636C162.204 123.226 162.149 122.879 162.136 122.639C162.121 122.399 162.134 122.266 162.15 122.265C162.199 122.259 162.212 122.795 162.51 123.563C162.797 124.323 163.439 125.318 164.481 125.895C165.526 126.465 166.649 126.442 167.387 126.246C168.137 126.055 168.547 125.752 168.571 125.797Z" fill="#263238"/>
<path d="M172.832 119.889C172.798 119.908 172.549 119.435 172.147 118.675C171.746 117.915 171.184 116.87 170.528 115.739C169.872 114.609 169.246 113.607 168.788 112.885C168.33 112.162 168.046 111.714 168.076 111.689C168.103 111.667 168.44 112.072 168.938 112.767C169.437 113.462 170.09 114.452 170.751 115.589C171.41 116.727 171.949 117.794 172.311 118.581C172.672 119.369 172.863 119.873 172.832 119.889Z" fill="#263238"/>
<path d="M147.842 113.17C147.858 113.205 147.402 113.485 146.66 113.924C145.843 114.412 144.859 115.001 143.771 115.651C142.693 116.321 141.719 116.927 140.909 117.431C140.177 117.889 139.721 118.167 139.701 118.134C139.682 118.101 140.103 117.764 140.811 117.26C141.519 116.757 142.515 116.091 143.641 115.404C144.768 114.718 145.81 114.14 146.575 113.746C147.341 113.351 147.826 113.135 147.842 113.17Z" fill="#263238"/>
<path d="M145.811 123.611C145.878 123.647 145.663 124.238 145.448 124.978C145.231 125.717 145.093 126.334 145.018 126.322C144.949 126.313 144.973 125.658 145.198 124.893C145.421 124.127 145.749 123.576 145.811 123.611Z" fill="#263238"/>
<path d="M158.896 118.531C158.804 117.319 158.757 115.942 158.757 115.942C158.757 115.942 161.474 115.225 161.269 112.126C161.064 109.028 160.037 101.961 160.037 101.961L154.68 99.9092L149.725 105.395L152.425 120.651L157.551 120.282C158.359 120.224 158.964 119.438 158.896 118.531Z" fill="#E5BAAB"/>
<path d="M158.151 110.314C158.16 110.315 158.166 110.371 158.124 110.453C158.081 110.532 157.98 110.63 157.825 110.649C157.503 110.677 157.148 110.339 156.978 109.889C156.892 109.66 156.864 109.42 156.882 109.207C156.891 108.999 156.975 108.779 157.126 108.701C157.197 108.66 157.275 108.653 157.339 108.677C157.401 108.7 157.443 108.743 157.466 108.784C157.515 108.871 157.493 108.93 157.485 108.927C157.473 108.928 157.47 108.877 157.421 108.825C157.375 108.772 157.275 108.732 157.177 108.804C157.078 108.871 157.023 109.027 157.019 109.219C157.01 109.409 157.039 109.622 157.116 109.825C157.266 110.229 157.576 110.532 157.819 110.53C157.939 110.529 158.031 110.467 158.078 110.413C158.126 110.356 158.14 110.31 158.151 110.314Z" fill="#D78776"/>
<path d="M159.306 99.5941L159.413 99.7567C158.325 98.8352 157.101 98.7737 156.009 98.833C154.747 98.9016 153.525 99.216 152.374 99.7801C152.067 99.9303 151.761 100.085 151.458 100.245C151.619 99.9618 151.752 99.6615 151.839 99.3406C152.105 98.3581 151.879 97.1673 151.108 96.5711C150.315 95.958 149.098 96.1778 148.481 96.9932C147.865 97.8087 147.883 99.0816 148.468 99.9238C148.89 100.531 149.567 100.892 150.267 100.963C150.065 101.106 149.868 101.258 149.681 101.425C148.106 102.836 147.307 105.226 147.788 107.373C147.92 107.96 148.139 108.526 148.362 109.089C148.4 109.577 148.389 110.067 148.306 110.55C148.103 111.727 147.436 112.852 146.426 113.347C146.063 113.525 145.641 113.639 145.403 113.985C145.138 114.37 145.2 114.923 145.405 115.35C145.765 116.101 146.495 116.582 147.253 116.796C147.373 116.83 147.496 116.853 147.62 116.868C147.558 117.407 147.567 118.111 147.842 118.806C147.842 118.806 149.365 121.709 152.671 121.201L152.746 119.76L153.243 121.369C153.243 121.369 154.966 122.072 158.747 120.199C160.009 119.574 158.158 114.614 158.158 114.614C157.214 113.61 157.517 111.936 157.517 111.936C156.719 112.048 155.946 109.801 156.108 109.052C156.271 108.301 156.877 107.593 157.589 107.627C157.907 107.643 157.827 109.392 158.654 109.196C159.358 109.176 159.093 107.786 159.311 107.081C159.79 105.542 160.76 103.388 160.414 101.809C161.527 100.414 160.429 98.6981 159.306 99.5941Z" fill="#263238"/>
<path d="M146.367 104.56C146.35 104.577 146.144 104.18 146.239 103.497C146.288 103.162 146.415 102.769 146.667 102.404C146.911 102.04 147.285 101.697 147.759 101.541C148.233 101.383 148.686 101.413 149.073 101.374C149.463 101.349 149.787 101.247 150.025 101.071C150.526 100.725 150.489 100.254 150.528 100.268C150.541 100.265 150.58 100.369 150.55 100.563C150.523 100.755 150.389 101.022 150.133 101.234C149.885 101.454 149.501 101.596 149.095 101.635C148.691 101.688 148.249 101.671 147.837 101.812C147.002 102.102 146.54 102.943 146.421 103.536C146.287 104.15 146.416 104.55 146.367 104.56Z" fill="#263238"/>
<path d="M158.404 120.027C158.366 119.991 158.716 119.653 158.99 118.934C159.26 118.234 159.413 117.089 158.924 116.033C158.682 115.508 158.35 115.055 158.083 114.609C157.809 114.168 157.613 113.716 157.528 113.316C157.343 112.493 157.631 111.998 157.649 112.028C157.694 112.037 157.489 112.518 157.707 113.264C157.81 113.632 158.005 114.04 158.284 114.464C158.554 114.891 158.898 115.344 159.159 115.907C159.424 116.472 159.509 117.088 159.485 117.628C159.457 118.172 159.325 118.648 159.16 119.015C158.993 119.381 158.807 119.647 158.658 119.807C158.511 119.97 158.414 120.039 158.404 120.027Z" fill="#263238"/>
<path d="M141.26 152.762L130.611 236.146L141.174 236.493C141.174 236.493 151.97 163.097 152.682 163.527C153.394 163.956 160.608 195.197 160.291 197.112C160.109 198.21 151.961 235.667 152.542 235.523C153.124 235.377 162.754 236.425 162.754 236.425C162.754 236.425 171.054 197.023 170.934 196.069C170.642 193.75 165.187 151.747 165.187 151.747L141.26 152.762Z" fill="#263238"/>
<path d="M156.671 164.533C156.664 164.569 156.158 164.496 155.351 164.31C154.545 164.124 153.44 163.815 152.245 163.389C151.049 162.961 149.991 162.498 149.241 162.129C148.491 161.76 148.044 161.493 148.059 161.46C148.075 161.422 148.548 161.624 149.314 161.944C150.079 162.265 151.14 162.695 152.327 163.12C153.515 163.543 154.605 163.88 155.396 164.115C156.187 164.35 156.679 164.493 156.671 164.533Z" fill="#455A64"/>
<path d="M159.622 236.084C159.693 236.1 159.69 236.411 159.616 236.778C159.543 237.146 159.425 237.43 159.354 237.413C159.283 237.396 159.286 237.085 159.36 236.718C159.434 236.351 159.551 236.067 159.622 236.084Z" fill="#455A64"/>
<path d="M160.677 230.836C160.748 230.853 160.687 231.454 160.542 232.178C160.396 232.902 160.22 233.476 160.149 233.459C160.079 233.443 160.139 232.842 160.285 232.117C160.431 231.393 160.607 230.819 160.677 230.836Z" fill="#455A64"/>
<path d="M161.733 225.59C161.804 225.607 161.743 226.208 161.597 226.932C161.451 227.656 161.276 228.23 161.205 228.213C161.134 228.197 161.195 227.596 161.34 226.871C161.486 226.147 161.662 225.573 161.733 225.59Z" fill="#455A64"/>
<path d="M162.788 220.343C162.859 220.36 162.798 220.961 162.652 221.685C162.507 222.409 162.331 222.983 162.26 222.966C162.189 222.949 162.25 222.349 162.396 221.624C162.541 220.9 162.717 220.326 162.788 220.343Z" fill="#455A64"/>
<path d="M163.843 215.096C163.914 215.113 163.853 215.714 163.708 216.438C163.562 217.162 163.386 217.736 163.316 217.719C163.245 217.702 163.305 217.102 163.451 216.377C163.597 215.653 163.773 215.079 163.843 215.096Z" fill="#455A64"/>
<path d="M164.899 209.849C164.97 209.865 164.909 210.466 164.763 211.191C164.617 211.915 164.442 212.489 164.371 212.472C164.3 212.456 164.361 211.855 164.507 211.13C164.652 210.406 164.828 209.832 164.899 209.849Z" fill="#455A64"/>
<path d="M165.954 204.602C166.025 204.619 165.964 205.219 165.819 205.943C165.673 206.668 165.497 207.242 165.426 207.225C165.356 207.209 165.416 206.608 165.562 205.883C165.708 205.159 165.884 204.585 165.954 204.602Z" fill="#455A64"/>
<path d="M167.009 199.356C167.08 199.372 167.019 199.973 166.874 200.697C166.728 201.422 166.552 201.996 166.482 201.979C166.411 201.963 166.472 201.362 166.617 200.637C166.763 199.913 166.939 199.339 167.009 199.356Z" fill="#455A64"/>
<path d="M167.303 194.077C167.374 194.066 167.509 194.653 167.603 195.387C167.655 195.79 167.684 196.155 167.687 196.398L167.687 196.426L167.686 196.431C167.623 196.627 167.569 196.74 167.538 196.732C167.506 196.724 167.5 196.598 167.518 196.391L167.517 196.424C167.459 196.189 167.395 195.83 167.344 195.426C167.249 194.692 167.231 194.088 167.303 194.077Z" fill="#455A64"/>
<path d="M166.621 188.759C166.692 188.748 166.827 189.335 166.921 190.069C167.016 190.803 167.034 191.407 166.962 191.418C166.89 191.429 166.755 190.842 166.661 190.108C166.567 189.374 166.549 188.77 166.621 188.759Z" fill="#455A64"/>
<path d="M165.939 183.441C166.01 183.43 166.145 184.017 166.239 184.751C166.334 185.485 166.352 186.089 166.28 186.1C166.208 186.111 166.074 185.524 165.979 184.789C165.885 184.055 165.867 183.451 165.939 183.441Z" fill="#455A64"/>
<path d="M165.257 178.122C165.329 178.111 165.463 178.698 165.557 179.432C165.652 180.167 165.67 180.77 165.598 180.781C165.526 180.792 165.392 180.206 165.297 179.471C165.203 178.737 165.185 178.133 165.257 178.122Z" fill="#455A64"/>
<path d="M164.575 172.803C164.647 172.792 164.781 173.379 164.876 174.113C164.97 174.847 164.988 175.451 164.916 175.462C164.844 175.473 164.71 174.886 164.615 174.151C164.521 173.418 164.504 172.814 164.575 172.803Z" fill="#455A64"/>
<path d="M163.893 167.486C163.965 167.475 164.099 168.062 164.194 168.795C164.288 169.53 164.306 170.134 164.234 170.145C164.162 170.155 164.028 169.568 163.934 168.834C163.84 168.1 163.822 167.496 163.893 167.486Z" fill="#455A64"/>
<path d="M163.211 162.167C163.283 162.156 163.418 162.743 163.512 163.477C163.606 164.212 163.624 164.815 163.552 164.826C163.48 164.837 163.346 164.251 163.252 163.516C163.158 162.782 163.14 162.177 163.211 162.167Z" fill="#455A64"/>
<path d="M162.698 158.16C162.769 158.15 162.867 158.443 162.914 158.815C162.962 159.187 162.942 159.497 162.87 159.508C162.799 159.519 162.701 159.226 162.654 158.853C162.607 158.481 162.626 158.171 162.698 158.16Z" fill="#455A64"/>
<path d="M151.475 237.072L163.231 237.813L163.849 234.181L152.136 233.675L151.475 237.072Z" fill="#455A64"/>
<path d="M129.918 236.14L141.673 236.881L142.292 233.25L130.578 232.743L129.918 236.14Z" fill="#455A64"/>
<path d="M150.503 163.959C150.432 163.943 150.432 163.632 150.502 163.264C150.573 162.896 150.687 162.611 150.758 162.627C150.83 162.642 150.83 162.954 150.759 163.321C150.689 163.69 150.575 163.975 150.503 163.959Z" fill="#455A64"/>
<path d="M149.513 169.193C149.442 169.177 149.495 168.579 149.631 167.856C149.767 167.133 149.935 166.56 150.006 166.576C150.077 166.591 150.024 167.19 149.888 167.913C149.752 168.636 149.584 169.209 149.513 169.193Z" fill="#455A64"/>
<path d="M148.543 174.432C148.472 174.416 148.522 173.818 148.655 173.094C148.788 172.371 148.954 171.797 149.025 171.812C149.096 171.827 149.046 172.426 148.913 173.15C148.779 173.873 148.614 174.448 148.543 174.432Z" fill="#455A64"/>
<path d="M147.595 179.676C147.524 179.661 147.571 179.061 147.701 178.337C147.831 177.613 147.995 177.038 148.066 177.053C148.137 177.068 148.089 177.667 147.959 178.391C147.829 179.116 147.666 179.691 147.595 179.676Z" fill="#455A64"/>
<path d="M146.672 184.926C146.6 184.912 146.645 184.312 146.772 183.588C146.898 182.862 147.059 182.287 147.13 182.301C147.201 182.316 147.156 182.915 147.03 183.64C146.903 184.365 146.743 184.941 146.672 184.926Z" fill="#455A64"/>
<path d="M145.776 190.181C145.704 190.166 145.746 189.567 145.869 188.841C145.991 188.115 146.148 187.539 146.22 187.553C146.292 187.567 146.25 188.167 146.127 188.892C146.004 189.617 145.847 190.195 145.776 190.181Z" fill="#455A64"/>
<path d="M144.91 195.441C144.839 195.427 144.877 194.827 144.995 194.101C145.114 193.374 145.268 192.796 145.339 192.81C145.41 192.823 145.372 193.423 145.254 194.15C145.135 194.876 144.981 195.454 144.91 195.441Z" fill="#455A64"/>
<path d="M144.075 200.706C144.004 200.693 144.039 200.093 144.153 199.366C144.266 198.638 144.417 198.059 144.489 198.072C144.56 198.086 144.526 198.686 144.412 199.413C144.297 200.14 144.147 200.719 144.075 200.706Z" fill="#455A64"/>
<path d="M143.275 205.977C143.204 205.964 143.234 205.364 143.344 204.636C143.453 203.907 143.6 203.328 143.671 203.34C143.743 203.353 143.712 203.953 143.603 204.681C143.493 205.409 143.347 205.989 143.275 205.977Z" fill="#455A64"/>
<path d="M142.51 211.254C142.438 211.242 142.465 210.641 142.569 209.912C142.674 209.183 142.816 208.602 142.888 208.614C142.96 208.626 142.933 209.227 142.829 209.956C142.724 210.685 142.582 211.266 142.51 211.254Z" fill="#455A64"/>
<path d="M141.782 216.537C141.711 216.525 141.733 215.925 141.832 215.195C141.931 214.465 142.07 213.883 142.142 213.895C142.213 213.906 142.191 214.507 142.092 215.237C141.992 215.966 141.854 216.548 141.782 216.537Z" fill="#455A64"/>
<path d="M141.092 221.827C141.021 221.816 141.038 221.215 141.132 220.485C141.226 219.755 141.36 219.171 141.432 219.182C141.504 219.193 141.486 219.793 141.392 220.524C141.298 221.254 141.164 221.838 141.092 221.827Z" fill="#455A64"/>
<path d="M140.442 227.122C140.37 227.113 140.384 226.511 140.472 225.78C140.561 225.048 140.69 224.464 140.762 224.474C140.834 224.484 140.821 225.085 140.732 225.816C140.644 226.548 140.514 227.133 140.442 227.122Z" fill="#455A64"/>
<path d="M139.832 232.424C139.76 232.415 139.769 231.813 139.851 231.081C139.935 230.349 140.06 229.763 140.132 229.773C140.204 229.782 140.195 230.383 140.112 231.116C140.029 231.847 139.904 232.433 139.832 232.424Z" fill="#455A64"/>
<path d="M139.398 236.431C139.326 236.422 139.3 236.112 139.34 235.739C139.38 235.365 139.47 235.07 139.542 235.079C139.614 235.088 139.64 235.398 139.6 235.771C139.561 236.144 139.47 236.439 139.398 236.431Z" fill="#455A64"/>
<path d="M167.256 196.947C167.246 197.027 165.881 196.889 164.196 196.775C162.51 196.656 161.14 196.605 161.139 196.524C161.138 196.448 162.516 196.373 164.212 196.492C165.909 196.608 167.267 196.873 167.256 196.947Z" fill="#455A64"/>
<path d="M166.679 195.567C166.688 195.642 165.541 195.861 164.109 195.917C162.677 195.976 161.519 195.849 161.523 195.773C161.526 195.692 162.681 195.692 164.1 195.634C165.519 195.579 166.67 195.486 166.679 195.567Z" fill="#455A64"/>
<path d="M140.011 199.54C139.949 199.58 139.35 198.62 138.674 197.397C137.998 196.172 137.5 195.148 137.562 195.108C137.625 195.067 138.223 196.027 138.899 197.252C139.576 198.475 140.074 199.5 140.011 199.54Z" fill="#455A64"/>
<path d="M165.51 154.89C165.527 154.893 165.523 155.029 165.492 155.271C165.46 155.512 165.409 155.863 165.287 156.285C165.166 156.703 164.974 157.214 164.575 157.648C164.184 158.09 163.547 158.345 162.908 158.315C162.266 158.297 161.688 158.094 161.19 157.873C160.69 157.647 160.265 157.367 159.96 157.065C159.328 156.454 159.262 155.841 159.288 155.851C159.332 155.827 159.459 156.383 160.08 156.913C160.383 157.178 160.796 157.426 161.281 157.631C161.766 157.832 162.324 158.016 162.914 158.031C163.503 158.056 164.048 157.842 164.407 157.46C164.771 157.085 164.974 156.616 165.112 156.22C165.378 155.415 165.465 154.878 165.51 154.89Z" fill="#455A64"/>
<path d="M150.759 162.627C150.743 162.639 150.671 162.562 150.545 162.427C150.431 162.296 150.189 162.143 149.986 161.855C149.79 161.578 149.51 161.287 149.344 160.8C149.234 160.307 149.263 159.802 149.282 159.266C149.337 158.199 149.451 157.245 149.536 156.554C149.625 155.864 149.696 155.44 149.732 155.443C149.818 155.45 149.674 157.173 149.544 159.281C149.523 159.801 149.497 160.321 149.577 160.728C149.692 161.117 149.957 161.45 150.133 161.733C150.303 162.019 150.512 162.18 150.621 162.355C150.729 162.517 150.772 162.615 150.759 162.627Z" fill="#455A64"/>
</svg>
