<svg width="200" height="94" viewBox="0 0 200 94" fill="none" xmlns="http://www.w3.org/2000/svg">
<circle cx="4" cy="4" r="4" fill="#D9D9D9"/>
<circle cx="196" cy="54" r="4" fill="#D9D9D9"/>
<circle cx="193.5" cy="1.5" r="1.5" fill="#D9D9D9"/>
<circle cx="28.5" cy="67.5" r="1.5" fill="#D9D9D9"/>
<g clip-path="url(#clip0_304_180)">
<path fill-rule="evenodd" clip-rule="evenodd" d="M120.998 82.3158C121.327 82.1071 121.686 81.9487 122.059 81.8376C138.055 77.0787 149.72 62.2616 149.72 44.72C149.72 23.3355 132.384 6 111 6C89.6156 6 72.28 23.3355 72.28 44.72C72.28 59.9539 81.0776 73.1329 93.8692 79.4539C93.8836 79.461 93.8777 79.4829 93.8616 79.4817C93.8513 79.4809 93.8434 79.4908 93.8466 79.5007L97.5538 91.2403C98.3447 93.7449 101.294 94.8205 103.511 93.4131L120.998 82.3158Z" fill="white"/>
<path d="M120.813 38.6379C121.642 37.8095 121.642 36.4664 120.813 35.638L120.362 35.1865C119.534 34.3581 118.19 34.3581 117.362 35.1865L111 41.5486L104.638 35.1865C103.809 34.3581 102.466 34.3581 101.638 35.1865L101.186 35.638C100.358 36.4664 100.358 37.8095 101.186 38.6379L107.549 45L101.186 51.362C100.358 52.1904 100.358 53.5336 101.186 54.362L101.638 54.8134C102.466 55.6419 103.809 55.6419 104.638 54.8134L111 48.4514L117.362 54.8134C118.19 55.6418 119.534 55.6419 120.362 54.8134L120.813 54.362C121.642 53.5336 121.642 52.1904 120.813 51.362L114.451 45L120.813 38.6379Z" fill="#C62C2C"/>
</g>
<defs>
<clipPath id="clip0_304_180">
<rect width="88" height="88" fill="white" transform="translate(67 6)"/>
</clipPath>
</defs>
</svg>
