<svg width="225" height="221" viewBox="0 0 225 221" fill="none" xmlns="http://www.w3.org/2000/svg">
<path d="M220.669 136.99L192.961 184.981C187.53 194.512 177.444 199.5 167.248 198.835H145.081V221.002L117.373 171.127L145.081 121.252V143.418H176.336L151.731 100.747L199.722 73.0392L219.672 107.619C225.435 116.153 226.211 127.569 220.669 136.99ZM80.9083 0H136.325C147.187 0 156.608 6.3175 161.152 15.4058L172.235 34.6908L191.409 23.6075L162.149 72.485L105.07 73.4825L124.244 62.3992L108.617 35.245L84.1225 77.9158L36.0208 50.2075L55.9708 15.6275C60.515 6.42833 69.9358 0 80.9083 0ZM34.8017 185.092L7.09333 137.101C1.6625 127.68 2.43834 116.375 8.09084 107.841L19.1742 88.6667L0 77.5833L56.9683 78.47L86.3392 127.458L67.165 116.375L51.5375 143.418H100.748V198.835H60.8475C55.655 199.211 50.4613 198.122 45.8569 195.692C41.2525 193.263 37.4222 189.59 34.8017 185.092Z" fill="#FFC700" fill-opacity="0.12"/>
</svg>
