<svg width="36" height="36" viewBox="0 0 36 36" fill="none" xmlns="http://www.w3.org/2000/svg">
<path d="M32.73 23.1298L28.98 29.6248C28.245 30.9148 26.88 31.5898 25.5 31.4998H22.5V34.4998L18.75 27.7498L22.5 20.9998V23.9998H26.73L23.4 18.2248L29.895 14.4748L32.595 19.1548C33.375 20.3098 33.48 21.8548 32.73 23.1298ZM13.815 4.58984H21.315C22.785 4.58984 24.06 5.44484 24.675 6.67484L26.175 9.28484L28.77 7.78484L24.81 14.3998L17.085 14.5348L19.68 13.0348L17.565 9.35984L14.25 15.1348L7.73999 11.3848L10.44 6.70484C11.055 5.45984 12.33 4.58984 13.815 4.58984ZM7.57499 29.6398L3.82499 23.1448C3.08999 21.8698 3.19499 20.3398 3.95999 19.1848L5.45999 16.5898L2.86499 15.0898L10.575 15.2098L14.55 21.8398L11.955 20.3398L9.83999 23.9998H16.5V31.4998H11.1C10.3972 31.5507 9.69434 31.4033 9.07119 31.0745C8.44803 30.7457 7.92965 30.2487 7.57499 29.6398Z" fill="#FFC700"/>
</svg>
