<svg width="22" height="16" viewBox="0 0 22 16" fill="none" xmlns="http://www.w3.org/2000/svg">
<path d="M10.7914 5.264C11.7621 5.264 12.4874 5.51467 12.9674 6.016C13.4474 6.50667 13.6874 7.30667 13.6874 8.416V14H12.2954V8.48C12.2954 7.808 12.1514 7.30133 11.8634 6.96C11.5861 6.61867 11.1488 6.448 10.5514 6.448C9.71944 6.448 9.1221 6.688 8.75944 7.168C8.40744 7.648 8.23144 8.34667 8.23144 9.264V14H6.83944V8.48C6.83944 8.032 6.77544 7.65867 6.64744 7.36C6.51944 7.05067 6.32744 6.82133 6.07144 6.672C5.81544 6.52267 5.48477 6.448 5.07944 6.448C4.50344 6.448 4.0501 6.57067 3.71944 6.816C3.38877 7.05067 3.14877 7.39733 2.99944 7.856C2.86077 8.31467 2.79144 8.88 2.79144 9.552V14H1.38344V5.424H2.51944L2.72744 6.592H2.80744C2.98877 6.29333 3.20744 6.048 3.46344 5.856C3.7301 5.65333 4.02344 5.504 4.34344 5.408C4.66344 5.312 4.9941 5.264 5.33544 5.264C5.99677 5.264 6.5461 5.38133 6.98344 5.616C7.43144 5.85067 7.75677 6.21333 7.95944 6.704H8.03944C8.32744 6.21333 8.71677 5.85067 9.20744 5.616C9.70877 5.38133 10.2368 5.264 10.7914 5.264Z" fill="#55585E"/>
<path d="M20.9824 2.436C20.9824 2.82 20.9104 3.152 20.7664 3.432C20.6224 3.712 20.4144 3.94 20.1424 4.116C19.8784 4.292 19.5664 4.416 19.2064 4.488V4.536C19.8944 4.616 20.4064 4.832 20.7424 5.184C21.0784 5.536 21.2464 5.996 21.2464 6.564C21.2464 7.06 21.1304 7.504 20.8984 7.896C20.6664 8.28 20.3064 8.58 19.8184 8.796C19.3384 9.012 18.7184 9.12 17.9584 9.12C17.5104 9.12 17.0944 9.084 16.7104 9.012C16.3264 8.948 15.9584 8.828 15.6064 8.652V7.668C15.9664 7.844 16.3544 7.984 16.7704 8.088C17.1864 8.184 17.5864 8.232 17.9704 8.232C18.7384 8.232 19.2904 8.084 19.6264 7.788C19.9704 7.484 20.1424 7.068 20.1424 6.54C20.1424 6.18 20.0464 5.892 19.8544 5.676C19.6704 5.452 19.3984 5.288 19.0384 5.184C18.6784 5.08 18.2464 5.028 17.7424 5.028H16.9144V4.128H17.7544C18.2264 4.128 18.6184 4.06 18.9304 3.924C19.2504 3.788 19.4904 3.6 19.6504 3.36C19.8184 3.112 19.9024 2.828 19.9024 2.508C19.9024 2.092 19.7624 1.772 19.4824 1.548C19.2024 1.316 18.8224 1.2 18.3424 1.2C18.0384 1.2 17.7624 1.232 17.5144 1.296C17.2664 1.352 17.0344 1.436 16.8184 1.548C16.6104 1.652 16.3984 1.776 16.1824 1.92L15.6544 1.2C15.8624 1.04 16.0984 0.892 16.3624 0.756C16.6344 0.619999 16.9344 0.511999 17.2624 0.431999C17.5904 0.352 17.9464 0.312 18.3304 0.312C19.2264 0.312 19.8904 0.512 20.3224 0.912C20.7624 1.312 20.9824 1.82 20.9824 2.436Z" fill="#55585E"/>
</svg>
