<svg width="258" height="240" viewBox="0 0 258 240" fill="none" xmlns="http://www.w3.org/2000/svg">
<g clip-path="url(#clip0_50_149)">
<path d="M229.469 167.589H136.204C134.537 167.589 133.18 166.327 133.18 164.776V38.4041C133.18 36.8527 134.537 35.5903 136.204 35.5903H229.469C231.137 35.5903 232.494 36.8523 232.494 38.4041V164.775C232.494 166.327 231.137 167.589 229.469 167.589ZM136.204 35.7103C134.607 35.7103 133.309 36.919 133.309 38.4041V164.775C133.309 166.261 134.608 167.469 136.204 167.469H229.469C231.066 167.469 232.365 166.26 232.365 164.775V38.4041C232.365 36.919 231.066 35.7103 229.469 35.7103H136.204Z" fill="#F0F0F0"/>
<path d="M121.92 167.589H28.6555C26.9878 167.589 25.6307 166.327 25.6307 164.776V38.4041C25.6307 36.8527 26.9873 35.5903 28.6555 35.5903H121.92C123.588 35.5903 124.945 36.8523 124.945 38.4041V164.775C124.946 166.327 123.589 167.589 121.92 167.589ZM28.6555 35.7103C27.059 35.7103 25.7597 36.919 25.7597 38.4041V164.775C25.7597 166.261 27.059 167.469 28.6555 167.469H121.92C123.517 167.469 124.816 166.26 124.816 164.775V38.4041C124.816 36.919 123.517 35.7103 121.92 35.7103H28.6555Z" fill="#F0F0F0"/>
<path d="M258.407 196.902H0.406616V197.022H258.407V196.902Z" fill="#E0E0E0"/>
<path d="M93.5085 47.7833H109.799C110.226 47.7833 110.573 47.4608 110.573 47.0633V43.6424C110.573 43.2449 110.226 42.9224 109.799 42.9224H93.5085C93.0807 42.9224 92.7345 43.2449 92.7345 43.6424V47.0633C92.7345 47.4608 93.0807 47.7833 93.5085 47.7833Z" fill="#F0F0F0"/>
<path d="M83.7783 53.9825H100.069C100.496 53.9825 100.843 53.66 100.843 53.2625V49.8416C100.843 49.4441 100.496 49.1216 100.069 49.1216H83.7783C83.351 49.1216 83.0043 49.4441 83.0043 49.8416V53.2625C83.0043 53.6605 83.351 53.9825 83.7783 53.9825Z" fill="#F0F0F0"/>
<path d="M50.035 120.695H33.7443C33.3171 120.695 32.9703 120.373 32.9703 119.975V116.554C32.9703 116.157 33.3171 115.834 33.7443 115.834H50.035C50.4622 115.834 50.809 116.157 50.809 116.554V119.975C50.809 120.373 50.4622 120.695 50.035 120.695Z" fill="#F0F0F0"/>
<path d="M59.7652 126.895H43.4746C43.0473 126.895 42.7006 126.573 42.7006 126.175V122.754C42.7006 122.357 43.0473 122.034 43.4746 122.034H59.7652C60.1924 122.034 60.5392 122.357 60.5392 122.754V126.175C60.5392 126.573 60.1924 126.895 59.7652 126.895Z" fill="#F0F0F0"/>
<path d="M207.034 125.598H190.743C190.316 125.598 189.969 125.275 189.969 124.878V121.457C189.969 121.059 190.316 120.737 190.743 120.737H207.034C207.461 120.737 207.808 121.059 207.808 121.457V124.878C207.808 125.275 207.461 125.598 207.034 125.598Z" fill="#F0F0F0"/>
<path d="M226.494 125.598H210.203C209.776 125.598 209.429 125.275 209.429 124.878V121.457C209.429 121.059 209.776 120.737 210.203 120.737H226.494C226.922 120.737 227.268 121.059 227.268 121.457V124.878C227.268 125.275 226.922 125.598 226.494 125.598Z" fill="#F0F0F0"/>
<path d="M216.764 131.797H200.473C200.046 131.797 199.699 131.475 199.699 131.077V127.657C199.699 127.259 200.046 126.937 200.473 126.937H216.764C217.191 126.937 217.538 127.259 217.538 127.657V131.077C217.538 131.475 217.192 131.797 216.764 131.797Z" fill="#F0F0F0"/>
<path d="M236.129 155.64H217.518V196.902H236.129V155.64Z" fill="#E6E6E6"/>
<path d="M221.885 155.64H177.527V196.902H221.885V155.64Z" fill="#F5F5F5"/>
<path d="M203.06 155.64H197.579V196.782H203.06V155.64Z" fill="#FAFAFA"/>
<path d="M83.2994 155.64H64.6884V196.902H83.2994V155.64Z" fill="#E6E6E6"/>
<path d="M69.0547 155.64H24.6973V196.902H69.0547V155.64Z" fill="#F5F5F5"/>
<path d="M50.2301 155.64H44.7496V196.782H50.2301V155.64Z" fill="#FAFAFA"/>
<path d="M177.527 177.588H158.916V196.903H177.527V177.588Z" fill="#E6E6E6"/>
<path d="M163.282 177.588H118.925V196.903H163.282V177.588Z" fill="#F5F5F5"/>
<path d="M144.457 177.588H138.977V196.846H144.457V177.588Z" fill="#FAFAFA"/>
<path d="M91.9966 136.325H73.3855V155.64H91.9966V136.325Z" fill="#E6E6E6"/>
<path d="M77.7519 136.325H33.3945V155.64H77.7519V136.325Z" fill="#F5F5F5"/>
<path d="M58.9272 136.325H53.4468V155.584H58.9272V136.325Z" fill="#FAFAFA"/>
<path d="M183.67 44.8394H142.895V82.7694H183.67V44.8394Z" fill="#E6E6E6"/>
<path d="M181.605 80.8498V46.7598L144.959 46.7598V80.8498H181.605Z" fill="#FAFAFA"/>
<path d="M160.826 73.1081C160.826 73.1081 167.555 60.2744 181.605 60.0171V80.85H163.282L160.826 73.1081Z" fill="#F0F0F0"/>
<path d="M144.959 69.5044C144.959 69.5044 151.01 66.5534 157.16 68.7196C164.883 71.4398 169.362 80.8497 169.362 80.8497H144.959V69.5044Z" fill="#F5F5F5"/>
<path d="M157.531 63.581C161.101 63.581 163.996 60.8883 163.996 57.5666C163.996 54.245 161.101 51.5522 157.531 51.5522C153.96 51.5522 151.065 54.245 151.065 57.5666C151.065 60.8883 153.96 63.581 157.531 63.581Z" fill="white"/>
<path d="M67.643 44.8394H31.8702V109.262H67.643V44.8394Z" fill="#E6E6E6"/>
<path d="M65.5791 107.342L65.5791 46.7598L33.9344 46.7598L33.9344 107.342H65.5791Z" fill="#FAFAFA"/>
<path d="M44.8915 71.5464C48.4623 71.5464 51.357 68.8536 51.357 65.532C51.357 62.2103 48.4623 59.5176 44.8915 59.5176C41.3207 59.5176 38.426 62.2103 38.426 65.532C38.426 68.8536 41.3207 71.5464 44.8915 71.5464Z" fill="white"/>
<path d="M39.8502 107.342C39.8502 107.342 47.859 71.5197 65.579 68.3032V107.342H49.7568H39.8502Z" fill="#F0F0F0"/>
<path d="M33.9343 86.0824C33.9343 86.0824 38.0112 82.4258 44.47 84.6117C56.6073 88.7195 63.3819 107.342 63.3819 107.342H33.9343V86.0824Z" fill="#F5F5F5"/>
<path d="M209.939 72.9613C215.86 72.2797 220.066 67.2622 219.333 61.7543C218.6 56.2464 213.206 52.3339 207.285 53.0155C201.364 53.697 197.159 58.7145 197.891 64.2224C198.624 69.7303 204.018 73.6428 209.939 72.9613Z" fill="#E0E0E0"/>
<path d="M218.315 65.099C219.567 60.121 216.245 55.1411 210.893 53.976C205.542 52.8109 200.189 55.9018 198.936 60.8797C197.684 65.8577 201.006 70.8376 206.358 72.0027C211.709 73.1678 217.062 70.0769 218.315 65.099Z" fill="#FAFAFA"/>
<path d="M208.646 54.5737H208.273V56.5043H208.646V54.5737Z" fill="#E0E0E0"/>
<path d="M208.646 69.4243H208.273V71.3549H208.646V69.4243Z" fill="#E0E0E0"/>
<path d="M201.515 62.791H199.439V63.1376H201.515V62.791Z" fill="#E0E0E0"/>
<path d="M217.479 62.791H215.404V63.1376H217.479V62.791Z" fill="#E0E0E0"/>
<path d="M214.709 56.9178L213.241 58.2827L213.504 58.5278L214.972 57.1629L214.709 56.9178Z" fill="#E0E0E0"/>
<path d="M203.412 67.4048L201.945 68.7705L202.208 69.0155L203.675 67.6498L203.412 67.4048Z" fill="#E0E0E0"/>
<path d="M202.216 56.9195L201.953 57.1646L203.421 58.5295L203.684 58.2844L202.216 56.9195Z" fill="#E0E0E0"/>
<path d="M213.505 67.421L213.241 67.666L214.709 69.0313L214.972 68.7863L213.505 67.421Z" fill="#E0E0E0"/>
<path d="M208.399 62.7318L208.282 63.0083L211.801 64.2973L211.918 64.0208L208.399 62.7318Z" fill="#E0E0E0"/>
<path d="M208.619 63.113H202.815V62.8159H208.299V58.625H208.619V63.113Z" fill="#E0E0E0"/>
<path d="M241.735 217.93C241.735 219.61 191.894 220.971 130.413 220.971C68.9324 220.971 19.092 219.61 19.092 217.93C19.092 216.251 68.9324 214.89 130.413 214.89C191.894 214.89 241.735 216.251 241.735 217.93Z" fill="#F5F5F5"/>
<path d="M198.829 98.7793L208.619 106.947H166.148L157.849 98.7793H198.829Z" fill="#1BAD5F"/>
<path opacity="0.5" d="M198.829 98.7793L208.619 106.947H166.148L157.849 98.7793H198.829Z" fill="black"/>
<path d="M198.848 98.7793H157.849V136.918H198.848V98.7793Z" fill="#1BAD5F"/>
<path opacity="0.2" d="M198.848 98.7793H157.849V136.918H198.848V98.7793Z" fill="black"/>
<path d="M185.678 98.7793H144.679V136.918H185.678V98.7793Z" fill="#1BAD5F"/>
<path d="M144.698 98.7793L134.909 106.947H177.379L185.678 98.7793H144.698Z" fill="#1BAD5F"/>
<path opacity="0.3" d="M144.698 98.7793L134.909 106.947H177.379L185.678 98.7793H144.698Z" fill="white"/>
<path d="M165.847 111.92C169.669 111.92 172.264 114.016 172.264 117.465C172.264 121.206 169.412 122.851 165.59 122.851L165.477 124.947H162.653L162.51 120.781H163.451C166.675 120.781 169.156 120.251 169.156 117.465C169.156 115.608 167.93 114.467 165.876 114.467C163.851 114.467 162.568 115.528 162.568 117.385H159.516C159.486 114.175 161.968 111.92 165.847 111.92ZM164.021 130.811C162.851 130.811 161.939 129.962 161.939 128.874C161.939 127.786 162.852 126.938 164.021 126.938C165.162 126.938 166.075 127.787 166.075 128.874C166.075 129.962 165.162 130.811 164.021 130.811Z" fill="white"/>
<path d="M187.455 136.918H139.125V140.87H187.455V136.918Z" fill="#1BAD5F"/>
<path opacity="0.3" d="M187.455 136.918H139.125V140.87H187.455V136.918Z" fill="black"/>
<path d="M205.406 136.918H187.455V140.87H205.406V136.918Z" fill="#1BAD5F"/>
<path opacity="0.5" d="M205.406 136.918H187.455V140.87H205.406V136.918Z" fill="black"/>
<path d="M171.113 140.869H168.2V215.217H171.113V140.869Z" fill="#263238"/>
<path opacity="0.2" d="M171.113 140.869H168.2V215.217H171.113V140.869Z" fill="white"/>
<path opacity="0.2" d="M171.113 142.72L168.2 143.84V140.869H171.113V142.72Z" fill="black"/>
<path d="M183.897 217.623H155.416V217.609C155.416 215.453 157.295 213.706 159.612 213.706H179.701C182.018 213.706 183.896 215.453 183.896 217.609V217.623H183.897Z" fill="#1BAD5F"/>
<path d="M44.8646 179.062C44.8646 179.062 48.3868 177.866 49.2986 181.336C50.2104 184.805 52.8203 183.91 53.3141 183.15C54.2878 181.652 54.424 176.231 52.7496 175.905C50.7501 175.514 45.5695 177.482 44.8646 179.062Z" fill="#1BAD5F"/>
<g opacity="0.4">
<path d="M44.8646 179.062C44.8646 179.062 48.3868 177.866 49.2986 181.336C50.2104 184.805 52.8203 183.91 53.3141 183.15C54.2878 181.652 54.424 176.231 52.7496 175.905C50.7501 175.514 45.5695 177.482 44.8646 179.062Z" fill="black"/>
</g>
<path d="M52.7501 175.905C48.619 175.961 47.5262 179.335 46.8626 182.31L45.52 179.978L46.472 184.116C46.3698 184.568 46.263 184.986 46.1402 185.348C45.1459 188.279 42.0787 189.172 42.0787 189.172C42.0787 189.172 41.8935 187.982 41.7304 186.31V186.309L43.2336 184.11L41.5999 184.748C41.4172 182.126 41.3925 178.974 42.0787 177.176C43.4054 173.707 46.9642 174.775 46.9642 174.775L52.7501 175.905Z" fill="#1BAD5F"/>
<path d="M63.0387 172.262C63.0387 172.262 60.8736 171.655 58.6047 174.536C56.4184 177.312 55.5469 177.638 54.065 176.558C52.583 175.479 53.4793 169.431 55.1532 169.104C57.1532 168.714 62.3344 170.681 63.0387 172.262Z" fill="#1BAD5F"/>
<g opacity="0.4">
<path d="M63.0387 172.262C63.0387 172.262 60.8736 171.655 58.6047 174.536C56.4184 177.312 55.5469 177.638 54.065 176.558C52.583 175.479 53.4793 169.431 55.1532 169.104C57.1532 168.714 62.3344 170.681 63.0387 172.262Z" fill="black"/>
</g>
<path d="M69.9995 188.019C69.9995 188.019 67.3055 187.235 65.4592 184.877L67.8473 179.662L64.5728 183.46C64.435 183.177 64.3106 182.878 64.2033 182.563C62.7838 178.381 63.0743 169.303 54.9127 169.193L63.0268 167.471C63.0268 167.471 68.1063 165.946 69.9985 170.899C70.481 172.158 70.7173 173.886 70.8019 175.76L67.8468 173.216C67.8468 173.216 69.8958 175.982 70.838 177.137C70.886 182.321 69.9995 188.019 69.9995 188.019Z" fill="#1BAD5F"/>
<path d="M42.3915 164.22C42.3915 164.22 45.9137 163.025 46.8255 166.495C47.7372 169.964 52.324 171.288 52.7946 169.593C53.2966 167.784 52.1867 161.339 50.5128 161.012C48.5128 160.622 43.0958 162.64 42.3915 164.22Z" fill="#1BAD5F"/>
<g opacity="0.4">
<path d="M42.3915 164.22C42.3915 164.22 45.9137 163.025 46.8255 166.495C47.7372 169.964 52.324 171.288 52.7946 169.593C53.2966 167.784 52.1867 161.339 50.5128 161.012C48.5128 160.622 43.0958 162.64 42.3915 164.22Z" fill="black"/>
</g>
<path d="M50.6604 161.041C43.988 161.131 42.8693 167.285 41.9069 171.814L38.507 167.252C38.5504 167.384 40.3533 172.827 41.0504 174.985C39.4786 178.797 35.4296 179.978 35.4296 179.978C35.4296 179.978 34.2959 172.693 34.6602 167.102C35.6546 166.336 37.4126 164.965 37.4126 164.965L34.8068 165.565C34.9384 164.539 35.1401 163.613 35.4296 162.856C37.3218 157.905 42.4028 159.429 42.4028 159.429L50.6604 161.041Z" fill="#1BAD5F"/>
<path d="M53.3147 191.353C53.3059 191.353 53.2977 191.352 53.2884 191.351C53.1609 191.338 53.0686 191.231 53.083 191.112C55.3937 171.985 49.6046 155.857 49.5458 155.696C49.504 155.583 49.5696 155.46 49.6908 155.422C49.8136 155.384 49.9452 155.444 49.986 155.557C50.0453 155.719 55.8668 171.939 53.5453 191.161C53.5319 191.271 53.4313 191.353 53.3147 191.353Z" fill="#1BAD5F"/>
<path d="M62.2884 189.96H44.4302V192.286H62.2884V189.96Z" fill="#263238"/>
<path opacity="0.2" d="M62.2884 189.96H44.4302V192.286H62.2884V189.96Z" fill="white"/>
<path d="M59.4081 192.286H47.2207C45.7568 195.448 41.0251 204.767 41.0251 207.52C41.0251 210.777 45.3915 217.565 45.3915 217.565C45.3915 218.053 61.2368 218.053 61.2368 217.565C61.2368 217.565 65.6032 210.777 65.6032 207.52C65.6032 204.767 60.8715 195.448 59.4081 192.286Z" fill="#263238"/>
<path d="M78.5073 62.5396C84.505 62.5396 89.3671 58.0168 89.3671 52.4375C89.3671 46.8583 84.505 42.3354 78.5073 42.3354C72.5096 42.3354 67.6476 46.8583 67.6476 52.4375C67.6476 58.0168 72.5096 62.5396 78.5073 62.5396Z" fill="#1BAD5F"/>
<g opacity="0.7">
<path d="M78.5073 62.5396C84.505 62.5396 89.3671 58.0168 89.3671 52.4375C89.3671 46.8583 84.505 42.3354 78.5073 42.3354C72.5096 42.3354 67.6476 46.8583 67.6476 52.4375C67.6476 58.0168 72.5096 62.5396 78.5073 62.5396Z" fill="white"/>
</g>
<path d="M78.5074 62.7473C72.3958 62.7473 67.4242 58.1225 67.4242 52.4374C67.4242 46.7522 72.3958 42.1274 78.5074 42.1274C84.6189 42.1274 89.5905 46.7522 89.5905 52.4374C89.5905 58.1225 84.6189 62.7473 78.5074 62.7473ZM78.5074 42.5431C72.6425 42.5431 67.871 46.9817 67.871 52.4374C67.871 57.893 72.6425 62.3316 78.5074 62.3316C84.3722 62.3316 89.1437 57.893 89.1437 52.4374C89.1437 46.9817 84.3722 42.5431 78.5074 42.5431Z" fill="#1BAD5F"/>
<path d="M78.5951 46.8223C80.947 46.8223 82.5446 48.1125 82.5446 50.2351C82.5446 52.5371 80.7896 53.5499 78.4372 53.5499L78.367 54.8402H76.6291L76.5414 52.2765H77.1204C79.1039 52.2765 80.6312 51.9501 80.6312 50.2355C80.6312 49.0927 79.8763 48.3904 78.6126 48.3904C77.3665 48.3904 76.5765 49.0432 76.5765 50.1866H74.6983C74.6807 48.2099 76.2081 46.8223 78.5951 46.8223ZM77.4718 58.4479C76.7519 58.4479 76.19 57.9251 76.19 57.256C76.19 56.5864 76.7519 56.0637 77.4718 56.0637C78.174 56.0637 78.736 56.5864 78.736 57.256C78.736 57.9256 78.174 58.4479 77.4718 58.4479Z" fill="#1BAD5F"/>
<path d="M85.302 60.3181L88.8433 61.9558C89.0291 62.0418 89.2313 61.8704 89.1565 61.6904L87.607 57.9526C86.8185 58.9947 86.0481 59.8098 85.302 60.3181Z" fill="#1BAD5F"/>
<path d="M88.1177 78.7204C88.6141 81.0436 109.854 80.1206 108.86 77.1206C108.694 76.6204 108.366 76.1222 108.087 75.5644C106.707 72.8006 104.415 69.3345 96.9981 69.3575C92.5357 69.371 86.6554 71.8804 88.1177 78.7204Z" fill="#1BAD5F"/>
<path d="M114.425 209.21L115.511 214.326H118.419L118.806 209.21H114.425Z" fill="#FFC3BD"/>
<path d="M118.035 213.677C118.035 213.677 118.587 213.044 119.286 213.26C119.985 213.476 120.901 214.541 120.901 214.541C120.901 214.541 124.693 215.673 125.718 215.732C126.742 215.792 127.638 216.328 128.022 218.173H115.603C115.603 218.173 115.114 214.005 115.039 213.29C114.963 212.576 116.179 213.469 116.179 213.469L118.035 213.677Z" fill="#1BAD5F"/>
<path d="M127.653 217.623C126.907 217.617 126.163 217.61 125.416 217.603C122.154 217.572 118.892 217.538 115.63 217.507C115.506 217.507 115.506 217.327 115.63 217.33C115.85 217.333 116.073 217.333 116.293 217.337C116.293 217.33 116.297 217.319 116.3 217.313C116.769 216.349 116.227 215.365 115.29 214.871C115.18 214.816 115.279 214.66 115.385 214.718C116.399 215.253 116.956 216.305 116.491 217.337C116.952 217.343 117.41 217.347 117.871 217.35C121.13 217.381 124.391 217.415 127.653 217.446C127.778 217.446 127.778 217.627 127.653 217.623Z" fill="black"/>
<path d="M120.461 215.267C120.893 214.703 121.622 214.542 122.235 214.968C122.334 215.037 122.43 214.882 122.332 214.814C121.629 214.325 120.784 214.537 120.295 215.177C120.223 215.27 120.389 215.36 120.461 215.267Z" fill="white"/>
<path d="M121.531 215.568C121.963 215.003 122.692 214.843 123.305 215.269C123.405 215.337 123.501 215.182 123.402 215.115C122.699 214.626 121.854 214.838 121.365 215.478C121.293 215.571 121.46 215.66 121.531 215.568Z" fill="white"/>
<path d="M122.636 215.868C123.068 215.304 123.797 215.143 124.41 215.569C124.509 215.638 124.605 215.483 124.507 215.415C123.803 214.926 122.959 215.138 122.47 215.778C122.398 215.871 122.564 215.961 122.636 215.868Z" fill="white"/>
<path d="M88.4114 209.247L89.0146 214.326H91.9222L92.7933 209.247H88.4114Z" fill="#FFC3BD"/>
<path d="M91.5389 213.677C91.5389 213.677 92.09 213.044 92.7897 213.26C93.4889 213.476 94.4043 214.541 94.4043 214.541C94.4043 214.541 98.1969 215.673 99.2211 215.732C100.245 215.792 101.142 216.328 101.526 218.173H89.1065C89.1065 218.173 88.6178 214.005 88.542 213.29C88.4661 212.576 89.6823 213.469 89.6823 213.469L91.5389 213.677Z" fill="#1BAD5F"/>
<path d="M101.156 217.623C100.409 217.617 99.6659 217.61 98.9192 217.603C95.6571 217.572 92.3949 217.538 89.1333 217.507C89.0089 217.507 89.0089 217.327 89.1333 217.33C89.3531 217.333 89.576 217.333 89.7958 217.337C89.7958 217.33 89.7995 217.319 89.8031 217.313C90.2716 216.349 89.7298 215.365 88.7927 214.871C88.6828 214.816 88.7819 214.66 88.8877 214.718C89.9016 215.253 90.4584 216.305 89.9935 217.337C90.4548 217.343 90.9125 217.347 91.3738 217.35C94.6323 217.381 97.894 217.415 101.156 217.446C101.281 217.446 101.281 217.627 101.156 217.623Z" fill="black"/>
<path d="M93.964 215.267C94.3959 214.702 95.1256 214.542 95.7386 214.967C95.8376 215.036 95.9336 214.881 95.8356 214.813C95.1323 214.325 94.2876 214.537 93.7984 215.177C93.7262 215.27 93.8928 215.36 93.964 215.267Z" fill="white"/>
<path d="M95.0337 215.567C95.4656 215.003 96.1952 214.843 96.8082 215.268C96.9073 215.337 97.0033 215.182 96.9052 215.114C96.2019 214.626 95.3572 214.838 94.8681 215.478C94.7963 215.571 94.9625 215.66 95.0337 215.567Z" fill="white"/>
<path d="M96.139 215.868C96.5709 215.303 97.3005 215.143 97.913 215.569C98.0121 215.637 98.1081 215.482 98.01 215.414C97.3067 214.926 96.462 215.138 95.9729 215.778C95.9011 215.871 96.0678 215.96 96.139 215.868Z" fill="white"/>
<path d="M113.457 209.39H119.873C120.428 201.705 121.999 176.237 120.758 163.634C121.651 146.148 118.778 122.937 118.778 122.937H98.4528C98.4528 122.937 99.9419 138.469 106.628 163.382C106.581 183.12 111.76 202.853 113.457 209.39Z" fill="#263238"/>
<path opacity="0.2" d="M105.531 159.195C109.206 145.235 105.979 127.131 105.979 127.131L102.808 147.81L105.531 159.195Z" fill="black"/>
<path d="M112.692 209.241L113.163 211.509L120.52 211.479L120.525 209.21L112.692 209.241Z" fill="#263238"/>
<path d="M87.496 209.611H93.912C96.1979 201.704 100.79 176.283 101.525 163.68C105.16 146.194 106.898 122.937 106.898 122.937H86.5729C86.5729 122.937 84.6823 138.647 87.4615 163.56C86.9222 185.28 87.3505 202.853 87.496 209.611Z" fill="#263238"/>
<path d="M86.9357 209.234L86.9222 211.483L94.3377 211.485L94.7262 209.236L86.9357 209.234Z" fill="#263238"/>
<path d="M121.435 125.789C107.338 130.829 84.3711 127.176 84.3711 127.176C84.6446 120.763 84.882 108.062 84.7891 97.5073C84.7839 97.2625 84.7839 97.0177 84.7788 96.7729C84.7633 95.2753 84.7375 93.8257 84.7065 92.4529C84.7014 92.2849 84.7014 92.1169 84.6962 91.9537C84.6291 89.2561 84.5259 86.8705 84.3918 84.9601C84.1338 81.3649 86.2339 78.0193 90.0574 77.4193C91.2184 77.2369 92.4723 77.0785 93.7778 76.9489C94.0874 76.9153 94.4022 76.8865 94.7221 76.8577C98.3444 76.5265 102.318 76.3825 105.945 76.4785C106.126 76.4785 106.306 76.4833 106.487 76.4881C106.58 76.4929 106.683 76.4929 106.776 76.4977C106.931 76.5025 107.091 76.5073 107.245 76.5169C108.86 76.5793 110.393 76.6897 111.766 76.8577C114.882 77.2321 117.653 79.5217 117.705 82.4497C117.751 85.1329 118.035 90.7969 118.443 97.1857C118.597 99.6049 118.773 102.134 118.964 104.64C119.702 114.504 120.641 124.066 121.435 125.789Z" fill="#1BAD5F"/>
<path d="M85.465 114.053C85.4702 114.058 85.4753 114.067 85.4753 114.072L85.4599 114.063C85.4392 114.053 85.4186 114.053 85.3928 114.053L83.3494 117.619C83.2153 117.552 83.0863 117.485 82.9573 117.413L82.8592 117.355L82.7973 117.317L82.6838 117.24L82.4464 117.087L82.2555 116.952C81.9923 116.77 81.7808 116.607 81.5537 116.434C81.1255 116.093 80.7178 115.757 80.3205 115.416C79.531 114.739 78.7725 114.063 78.0191 113.376C76.5331 111.989 75.0934 110.578 73.6951 109.128C72.2864 107.679 70.9293 106.195 69.5877 104.607C69.2523 104.208 68.9117 103.795 68.5815 103.354C68.4112 103.123 68.2461 102.912 68.0707 102.648C67.9004 102.408 67.7198 102.125 67.5185 101.775L67.3586 101.458L67.276 101.299C67.2399 101.208 67.1986 101.103 67.1625 101.007L67.0645 100.699C67.0335 100.57 67.0129 100.594 66.9561 100.191C66.9148 99.8786 66.9097 99.5522 66.9458 99.2354L66.9767 99.0002C66.9922 98.9282 67.0077 98.837 67.018 98.8082L67.0954 98.5538C67.1522 98.381 67.2244 98.213 67.3018 98.045L67.4205 97.805L67.4876 97.685L67.5134 97.6418L67.7353 97.301C67.9107 97.0418 67.9933 96.941 68.1068 96.7922C68.5454 96.2306 68.8963 95.8418 69.2626 95.4242C70.7023 93.845 72.1264 92.4482 73.5661 91.0322C75.016 89.6402 76.4608 88.2578 77.9417 86.9186C80.8881 84.2162 83.8809 81.5906 87.0027 79.061L92.9057 85.0994C89.9697 87.7154 86.9408 90.2738 83.9222 92.8082L79.4123 96.6098C77.9675 97.8146 76.5124 99.0578 75.2069 100.248C75.3101 100.421 75.4185 100.594 75.532 100.767C76.5331 102.303 77.6683 103.863 78.7828 105.418C79.918 106.968 81.0635 108.523 82.2297 110.045C82.8076 110.813 83.3907 111.571 83.9841 112.306C84.2782 112.675 84.5775 113.026 84.8665 113.367L85.2741 113.837L85.4341 114.015L85.465 114.053Z" fill="#1BAD5F"/>
<path d="M99.6942 80.665C99.6942 80.665 102.365 90.9817 101.599 101.011" stroke="white" stroke-width="0.5" stroke-miterlimit="10" stroke-linecap="round" stroke-linejoin="round"/>
<path d="M105.769 80.4419C105.769 80.4419 108.439 90.7585 107.674 100.788" stroke="white" stroke-width="0.5" stroke-miterlimit="10" stroke-linecap="round" stroke-linejoin="round"/>
<path opacity="0.2" d="M118.964 104.64C113.752 97.571 109.824 89.7187 107.317 81L118.443 97.1856C118.597 99.6048 118.773 102.134 118.964 104.64Z" fill="black"/>
<path opacity="0.2" d="M91.8536 110.909C91.8536 110.909 92.8557 117.206 92.4971 120.832C92.4971 120.832 103.615 122.452 115.31 120.045C115.777 117.6 115.751 113.91 114.688 110.272C107.807 109.949 100.083 110.244 91.8536 110.909Z" fill="black"/>
<path d="M108.645 56.422C106.442 55.6939 103.994 55.7855 101.92 56.7902C100.566 57.4463 99.3887 58.451 99.4176 59.9582C99.4852 63.4747 100.539 69.3571 100.539 69.3571L113.3 63.9907C113.3 63.9907 114.229 61.0449 112.735 59.1662C111.625 57.7718 110.274 56.9601 108.645 56.422Z" fill="#263238"/>
<path d="M99.4734 63.641C99.4734 63.641 99.7505 62.6191 98.4832 60.7207C97.2159 58.8223 98.6049 57.641 99.5797 57.9146C99.5797 57.9146 99.0714 56.7453 99.9156 56.345C100.76 55.9447 101.19 56.4017 101.19 56.4017C101.19 56.4017 104.371 54.0338 108.691 54.8273C112.171 55.4666 114.745 53.2092 116.036 54.0885C117.328 54.9679 114.979 55.7892 114.979 55.7892C114.979 55.7892 117.068 56.8596 116.743 57.858C116.419 58.8564 114.506 58.9356 114.506 58.9356C114.506 58.9356 116.492 60.1625 115.682 60.9789C114.872 61.7959 112.345 60.8061 112.345 60.8061C112.345 60.8061 102.324 60.7577 99.4734 63.641Z" fill="#263238"/>
<path d="M106.116 73.7289L106.116 73.7337C106.107 73.7486 106.103 73.7587 106.094 73.7736L105.291 75.719C105.196 76.1232 105.143 76.5297 105.131 76.9286C105.119 77.2651 105.138 77.5953 105.177 77.9141C105.58 78.5654 105.645 79.9574 103.962 79.7942C101.837 79.5917 98.2354 76.4913 98.1973 75.6062C99.4945 73.0061 100.727 69.7541 100.869 67.1592L103.008 69.8414L106.116 73.7289Z" fill="#FFC3BD"/>
<g opacity="0.2">
<path d="M106.093 73.774L105.29 75.7195C104.028 75.0216 102.779 73.6651 102.614 72.3177C102.502 71.3462 103.066 70.5048 103.483 70.4976L106.093 73.774Z" fill="black"/>
</g>
<path d="M111.957 70.1211C111.782 70.544 111.591 70.9591 111.391 71.3671C109.615 74.9681 104.621 74.8064 101.86 71.743C101.856 71.7372 101.857 71.7324 101.852 71.731C101.607 71.4588 101.378 71.1646 101.173 70.8449C99.4935 68.2505 100.2 66.4582 100.984 62.3057C101.767 58.158 106.875 56.0326 110.701 58.5833C114.233 60.9372 113.73 65.8942 111.957 70.1211Z" fill="#FFC3BD"/>
<path d="M107.972 69.7315C107.796 70.1745 107.359 70.4323 106.997 70.3075C106.635 70.1827 106.484 69.7224 106.661 69.2793C106.837 68.8363 107.274 68.5785 107.636 68.7033C107.998 68.8281 108.149 69.2884 107.972 69.7315Z" fill="white"/>
<path d="M104.722 61.6618C105.885 61.5101 105.093 60.3168 105.342 59.6467C106.154 57.4694 112.521 58.9584 113.253 62.2891C113.253 62.2891 113.077 59.7514 111.09 58.1966C109.103 56.6419 104.829 55.9344 102.864 57.7301C100.899 59.5258 100.889 62.6909 100.889 62.6909C100.889 62.6909 100.836 63.263 101.216 63.6408C101.428 63.8314 101.801 64.7088 102.42 64.9416C102.947 65.1403 103.35 65.0616 103.543 64.3507C103.738 63.6398 103.943 61.763 104.722 61.6618Z" fill="#263238"/>
<path d="M98.3934 64.6139C98.4434 65.7491 99.0523 66.7567 99.801 67.3783C100.927 68.3128 102.153 67.5247 102.394 66.2128C102.611 65.0325 102.287 63.1235 100.889 62.6915C99.5126 62.2653 98.3361 63.316 98.3934 64.6139Z" fill="#FFC3BD"/>
<path d="M107.515 64.8504C107.432 65.1729 107.548 65.4749 107.775 65.5257C108.001 65.5761 108.252 65.3558 108.335 65.0337C108.418 64.7112 108.302 64.4093 108.076 64.3584C107.849 64.3075 107.598 64.5278 107.515 64.8504Z" fill="#263238"/>
<path d="M111.324 65.6551C111.241 65.9776 111.357 66.2796 111.584 66.3304C111.81 66.3808 112.061 66.1605 112.145 65.8384C112.228 65.5159 112.112 65.2139 111.885 65.1631C111.658 65.1122 111.407 65.3325 111.324 65.6551Z" fill="#263238"/>
<path d="M112.682 64.6861C112.622 64.6722 112.57 64.6294 112.552 64.5694C112.47 64.3006 112.325 64.1125 112.122 64.0103C111.788 63.8423 111.389 63.9507 111.385 63.9522C111.293 63.9795 111.19 63.931 111.16 63.8422C111.131 63.7539 111.183 63.6603 111.278 63.6325C111.3 63.6263 111.823 63.4789 112.293 63.716C112.584 63.8629 112.788 64.1192 112.897 64.4778C112.924 64.5666 112.869 64.6592 112.773 64.6847C112.743 64.6928 112.711 64.6928 112.682 64.6861Z" fill="#263238"/>
<path d="M106.774 63.3768C106.746 63.3705 106.719 63.3581 106.696 63.3398C106.613 63.276 106.601 63.1622 106.669 63.0854C106.685 63.0672 107.065 62.6457 107.643 62.6011C108.001 62.5733 108.35 62.6933 108.678 62.9587C108.759 63.0245 108.768 63.1392 108.697 63.2145C108.627 63.2904 108.503 63.2981 108.422 63.2323C108.177 63.0345 107.927 62.9433 107.679 62.9621C107.266 62.9928 106.973 63.3134 106.97 63.3168C106.92 63.3715 106.843 63.3921 106.774 63.3768Z" fill="#263238"/>
<path d="M109.89 65.0889C109.89 65.0889 110.07 66.5663 110.553 67.5901C111.037 68.6178 109.134 68.2333 109.134 68.2333L109.89 65.0889Z" fill="#ED847E"/>
<path opacity="0.2" d="M91.4042 86.5776L84.7787 96.7728C84.7632 95.2752 84.7374 93.8256 84.7065 92.4528C84.7013 92.2848 84.7013 92.1168 84.6962 91.9536L91.4042 86.5776Z" fill="black"/>
<path d="M123.407 101.847C121.286 102.744 118.794 101.976 117.622 100.157C117.545 100.037 117.473 99.9221 117.395 99.8021C117.246 99.5669 117.096 99.3269 116.946 99.0869C116.869 98.9717 116.797 98.8517 116.724 98.7317C116.482 98.3477 116.244 97.9589 116.002 97.5701C115.739 97.1381 115.47 96.7061 115.202 96.2693C114.939 95.8373 114.676 95.4053 114.408 94.9685C114.139 94.5365 113.876 94.0997 113.618 93.6677C113.355 93.2309 113.092 92.7941 112.834 92.3573C112.803 92.3045 112.772 92.2517 112.741 92.1989C112.251 91.3781 111.76 90.5525 111.275 89.7317C110.249 87.9749 109.232 86.2133 108.241 84.4373C107.251 82.6565 106.27 80.8757 105.347 79.0565L109.407 76.5845C110.826 78.1013 112.189 79.6565 113.541 81.2165C113.69 81.3893 113.84 81.5621 113.99 81.7397L117.091 80.2325C117.865 81.4997 118.597 82.7861 119.32 84.0821C120.037 85.3733 120.749 86.6741 121.441 87.9797C122.132 89.2853 122.823 90.5957 123.489 91.9157C124.165 93.2309 124.826 94.5557 125.476 95.8805L125.656 96.2549C126.693 98.3765 125.687 100.882 123.407 101.847Z" fill="#1BAD5F"/>
<path d="M115.202 96.2691C115.145 96.1827 115.094 96.1011 115.042 96.0147C114.557 95.2371 114.082 94.4547 113.618 93.6675C113.876 94.0995 114.139 94.5363 114.408 94.9683C114.676 95.4051 114.939 95.8371 115.202 96.2691Z" fill="#1BAD5F"/>
<path d="M109.413 77.5587C109.314 78.2863 108.747 79.4211 107.607 79.3827C106.539 79.3443 105.646 79.0082 105.538 78.965C105.532 78.9602 105.527 78.9603 105.527 78.9603C104.655 78.7539 103.019 78.2403 102.457 77.2371C101.668 75.8355 102.901 73.6371 102.901 73.6371C101.621 72.5091 100.107 70.5684 101.165 71.01C102.218 71.4516 106.373 74.1507 107.861 73.8449C109.243 73.5607 109.728 72.4438 110.242 72.6699C110.833 72.93 109.735 73.9289 109.183 74.9657C109.183 74.9657 109.563 76.4503 109.413 77.5587Z" fill="#FFC3BD"/>
<g opacity="0.2">
<path d="M105.155 78.9843C105.137 78.9843 105.118 78.9809 105.101 78.9732C104.995 78.9271 102.489 77.8342 102.035 76.6404C101.63 75.5753 102.499 74.0465 102.736 73.662C102.403 73.3903 101.177 72.3612 100.848 71.7324C100.667 71.3849 100.626 71.1367 100.724 70.974C100.802 70.8439 100.936 70.8276 100.951 70.8262C101.483 70.8334 102.025 71.2039 102.773 71.7166C103.518 72.2268 104.445 72.8614 105.701 73.3731C107.959 74.2932 108.364 73.7335 108.632 73.363L108.734 73.2252C109.031 72.8263 109.529 72.1582 110.376 72.4783C110.442 72.5033 110.474 72.5729 110.447 72.6343C110.42 72.6958 110.346 72.7255 110.28 72.7006C109.671 72.4726 109.316 72.8647 108.946 73.362L108.846 73.4974C108.445 74.0513 107.862 74.515 105.598 73.5929C104.316 73.0706 103.376 72.427 102.621 71.91C101.939 71.443 101.4 71.0738 100.966 71.0657C100.976 71.0666 100.959 71.0729 100.947 71.0959C100.93 71.1281 100.89 71.2625 101.081 71.6278C101.431 72.2974 102.97 73.5338 102.985 73.5463C103.033 73.5847 103.044 73.6495 103.011 73.6999C102.999 73.7177 101.863 75.4683 102.278 76.5607C102.697 77.6599 105.185 78.7452 105.21 78.7562C105.274 78.7841 105.302 78.8556 105.272 78.9156C105.251 78.9588 105.204 78.9843 105.155 78.9843Z" fill="black"/>
</g>
<path opacity="0.2" d="M111.241 78.52L122.292 94.1603C122.292 94.1603 121.002 88.9202 111.241 78.52Z" fill="black"/>
<path d="M84.7137 114.132C84.7137 114.132 89.1616 115.406 89.513 116.213C89.8649 117.02 88.4113 116.811 88.4113 116.811C88.4113 116.811 89.9975 117.121 89.9547 117.69C89.9031 118.372 88.3814 118.148 88.3814 118.148C88.3814 118.148 89.6657 118.444 89.5863 118.946C89.5037 119.467 87.7689 119.314 87.7689 119.314C87.7689 119.314 88.6322 119.663 88.336 119.978C88.0398 120.294 84.8071 120.074 83.7844 119.398C82.7616 118.721 83.4211 114.93 83.7214 114.106C84.0217 113.281 83.4954 112.426 84.7513 111.481L84.7137 114.132Z" fill="#FFC3BD"/>
<path opacity="0.2" d="M88.401 116.874C88.399 116.873 88.3969 116.873 88.3943 116.872L85.6559 116.223C85.6193 116.214 85.5971 116.179 85.6064 116.145C85.6157 116.111 85.6549 116.09 85.6899 116.099L88.4284 116.749C88.465 116.757 88.4872 116.792 88.4779 116.827C88.4691 116.859 88.4356 116.879 88.401 116.874Z" fill="black"/>
<path opacity="0.2" d="M88.2916 118.199L88.29 118.199L85.6073 117.745C85.5702 117.739 85.5454 117.706 85.5521 117.671C85.5588 117.636 85.5882 117.618 85.6321 117.62L88.3148 118.073C88.3519 118.079 88.3767 118.113 88.37 118.147C88.3628 118.182 88.3282 118.204 88.2916 118.199Z" fill="black"/>
<path opacity="0.2" d="M87.6663 119.363L85.6632 119.073C85.6255 119.068 85.6002 119.035 85.6059 119C85.6116 118.965 85.6467 118.941 85.6843 118.947L87.6874 119.237C87.7251 119.242 87.7504 119.275 87.7447 119.31C87.739 119.345 87.704 119.369 87.6663 119.363Z" fill="black"/>
</g>
<defs>
<clipPath id="clip0_50_149">
<rect width="258" height="240" fill="white"/>
</clipPath>
</defs>
</svg>
