<svg width="284" height="213" viewBox="0 0 284 213" fill="none" xmlns="http://www.w3.org/2000/svg">
<path d="M284 203.087H0V203.242H284V203.087Z" fill="#EBEBEB"/>
<path d="M48.61 208.992H29.7968V209.147H48.61V208.992Z" fill="#EBEBEB"/>
<path d="M102.145 207.309H82.5492V207.464H102.145V207.309Z" fill="#EBEBEB"/>
<path d="M74.692 211.985H43.2146V212.14H74.692V211.985Z" fill="#EBEBEB"/>
<path d="M254.937 212.553H230.404V212.708H254.937V212.553Z" fill="#EBEBEB"/>
<path d="M223.413 208.678H210.404V208.833H223.413V208.678Z" fill="#EBEBEB"/>
<path d="M164.328 211.167H111.12V211.322H164.328V211.167Z" fill="#EBEBEB"/>
<path d="M134.624 175.435H24.9437C23.1562 175.435 21.7015 173.848 21.7015 171.896V3.60915C21.7015 1.65801 23.1562 0.0701904 24.9437 0.0701904H134.624C136.411 0.0701904 137.865 1.65801 137.865 3.60915V171.897C137.865 173.848 136.411 175.435 134.624 175.435ZM24.9437 0.22519C23.234 0.22519 21.8435 1.74295 21.8435 3.60915V171.897C21.8435 173.763 23.234 175.281 24.9437 175.281H134.624C136.333 175.281 137.723 173.763 137.723 171.897V3.60915C137.723 1.74357 136.333 0.22519 134.624 0.22519H24.9437Z" fill="#EBEBEB"/>
<path d="M257.48 175.435H147.8C146.013 175.435 144.559 173.848 144.559 171.896V3.60915C144.559 1.65801 146.013 0.0701904 147.8 0.0701904H257.48C259.268 0.0701904 260.722 1.65801 260.722 3.60915V171.897C260.723 173.848 259.268 175.435 257.48 175.435ZM147.8 0.22519C146.091 0.22519 144.701 1.74295 144.701 3.60915V171.897C144.701 173.763 146.091 175.281 147.8 175.281H257.48C259.19 175.281 260.58 173.763 260.58 171.897V3.60915C260.58 1.74357 259.19 0.22519 257.48 0.22519H147.8Z" fill="#EBEBEB"/>
<path d="M75.1338 161.829H83.7714V125.292H75.1338V161.829Z" fill="#E6E6E6"/>
<path d="M51.7152 161.829H80.3816L84.7109 119.065H56.0439L51.7152 161.829Z" fill="#F0F0F0"/>
<path d="M48.61 161.829H78.221L82.5503 119.065H52.9393L48.61 161.829Z" fill="#F5F5F5"/>
<path d="M76.0813 158.459L79.7284 122.435H55.0789L51.4318 158.459H76.0813Z" fill="white"/>
<path d="M70.9903 149.727L71.1391 148.259C72.0542 139.221 66.8848 131.167 60.1693 131.167L60.0205 132.635C59.106 141.672 64.2754 149.727 70.9903 149.727Z" fill="#F5F5F5"/>
<path d="M61.1881 90.5344L231.051 90.5344V23.288L61.1881 23.288V90.5344Z" fill="#E6E6E6"/>
<path d="M58.0979 90.5344L229.607 90.5344V23.288L58.0979 23.288V90.5344Z" fill="#F0F0F0"/>
<path d="M61.1881 96.803L231.051 96.803V90.5342L61.1881 90.5342V96.803Z" fill="#E6E6E6"/>
<path d="M52.9495 96.803L224.458 96.803V90.5342L52.9495 90.5342V96.803Z" fill="#F0F0F0"/>
<path d="M225.28 85.8119V28.0111L62.425 28.0111V85.8119L225.28 85.8119Z" fill="#FAFAFA"/>
<path d="M207.866 85.8118L186.696 28.0111H168.114L189.283 85.8118H207.866Z" fill="white"/>
<path d="M116.12 85.8118L94.9509 28.0111H76.3677L97.537 85.8118H116.12Z" fill="white"/>
<path d="M185.291 85.8118L164.122 28.0111H156.877L178.047 85.8118H185.291Z" fill="white"/>
<path d="M62.9744 85.8119L62.9744 28.0111H62.4251L62.4251 85.8119H62.9744Z" fill="#E6E6E6"/>
<path d="M32.5915 203.087H58.0601L58.0601 161.829H32.5915V203.087Z" fill="#E6E6E6"/>
<path d="M35.1541 203.087H32.5924V195.133H37.8396L35.1541 203.087Z" fill="#F0F0F0"/>
<path d="M103.972 203.087H129.441V161.829H103.972V203.087Z" fill="#E6E6E6"/>
<path d="M32.5916 198.206H106.208V161.829H32.5916V198.206Z" fill="#F0F0F0"/>
<path d="M103.646 203.087H106.208V195.133H100.96L103.646 203.087Z" fill="#F0F0F0"/>
<path d="M34.5796 178.782H104.221V164.104H34.5796V178.782Z" fill="#E6E6E6"/>
<path d="M64.7555 173.673H74.044C78.0785 173.673 81.9358 171.862 84.7104 168.666H54.089C56.8637 171.862 60.721 173.673 64.7555 173.673Z" fill="#F0F0F0"/>
<path d="M34.5796 195.834H104.221V181.155H34.5796V195.834Z" fill="#E6E6E6"/>
<path d="M64.7555 190.725H74.044C78.0785 190.725 81.9358 188.914 84.7104 185.717H54.089C56.8637 188.914 60.721 190.725 64.7555 190.725Z" fill="#F0F0F0"/>
<path d="M195.914 144.635C195.862 144.362 195.644 144.167 195.386 144.167H188.943H181.371H174.929C174.671 144.167 174.453 144.361 174.401 144.635L167.147 203.087H168.247L175.369 145.341H194.944L202.066 203.087H203.166L195.914 144.635Z" fill="#F0F0F0"/>
<path d="M235.517 144.635C235.465 144.362 235.247 144.167 234.988 144.167H228.546H220.975H214.532C214.274 144.167 214.055 144.361 214.004 144.635L206.75 203.087H207.85L214.972 145.341H234.547L241.669 203.087H242.769L235.517 144.635Z" fill="#F0F0F0"/>
<path d="M236.099 139.705H171.769C168.695 139.705 166.202 141.32 166.202 143.313V143.437C166.202 144.164 167.111 144.753 168.232 144.753H239.636C240.757 144.753 241.666 144.164 241.666 143.437V143.313C241.665 141.32 239.173 139.705 236.099 139.705Z" fill="#E0E0E0"/>
<path d="M240.038 110.771H197.5L191.335 138.189H233.873L240.038 110.771Z" fill="#E6E6E6"/>
<path d="M233.873 138.189L233.701 139.705H191.161L191.333 138.189H233.873Z" fill="#E6E6E6"/>
<path d="M238.729 110.771H196.19L190.025 138.189H232.563L238.729 110.771Z" fill="#F0F0F0"/>
<path d="M231.664 136.936L237.265 112.024H197.091L191.489 136.936H231.664Z" fill="white"/>
<path d="M221.48 138.189L221.307 139.705H174.465L174.637 138.189H221.48Z" fill="#F0F0F0"/>
<path d="M101.545 160.146H102.203C102.196 158.667 102.206 154.914 102.272 146.313C102.39 130.723 102.618 129.773 102.618 129.773L101.051 136.97C100.057 144.939 101.338 152.947 101.545 160.146Z" fill="#E6E6E6"/>
<path d="M100.244 135.897C97.9891 132.964 93.1719 132.11 88.2393 131.38C86.303 131.094 93.3281 135.923 96.7616 139.355C99.4289 142.019 101.135 142.756 101.867 145.412C102.249 142.1 102.187 138.425 100.244 135.897Z" fill="#E6E6E6"/>
<path d="M103.235 141.14C105.49 138.207 110.307 137.353 115.24 136.623C117.177 136.336 110.151 141.166 106.718 144.597C104.05 147.262 102.345 147.999 101.612 150.655C101.231 147.343 101.293 143.668 103.235 141.14Z" fill="#E6E6E6"/>
<path d="M102.27 129.084C103.961 125.577 108.215 122.277 112.988 121.024C114.862 120.533 108.647 127.498 106.285 131.99C104.45 135.479 102.016 139.578 101.637 142.523C101.066 136.69 100.58 132.59 102.27 129.084Z" fill="#E6E6E6"/>
<path d="M102.07 161.829C100.056 161.829 98.3917 160.727 98.2759 159.317L97.9402 156.908H106.199L105.864 159.317C105.748 160.727 104.084 161.829 102.07 161.829Z" fill="#F0F0F0"/>
<path d="M106.735 157.835H97.4057L97.1382 155.151H107.002L106.735 157.835Z" fill="#F0F0F0"/>
</svg>
