<svg width="284" height="310" viewBox="0 0 284 310" fill="none" xmlns="http://www.w3.org/2000/svg">
<path d="M284 237.087H0V237.242H284V237.087Z" fill="#EBEBEB"/>
<path d="M48.61 242.992H29.7968V243.147H48.61V242.992Z" fill="#EBEBEB"/>
<path d="M102.145 241.309H82.5492V241.464H102.145V241.309Z" fill="#EBEBEB"/>
<path d="M74.692 245.985H43.2146V246.14H74.692V245.985Z" fill="#EBEBEB"/>
<path d="M254.937 246.553H230.404V246.708H254.937V246.553Z" fill="#EBEBEB"/>
<path d="M223.413 242.678H210.404V242.833H223.413V242.678Z" fill="#EBEBEB"/>
<path d="M164.328 245.167H111.12V245.322H164.328V245.167Z" fill="#EBEBEB"/>
<path d="M134.624 209.435H24.9437C23.1562 209.435 21.7015 207.848 21.7015 205.896V37.6093C21.7015 35.6581 23.1562 34.0703 24.9437 34.0703H134.624C136.411 34.0703 137.865 35.6581 137.865 37.6093V205.897C137.865 207.848 136.411 209.435 134.624 209.435ZM24.9437 34.2253C23.234 34.2253 21.8435 35.7431 21.8435 37.6093V205.897C21.8435 207.763 23.234 209.281 24.9437 209.281H134.624C136.333 209.281 137.723 207.763 137.723 205.897V37.6093C137.723 35.7437 136.333 34.2253 134.624 34.2253H24.9437Z" fill="#EBEBEB"/>
<path d="M257.48 209.435H147.8C146.013 209.435 144.559 207.848 144.559 205.896V37.6093C144.559 35.6581 146.013 34.0703 147.8 34.0703H257.48C259.268 34.0703 260.722 35.6581 260.722 37.6093V205.897C260.723 207.848 259.268 209.435 257.48 209.435ZM147.8 34.2253C146.091 34.2253 144.701 35.7431 144.701 37.6093V205.897C144.701 207.763 146.091 209.281 147.8 209.281H257.48C259.19 209.281 260.58 207.763 260.58 205.897V37.6093C260.58 35.7437 259.19 34.2253 257.48 34.2253H147.8Z" fill="#EBEBEB"/>
<path d="M75.1338 195.829H83.7714V159.292H75.1338V195.829Z" fill="#E6E6E6"/>
<path d="M51.7152 195.829H80.3816L84.7109 153.065H56.0439L51.7152 195.829Z" fill="#F0F0F0"/>
<path d="M48.61 195.829H78.221L82.5503 153.065H52.9393L48.61 195.829Z" fill="#F5F5F5"/>
<path d="M76.0813 192.459L79.7284 156.435H55.0789L51.4318 192.459H76.0813Z" fill="white"/>
<path d="M70.9903 183.727L71.1391 182.259C72.0542 173.221 66.8848 165.167 60.1693 165.167L60.0205 166.635C59.106 175.672 64.2754 183.727 70.9903 183.727Z" fill="#F5F5F5"/>
<path d="M61.1881 124.535L231.051 124.535V57.2882L61.1881 57.2882V124.535Z" fill="#E6E6E6"/>
<path d="M58.0979 124.535L229.607 124.535V57.2882L58.0979 57.2882V124.535Z" fill="#F0F0F0"/>
<path d="M61.1881 130.803L231.051 130.803V124.534L61.1881 124.534V130.803Z" fill="#E6E6E6"/>
<path d="M52.9495 130.803L224.458 130.803V124.534L52.9495 124.534V130.803Z" fill="#F0F0F0"/>
<path d="M225.28 119.812V62.0112L62.425 62.0112V119.812L225.28 119.812Z" fill="#FAFAFA"/>
<path d="M207.866 119.812L186.696 62.0112H168.114L189.283 119.812H207.866Z" fill="white"/>
<path d="M116.12 119.812L94.9509 62.0112H76.3677L97.537 119.812H116.12Z" fill="white"/>
<path d="M185.291 119.812L164.122 62.0112H156.877L178.047 119.812H185.291Z" fill="white"/>
<path d="M62.9744 119.812L62.9744 62.0112H62.4251L62.4251 119.812H62.9744Z" fill="#E6E6E6"/>
<path d="M32.5915 237.087H58.0601L58.0601 195.829H32.5915V237.087Z" fill="#E6E6E6"/>
<path d="M35.1541 237.087H32.5924V229.133H37.8396L35.1541 237.087Z" fill="#F0F0F0"/>
<path d="M103.972 237.087H129.441V195.829H103.972V237.087Z" fill="#E6E6E6"/>
<path d="M32.5916 232.206H106.208V195.829H32.5916V232.206Z" fill="#F0F0F0"/>
<path d="M103.646 237.087H106.208V229.133H100.96L103.646 237.087Z" fill="#F0F0F0"/>
<path d="M34.5796 212.783H104.221V198.104H34.5796V212.783Z" fill="#E6E6E6"/>
<path d="M64.7555 207.673H74.044C78.0785 207.673 81.9358 205.862 84.7104 202.666H54.089C56.8637 205.862 60.721 207.673 64.7555 207.673Z" fill="#F0F0F0"/>
<path d="M34.5796 229.834H104.221V215.155H34.5796V229.834Z" fill="#E6E6E6"/>
<path d="M64.7555 224.725H74.044C78.0785 224.725 81.9358 222.914 84.7104 219.717H54.089C56.8637 222.914 60.721 224.725 64.7555 224.725Z" fill="#F0F0F0"/>
<path d="M195.914 178.635C195.862 178.362 195.644 178.167 195.386 178.167H188.943H181.371H174.929C174.671 178.167 174.453 178.361 174.401 178.635L167.147 237.086H168.247L175.369 179.341H194.944L202.066 237.086H203.166L195.914 178.635Z" fill="#F0F0F0"/>
<path d="M235.517 178.635C235.465 178.362 235.247 178.167 234.988 178.167H228.546H220.975H214.532C214.274 178.167 214.055 178.361 214.004 178.635L206.75 237.086H207.85L214.972 179.341H234.547L241.669 237.086H242.769L235.517 178.635Z" fill="#F0F0F0"/>
<path d="M236.099 173.705H171.769C168.695 173.705 166.202 175.32 166.202 177.313V177.437C166.202 178.164 167.111 178.753 168.232 178.753H239.636C240.757 178.753 241.666 178.164 241.666 177.437V177.313C241.665 175.32 239.173 173.705 236.099 173.705Z" fill="#E0E0E0"/>
<path d="M240.038 144.771H197.5L191.335 172.189H233.873L240.038 144.771Z" fill="#E6E6E6"/>
<path d="M233.873 172.189L233.701 173.705H191.161L191.333 172.189H233.873Z" fill="#E6E6E6"/>
<path d="M238.729 144.771H196.19L190.025 172.189H232.563L238.729 144.771Z" fill="#F0F0F0"/>
<path d="M231.664 170.936L237.265 146.023H197.091L191.489 170.936H231.664Z" fill="white"/>
<path d="M221.48 172.189L221.307 173.705H174.465L174.637 172.189H221.48Z" fill="#F0F0F0"/>
<path d="M101.545 194.146H102.203C102.196 192.667 102.206 188.914 102.272 180.313C102.39 164.723 102.618 163.773 102.618 163.773L101.051 170.97C100.057 178.939 101.338 186.947 101.545 194.146Z" fill="#E6E6E6"/>
<path d="M100.244 169.897C97.9891 166.964 93.1719 166.11 88.2393 165.38C86.303 165.093 93.3281 169.923 96.7616 173.354C99.4289 176.019 101.135 176.756 101.867 179.412C102.249 176.1 102.187 172.425 100.244 169.897Z" fill="#E6E6E6"/>
<path d="M103.235 175.14C105.49 172.207 110.307 171.353 115.24 170.623C117.177 170.337 110.151 175.166 106.718 178.597C104.05 181.262 102.345 181.999 101.612 184.655C101.231 181.343 101.293 177.668 103.235 175.14Z" fill="#E6E6E6"/>
<path d="M102.27 163.084C103.961 159.577 108.215 156.277 112.988 155.024C114.862 154.533 108.647 161.498 106.285 165.99C104.45 169.479 102.016 173.578 101.637 176.523C101.066 170.69 100.58 166.59 102.27 163.084Z" fill="#E6E6E6"/>
<path d="M102.07 195.829C100.056 195.829 98.3917 194.727 98.2759 193.317L97.9402 190.908H106.199L105.864 193.317C105.748 194.727 104.084 195.829 102.07 195.829Z" fill="#F0F0F0"/>
<path d="M106.735 191.835H97.4057L97.1382 189.151H107.002L106.735 191.835Z" fill="#F0F0F0"/>
<path d="M142 265.088C202.823 265.088 252.129 261.945 252.129 258.068C252.129 254.19 202.823 251.047 142 251.047C81.1775 251.047 31.8711 254.19 31.8711 258.068C31.8711 261.945 81.1775 265.088 142 265.088Z" fill="#F5F5F5"/>
<path d="M176.808 247.988L172.489 246.837L173.782 235.613L178.101 236.764L176.808 247.988Z" fill="#FFB573"/>
<path d="M214.432 253.113H209.987L206.522 241.874H210.969L214.432 253.113Z" fill="#FFB573"/>
<path d="M209.393 252.55H214.814C214.995 252.55 215.153 252.688 215.192 252.882L216.07 257.196C216.161 257.644 215.839 258.067 215.419 258.059C213.675 258.026 212.402 257.915 210.206 257.915C208.855 257.915 204.779 258.068 202.913 258.068C201.088 258.068 200.803 256.053 201.567 255.871C204.993 255.053 207.574 253.925 208.671 252.849C208.869 252.654 209.127 252.55 209.393 252.55Z" fill="#263238"/>
<path d="M172.641 246.299L177.358 247.556C177.535 247.603 177.657 247.778 177.654 247.976L177.57 252.394C177.561 252.852 177.167 253.183 176.761 253.067C175.067 252.582 172.632 251.818 170.494 251.248C167.993 250.581 165.8 250.155 162.868 249.373C161.094 248.9 161.041 246.812 161.822 246.833C165.381 246.927 168.159 247.576 171.519 246.389C171.884 246.26 172.268 246.2 172.641 246.299Z" fill="#263238"/>
<path d="M194.194 107.223C193.884 108.227 193.594 109.095 193.256 110.006C192.927 110.905 192.585 111.797 192.229 112.683C191.52 114.457 190.727 116.197 189.865 117.915C188.992 119.627 188.055 121.325 186.97 122.964C185.879 124.6 184.686 126.215 183.185 127.684C182.807 128.05 182.422 128.413 181.997 128.755C181.772 128.932 181.607 129.083 181.33 129.278C181.073 129.468 180.795 129.643 180.511 129.809C179.373 130.477 177.986 130.85 176.673 130.821C175.356 130.801 174.153 130.438 173.127 129.942C172.099 129.437 171.218 128.81 170.425 128.141C168.852 126.786 167.604 125.26 166.505 123.668C165.951 122.877 165.457 122.049 164.982 121.216C164.503 120.372 164.074 119.556 163.654 118.614L166.49 116.691C166.982 117.311 167.542 118.004 168.088 118.636C168.641 119.277 169.222 119.885 169.795 120.478C170.953 121.649 172.163 122.718 173.378 123.484C174.581 124.261 175.8 124.642 176.556 124.513C176.942 124.452 177.239 124.312 177.578 124.07C177.662 124.004 177.748 123.94 177.834 123.858C177.911 123.795 178.065 123.64 178.177 123.537C178.423 123.312 178.665 123.046 178.905 122.779C180.834 120.572 182.496 117.564 183.945 114.474C184.679 112.923 185.352 111.317 186.011 109.7C186.337 108.89 186.653 108.073 186.955 107.252C187.248 106.443 187.566 105.581 187.818 104.836L194.194 107.223Z" fill="#FFB573"/>
<path d="M195.997 104.837C196.95 109.358 187.864 120.923 187.864 120.923L179.696 114.403C179.696 114.403 182.531 108.385 186.178 103.893C189.924 99.2808 194.951 99.8748 195.997 104.837Z" fill="#1BAD5F"/>
<path opacity="0.2" d="M186.859 112.42C185.949 114.345 185.199 116.436 184.601 118.321L187.865 120.925C187.865 120.925 193.26 114.058 195.298 108.837C192.839 106.532 189.007 107.844 186.859 112.42Z" fill="black"/>
<path d="M166.938 117.354L164.864 114.325L161.348 118.85C161.348 118.85 163.474 121.181 166.112 120.267L166.938 117.354Z" fill="#FFB573"/>
<path d="M160.233 112.657L159.067 117.85L161.348 118.849L164.863 114.325L160.233 112.657Z" fill="#FFB573"/>
<path opacity="0.2" d="M173.782 235.616L173.115 241.401L177.436 242.553L178.103 236.768L173.782 235.616Z" fill="black"/>
<path opacity="0.2" d="M210.97 241.877H206.523L208.31 247.67H212.758L210.97 241.877Z" fill="black"/>
<path d="M215.889 104.163C214.205 109.419 213.008 114.807 212.13 119.896C211.489 123.619 211.026 127.183 210.677 130.42C209.86 138.006 209.67 143.821 209.347 145.773C205.893 145.267 192.877 143.355 185.781 142.31C184.182 114.535 191.175 100.774 191.175 100.774C191.175 100.774 193.829 100.388 196.886 100.407C197.289 100.407 197.698 100.42 198.113 100.441C200.798 100.567 205.142 101.313 208.132 101.913C208.761 102.039 209.395 102.186 210.012 102.339C213.149 103.124 215.889 104.163 215.889 104.163Z" fill="#1BAD5F"/>
<path opacity="0.2" d="M198.464 107.708C194.15 107.107 192.229 108.451 191.871 110.193C190.485 116.96 195.276 123.271 195.276 123.271C195.276 123.271 202.315 118.61 203.701 111.843C204.058 110.101 202.778 108.31 198.464 107.708Z" fill="black"/>
<path d="M195.76 120.909C194.577 118.924 192.522 114.69 193.4 110.406C193.562 109.617 195.232 109.028 198.112 109.43C200.991 109.832 202.335 110.841 202.173 111.629C201.295 115.914 197.668 119.355 195.76 120.909Z" fill="#F4BF01"/>
<path opacity="0.2" d="M212.13 119.895C211.49 123.618 211.026 127.182 210.678 130.419L207.493 122.389L212.13 119.895Z" fill="black"/>
<path d="M208.66 89.4526C207.594 92.8781 206.167 99.2319 208.132 101.912C206.249 103.527 203.605 104.748 199.995 104.129C197.229 103.656 197.351 101.519 198.114 100.438C201.824 100.03 202.09 97.1047 201.802 94.2787L208.66 89.4526Z" fill="#FFB573"/>
<path opacity="0.2" d="M205.864 91.4224L201.805 94.2768C201.876 94.9458 201.911 95.6191 201.874 96.2633C203.275 96.2484 205.364 94.8807 205.703 93.3332C205.873 92.5607 205.936 91.8043 205.864 91.4224Z" fill="black"/>
<path d="M200.5 75.7024C197.056 75.3961 195.863 84.4481 198.011 86.1841C200.16 87.9208 206.95 76.2753 200.5 75.7024Z" fill="#263238"/>
<path d="M209.697 84.2139C208.841 88.9389 208.559 91.7519 206.053 93.8729C202.283 97.0634 197.165 94.0887 196.711 89.1801C196.302 84.762 197.771 77.7771 202.278 76.5098C206.717 75.2605 210.554 79.4889 209.697 84.2139Z" fill="#FFB573"/>
<path d="M208.816 88.8382C206.681 90.2884 204.886 75.7816 210.547 77.6894C219.741 80.7869 211.352 87.1152 208.816 88.8382Z" fill="#263238"/>
<path d="M208.823 80.372C207.534 78.6317 199.696 79.6807 196.085 77.0997C192.475 74.5186 194.763 68.8295 201.374 69.7452C198.298 70.134 198.857 72.937 200.967 72.9091C203.077 72.8812 207.948 70.0292 210.07 72.4652C213.019 75.851 214.494 73.8447 215.968 75.7648C218.093 78.5325 211.62 84.1466 208.823 80.372Z" fill="#263238"/>
<path d="M211.02 89.7556C210.266 90.76 209.156 91.2901 208.182 91.3781C206.717 91.5102 206.26 90.006 206.9 88.6544C207.475 87.438 208.931 85.9029 210.29 86.4026C211.629 86.8949 211.883 88.6073 211.02 89.7556Z" fill="#FFB573"/>
<path d="M171.74 239.881L179.054 241.826C179.054 241.826 183.771 214.623 185.956 199.69C186.621 195.147 188.104 188.86 189.898 182.146C192.162 173.687 194.914 164.562 197.147 157.421C199.502 149.901 201.272 144.586 201.272 144.586L185.779 142.308C185.779 142.308 173.978 181.806 172.647 196.546C171.262 211.872 171.74 239.881 171.74 239.881Z" fill="#263238"/>
<path opacity="0.2" d="M189.898 182.146C192.162 173.687 194.914 164.562 197.147 157.421L195.756 153.512C191.6 158.248 189.647 173.673 189.898 182.146Z" fill="black"/>
<path d="M194.138 143.538C194.138 143.538 193.372 185.118 194.416 199.292C195.56 214.813 206.219 246.548 206.219 246.548H214.362C214.362 246.548 208.929 217.502 207.262 202.428C205.364 185.259 209.344 145.775 209.344 145.775L194.138 143.538Z" fill="#263238"/>
<path d="M205.245 246.74H214.833V243.614L204.114 243.41L205.245 246.74Z" fill="#1BAD5F"/>
<path d="M170.78 239.822L179.495 242.145L180.183 239.072L170.477 236.312L170.78 239.822Z" fill="#1BAD5F"/>
<path d="M202.912 84.5719C202.865 84.96 202.637 85.2465 202.405 85.2124C202.173 85.1783 202.023 84.836 202.071 84.4479C202.119 84.0598 202.346 83.7733 202.578 83.8074C202.811 83.8415 202.96 84.1838 202.912 84.5719Z" fill="#263238"/>
<path d="M198.895 83.9806C198.848 84.3687 198.621 84.6552 198.388 84.6211C198.156 84.587 198.007 84.2447 198.054 83.8566C198.102 83.4685 198.329 83.182 198.561 83.2161C198.794 83.2509 198.943 83.5931 198.895 83.9806Z" fill="#263238"/>
<path d="M200.148 84.3618C200.148 84.3618 199.064 86.481 198.041 87.4296C198.591 88.1624 199.696 88.0273 199.696 88.0273L200.148 84.3618Z" fill="#ED893E"/>
<path d="M201.066 89.2852C200.917 89.2852 200.762 89.2746 200.599 89.2505C200.541 89.2418 200.501 89.1841 200.509 89.1215C200.516 89.0583 200.571 89.0143 200.627 89.0229C202.189 89.2505 203.062 88.1704 203.071 88.1593C203.109 88.1109 203.175 88.1066 203.219 88.1475C203.263 88.189 203.268 88.2616 203.23 88.3099C203.196 88.3533 202.442 89.2852 201.066 89.2852Z" fill="#263238"/>
<path d="M204.326 83.3383C204.252 83.3383 204.181 83.2961 204.142 83.2211C203.68 82.3283 202.907 82.2644 202.899 82.2638C202.783 82.2558 202.694 82.1466 202.702 82.0202C202.71 81.8937 202.81 81.7976 202.926 81.8056C202.967 81.8081 203.936 81.8881 204.509 82.996C204.566 83.1064 204.531 83.2465 204.429 83.3091C204.397 83.3284 204.361 83.3383 204.326 83.3383Z" fill="#263238"/>
<path d="M197.351 82.218C197.31 82.218 197.27 82.2056 197.234 82.1796C197.137 82.1095 197.111 81.9663 197.175 81.8609C197.82 80.7994 198.789 80.805 198.833 80.7988C198.949 80.8001 199.043 80.9036 199.041 81.0307C199.04 81.1572 198.946 81.2589 198.831 81.2589C198.79 81.257 198.043 81.2632 197.525 82.1151C197.486 82.182 197.419 82.218 197.351 82.218Z" fill="#263238"/>
<path d="M207.923 253.399C207.585 253.399 207.268 253.336 207.067 253.151C206.907 253.005 206.834 252.801 206.849 252.544C206.86 252.352 206.953 252.261 207.03 252.219C207.521 251.942 208.956 252.904 209.118 253.015C209.154 253.04 209.172 253.085 209.166 253.131C209.159 253.177 209.128 253.214 209.087 253.224C208.778 253.306 208.334 253.399 207.923 253.399ZM207.263 252.394C207.208 252.394 207.162 252.403 207.126 252.423C207.097 252.439 207.064 252.468 207.059 252.558C207.049 252.741 207.096 252.877 207.202 252.975C207.446 253.198 208.027 253.228 208.781 253.062C208.279 252.746 207.603 252.394 207.263 252.394Z" fill="#1BAD5F"/>
<path d="M209.061 253.227C209.044 253.227 209.027 253.223 209.011 253.214C208.551 252.941 207.662 251.877 207.756 251.336C207.773 251.238 207.839 251.068 208.091 251.035C208.254 251.014 208.405 251.063 208.539 251.183C209.056 251.644 209.162 253.044 209.166 253.104C209.169 253.146 209.151 253.186 209.118 253.209C209.102 253.221 209.082 253.227 209.061 253.227ZM208.165 251.26C208.149 251.26 208.133 251.261 208.117 251.263C207.98 251.281 207.968 251.35 207.963 251.379C207.907 251.698 208.474 252.502 208.931 252.881C208.88 252.472 208.738 251.655 208.407 251.36C208.33 251.293 208.251 251.26 208.165 251.26Z" fill="#1BAD5F"/>
<path d="M172.071 246.837C172.066 246.838 172.061 246.838 172.056 246.838C171.327 246.804 170.047 246.659 169.676 246.076C169.565 245.9 169.541 245.7 169.606 245.481C169.645 245.351 169.726 245.263 169.841 245.229C170.44 245.045 171.958 246.473 172.13 246.636C172.163 246.668 172.175 246.72 172.158 246.766C172.143 246.805 172.109 246.833 172.071 246.837ZM169.938 245.442C169.924 245.443 169.91 245.446 169.897 245.45C169.85 245.464 169.823 245.495 169.806 245.552C169.762 245.701 169.776 245.829 169.849 245.944C170.058 246.272 170.758 246.507 171.75 246.588C171.145 246.048 170.292 245.406 169.938 245.442Z" fill="#1BAD5F"/>
<path d="M172.071 246.837C172.044 246.84 172.017 246.831 171.996 246.814C171.532 246.419 170.728 245.125 170.925 244.613C170.972 244.492 171.088 244.359 171.376 244.402C171.591 244.435 171.767 244.549 171.901 244.745C172.34 245.384 172.172 246.684 172.165 246.74C172.159 246.78 172.135 246.814 172.1 246.83C172.09 246.833 172.08 246.836 172.071 246.837ZM171.237 244.624C171.145 244.634 171.127 244.683 171.119 244.701C171 245.008 171.523 245.996 171.977 246.487C172.004 246.102 172.021 245.301 171.732 244.882C171.631 244.735 171.505 244.653 171.347 244.629C171.302 244.622 171.266 244.622 171.237 244.624Z" fill="#1BAD5F"/>
<path d="M218.351 109.812C218.278 110.724 218.199 111.516 218.087 112.354C217.982 113.181 217.868 114.003 217.74 114.824C217.488 116.465 217.179 118.097 216.81 119.725C216.438 121.35 216.036 122.975 215.526 124.586C215.04 126.198 214.465 127.807 213.779 129.393L213.248 130.582L213.214 130.656L213.143 130.802L212.988 131.101C212.877 131.293 212.759 131.484 212.632 131.66C212.377 132.013 212.093 132.328 211.802 132.587C211.216 133.12 210.617 133.449 210.061 133.684C209.503 133.917 208.98 134.057 208.484 134.155C206.513 134.517 204.875 134.321 203.277 134.082C200.104 133.532 197.243 132.534 194.389 131.217L195.338 127.724C196.715 127.918 198.161 128.118 199.559 128.243C200.963 128.378 202.355 128.476 203.69 128.466C205.006 128.467 206.333 128.339 207.235 128.032C207.676 127.891 207.955 127.643 207.882 127.644C207.87 127.645 207.835 127.664 207.803 127.699C207.787 127.716 207.765 127.737 207.751 127.761C207.741 127.771 207.733 127.782 207.725 127.795C207.723 127.798 207.716 127.813 207.718 127.808L207.74 127.745L208.098 126.739C209.024 124.028 209.714 121.088 210.277 118.108C210.568 116.619 210.804 115.106 211.042 113.596C211.161 112.84 211.268 112.081 211.366 111.324L211.643 109.105L218.351 109.812Z" fill="#FFB573"/>
<path d="M219.167 106.912C221.653 110.676 218.783 122.279 218.783 122.279L207.114 122.685C207.114 122.685 208.065 115.038 209.788 109.345C211.666 103.142 216.155 102.354 219.167 106.912Z" fill="#1BAD5F"/>
<path d="M195.88 127.865L191.786 125.79L191.761 131.988C191.761 131.988 195.605 132.91 196.28 130.741L195.88 127.865Z" fill="#FFB573"/>
<path d="M188.164 126.685L188.363 131.81L191.761 131.988L191.786 125.79L188.164 126.685Z" fill="#FFB573"/>
<path d="M172.4 167.359H63.8449C60.9674 167.359 58.4467 164.789 58.2439 161.648L53.367 86.0835C53.1643 82.9426 55.3528 80.3721 58.2308 80.3721H166.786C169.664 80.3721 172.184 82.942 172.387 86.0835L177.264 161.648C177.467 164.789 175.278 167.359 172.4 167.359Z" fill="#263238"/>
<path d="M203.454 229.028H81.1331C77.8904 229.028 74.6205 226.739 73.873 223.967L59.7065 171.416C59.1027 169.177 60.9674 167.359 63.8449 167.359H172.4C175.277 167.359 178.567 169.177 179.719 171.416L206.747 223.967C208.173 226.739 206.697 229.028 203.454 229.028Z" fill="#263238"/>
<path d="M173.708 167.359H65.1531C62.2756 167.359 59.7548 164.789 59.552 161.648L54.6757 86.0835C54.473 82.9426 56.6615 80.3721 59.5395 80.3721H168.095C170.972 80.3721 173.493 82.942 173.696 86.0835L178.572 161.648C178.775 164.789 176.586 167.359 173.708 167.359Z" fill="#1BAD5F"/>
<path d="M66.0391 162.6C64.9031 162.6 63.9086 161.586 63.8285 160.346L59.1198 87.3862C59.0397 86.1462 59.9036 85.1318 61.0396 85.1318H167.208C168.344 85.1318 169.339 86.1462 169.419 87.3862L174.128 160.346C174.208 161.586 173.344 162.6 172.208 162.6H66.0391Z" fill="white"/>
<path opacity="0.2" d="M114.784 82.8824C114.815 83.3679 114.48 83.761 114.036 83.761C113.592 83.761 113.205 83.3673 113.174 82.8824C113.143 82.397 113.478 82.0039 113.922 82.0039C114.366 82.0039 114.753 82.397 114.784 82.8824Z" fill="black"/>
<path d="M204.762 229.028H82.4412C79.1985 229.028 75.9286 226.739 75.1811 223.967L61.0146 171.416C60.4108 169.177 62.2755 167.359 65.153 167.359H173.708C176.586 167.359 179.875 169.177 181.027 171.416L208.056 223.967C209.481 226.739 208.005 229.028 204.762 229.028Z" fill="#1BAD5F"/>
<path opacity="0.2" d="M75.8479 200.96C74.6335 200.96 73.4129 200.145 73.1363 199.152L65.671 172.35C65.4234 171.461 66.1567 170.735 67.3006 170.735H174.207C175.351 170.735 176.653 171.461 177.102 172.35L190.647 199.152C191.149 200.145 190.567 200.96 189.353 200.96H75.8479Z" fill="black"/>
<path opacity="0.2" d="M124.823 224.353C124.084 224.353 123.292 223.833 123.066 223.2L116.811 205.744C116.599 205.151 117.009 204.668 117.722 204.668H150.387C151.099 204.668 151.888 205.151 152.14 205.744L159.57 223.2C159.84 223.833 159.455 224.353 158.716 224.353H124.823Z" fill="black"/>
<path d="M63.2803 151.858L65.9641 146.056H74.8181L77.3116 150.244L79.8046 154.432L77.87 158.614L76.0257 162.6H76.2268L78.0285 158.706L79.9631 154.524H88.817L91.31 158.712L93.6246 162.6H93.8382L91.4617 158.608L88.9687 154.42L90.9033 150.238L92.8379 146.056H101.691L104.185 150.244L106.678 154.433L104.744 158.614L102.899 162.601H103.101L104.902 158.706L106.836 154.524H115.69L118.184 158.712L120.498 162.601H120.712L118.335 158.609L115.842 154.421L117.777 150.239L119.711 146.057H128.565L131.059 150.245L133.552 154.433L131.617 158.615L129.773 162.602H129.974L131.775 158.707L133.71 154.525H142.564L145.057 158.713L147.372 162.602H147.585L145.208 158.609L142.715 154.421L144.65 150.239L146.584 146.058H155.438L157.931 150.246L160.424 154.434L158.49 158.616L156.645 162.602H156.846L158.648 158.707L160.582 154.526H169.436L171.929 158.714L173.746 161.765C173.784 161.709 173.826 161.657 173.86 161.597L172.081 158.609L169.588 154.421L171.523 150.239L173.238 146.533L173.213 146.152L171.365 150.148L169.43 154.33H160.576L158.084 150.142L155.591 145.954L157.525 141.772L159.459 137.59H168.313L173.189 145.781L173.163 145.379L168.465 137.486L172.141 129.538L172.117 129.158L168.306 137.395H159.452L156.959 133.207L154.466 129.019L156.401 124.837L158.335 120.655H167.189L172.099 128.905L172.073 128.502L167.34 120.551L171.044 112.545L171.019 112.164L167.182 120.46H158.329L155.835 116.272L153.342 112.084L155.277 107.902L157.212 103.72H166.066L171.011 112.028L170.986 111.625L166.218 103.616L169.948 95.5511L169.923 95.1711L166.059 103.525H157.205L154.712 99.3368L152.219 95.1494L154.154 90.9675L156.088 86.7856H164.942L167.435 90.9737L169.922 95.1512L169.897 94.7495L167.587 90.8695L165.094 86.682L165.809 85.1357H165.609L164.936 86.5903H156.082L155.216 85.1357H155.003L155.931 86.6938L153.996 90.8763L152.062 95.0582H143.208L140.715 90.8701L138.222 86.6826L138.937 85.1364H138.736L138.063 86.5909H129.209L128.344 85.1364H128.13L129.058 86.6944L127.123 90.8769L125.188 95.0588H116.332L113.839 90.8707L111.346 86.6833L112.061 85.137H111.86L111.187 86.5915H102.333L101.468 85.137H101.254L102.182 86.695L100.247 90.8776L98.3129 95.0595H89.4589L86.9659 90.8714L84.473 86.6839L85.1881 85.1376H84.987L84.3139 86.5921H75.4605L74.5949 85.1376H74.3813L75.3089 86.6957L73.3743 90.8782L71.4402 95.0601H62.5862L59.2538 89.4615L59.2793 89.8639L62.434 95.1636L59.9655 100.5L59.9905 100.881L62.5925 95.2548H71.4465L73.9394 99.4429L76.4324 103.63L74.4978 107.812L72.5632 111.995H63.7097L61.2162 107.807L60.3421 106.339L60.3676 106.741L61.064 107.911L63.557 112.098L61.6223 116.281L61.0612 117.494L61.0862 117.874L61.7808 116.372L63.7154 112.19H72.5694L75.0624 116.378L77.5559 120.566L75.6213 124.748L73.6867 128.93H64.8327L62.3397 124.742L61.4309 123.216L61.4571 123.618L62.1881 124.846L64.681 129.034L62.7464 133.216L62.158 134.487L62.1824 134.868L62.9043 133.307L64.8389 129.125H73.6929L76.1859 133.313L78.6788 137.5L76.7448 141.682L74.8102 145.864H65.9562L62.5192 140.091L62.5453 140.494L65.8045 145.968L63.2548 151.481L63.2803 151.858ZM101.685 145.86H92.8305L90.3376 141.672L87.8446 137.484L89.7787 133.302L91.7133 129.12H100.567L103.06 133.309L105.553 137.496L103.619 141.678L101.685 145.86ZM140.308 120.457H131.455L128.961 116.269L126.468 112.082L128.403 107.9L130.337 103.718H139.191L141.684 107.906L144.177 112.093L142.243 116.276L140.308 120.457ZM140.315 120.652L142.808 124.841L145.301 129.028L143.366 133.21L141.431 137.392H132.578L130.085 133.204L127.592 129.017L129.526 124.835L131.46 120.652H140.315ZM128.809 116.373L131.302 120.561L129.368 124.743L127.434 128.925H118.58L116.086 124.737L113.593 120.55L115.528 116.367L117.462 112.185H126.316L128.809 116.373ZM118.427 129.029L116.493 133.211L114.559 137.393H105.705L103.211 133.205L100.718 129.017L102.653 124.836L104.588 120.653H113.442L115.935 124.841L118.427 129.029ZM115.369 116.275L113.435 120.457H104.581L102.088 116.269L99.5949 112.082L101.529 107.9L103.464 103.718H112.317L114.811 107.906L117.304 112.093L115.369 116.275ZM101.936 116.373L104.429 120.561L102.494 124.743L100.56 128.925H91.7065L89.2129 124.737L86.72 120.55L88.6546 116.367L90.5886 112.185H99.4426L101.936 116.373ZM117.617 150.146L115.683 154.328H106.829L104.336 150.14L101.843 145.952L103.778 141.77L105.712 137.588H114.566L117.059 141.776L119.552 145.963L117.617 150.146ZM128.557 145.86H119.704L117.211 141.672L114.718 137.484L116.652 133.302L118.587 129.12H127.44L129.933 133.309L132.426 137.496L130.492 141.678L128.557 145.86ZM144.49 150.146L142.556 154.328H133.702L131.209 150.14L128.716 145.952L130.65 141.77L132.584 137.588H141.438L143.931 141.776L146.424 145.963L144.49 150.146ZM156.806 133.309L159.299 137.496L157.365 141.678L155.43 145.86H146.576L144.083 141.672L141.59 137.484L143.525 133.302L145.459 129.12H154.313L156.806 133.309ZM155.682 116.373L158.175 120.561L156.24 124.743L154.306 128.925H145.452L142.959 124.737L140.466 120.55L142.4 116.367L144.335 112.185H153.188L155.682 116.373ZM143.211 95.2492H152.065L154.558 99.4373L157.051 103.625L155.117 107.807L153.182 111.989H144.329L141.836 107.801L139.343 103.614L141.277 99.4317L143.211 95.2492ZM127.278 90.9637L129.213 86.7818H138.067L140.56 90.9699L143.053 95.158L141.118 99.3399L139.184 103.522H130.33L127.837 99.3337L125.343 95.1463L127.278 90.9637ZM116.338 95.2492H125.192L127.685 99.4373L130.179 103.625L128.244 107.807L126.31 111.989H117.456L114.963 107.801L112.47 103.614L114.404 99.4317L116.338 95.2492ZM100.405 90.9637L102.34 86.7818H111.193L113.687 90.9699L116.18 95.158L114.245 99.3399L112.311 103.522H103.457L100.964 99.3337L98.4708 95.1463L100.405 90.9637ZM89.4651 95.2492H98.3186L100.812 99.4373L103.305 103.625L101.37 107.807L99.4364 111.989H90.5824L88.0889 107.801L85.5959 103.614L87.5305 99.4317L89.4651 95.2492ZM74.0911 99.3331L71.5981 95.1456L73.5322 90.9637L75.4668 86.7818H84.3208L86.8137 90.9699L89.3067 95.158L87.3721 99.3399L85.4374 103.522H76.5835L74.0911 99.3331ZM75.2152 116.269L72.7216 112.082L74.6562 107.9L76.5909 103.718H85.4448L87.9378 107.906L90.4307 112.093L88.4967 116.276L86.5621 120.458H77.7081L75.2152 116.269ZM76.3387 133.204L73.8457 129.017L75.7803 124.835L77.7149 120.652H86.5683L89.0619 124.841L91.5548 129.028L89.6202 133.21L87.6862 137.392H78.8322L76.3387 133.204ZM76.9044 141.77L78.839 137.588H87.693L90.1865 141.776L92.6794 145.964L90.7448 150.146L88.8102 154.328H79.9563L77.4633 150.14L74.9703 145.952L76.9044 141.77Z" fill="#E0E0E0"/>
<path d="M66.9649 162.6L63.6097 156.964L63.6359 157.366L66.7513 162.6H66.9649Z" fill="#E0E0E0"/>
<path d="M139.253 154.909H99.9595C98.348 154.909 96.9564 153.47 96.8667 151.711L95.3615 122.21C95.2718 120.451 96.5168 119.012 98.1282 119.012H137.421C139.033 119.012 140.424 120.451 140.514 122.21L142.019 151.711C142.108 153.47 140.864 154.909 139.253 154.909Z" fill="#F4BF01"/>
<path opacity="0.2" d="M98.1282 119.012C96.5168 119.012 95.2718 120.451 95.3615 122.21L96.8667 151.711C96.9564 153.47 98.348 154.909 99.9595 154.909H119.606L117.775 119.012H98.1282Z" fill="black"/>
<path opacity="0.2" d="M115.618 146.441L116.069 137.067C114.676 136.106 113.778 134.481 113.687 132.704C113.54 129.823 115.568 127.479 118.207 127.479C120.847 127.479 123.113 129.823 123.26 132.704C123.351 134.481 122.618 136.106 121.324 137.067L122.73 146.441H115.618Z" fill="black"/>
<path d="M122.517 132.704C122.393 130.266 120.481 128.29 118.248 128.29C116.015 128.29 114.305 130.266 114.429 132.704C114.517 134.419 115.49 135.901 116.836 136.632L116.404 145.63H121.861L120.511 136.632C121.783 135.902 122.604 134.419 122.517 132.704Z" fill="#263238"/>
<path d="M136.405 116.893H131.206L130.892 110.739C130.476 102.59 124.064 95.9602 116.598 95.9602C109.133 95.9602 103.397 102.59 103.813 110.739L104.127 116.893H98.928L98.6139 110.739C98.0385 99.4607 105.977 90.2847 116.309 90.2847C126.642 90.2847 135.516 99.4607 136.092 110.739L136.405 116.893Z" fill="#F4BF01"/>
</svg>
