<svg width="200" height="119" viewBox="0 0 200 119" fill="none" xmlns="http://www.w3.org/2000/svg">
<g clip-path="url(#clip0_304_181)">
<path d="M124.051 58.4647C114.043 76.5035 108.679 91.6131 108.679 91.6131C97.0997 70.9113 76.9104 63.1253 76.9104 63.1253C93.8429 62.501 106.128 71.4932 106.128 71.4932C117.573 50.4508 135.904 29.5284 149.083 22.3557C149.083 22.3557 133.635 41.1892 124.051 58.4647Z" fill="white"/>
<path d="M160.113 49.2462C158.918 44.401 156.967 39.7401 154.361 35.4744L151.667 37.1515C154.157 41.1058 156.045 45.4436 157.229 49.9741C158.399 54.5039 158.869 59.2202 158.624 63.9061C158.135 73.2483 154.684 82.5906 148.807 89.8935C147.337 91.735 145.744 93.4821 144.014 95.0886C142.276 96.685 140.423 98.1562 138.473 99.4885L136.988 100.455C125.305 108.061 110.737 108.884 97.6775 104.878C97.1089 104.703 96.5587 104.478 96.0037 104.265C92.1118 102.762 88.4534 100.726 85.0926 98.2558C83.1793 96.8348 81.387 95.254 79.7055 93.5636C74.6325 88.4641 70.9453 82.1537 68.6014 75.3802C67.8708 73.1028 67.292 70.7747 66.9001 68.411C66.533 66.0441 66.3261 63.6524 66.2914 61.2537C66.2522 56.4578 66.9445 51.6514 68.3626 47.06C69.7771 42.4678 71.913 38.0942 74.6649 34.1424C77.415 30.1892 80.7787 26.6577 84.6024 23.7128C86.0674 22.5835 87.6006 21.5415 89.19 20.592C95.612 16.9832 101.165 15.4857 102.847 15.6313C102.847 15.6313 93.7642 18.2872 88.1331 23.7834C88.1331 23.7834 90.9645 28.164 96.5872 27.1089C103.22 25.8653 103.934 19.0189 112.787 15.2426C112.787 15.2426 106.375 8.90583 97.9121 10.2585C92.8883 11.0617 87.097 15.5976 86.8887 21.0438C86.8762 21.3239 86.884 21.5944 86.9072 21.8566C86.0819 22.3975 85.2725 22.9629 84.4826 23.5549C80.6028 26.4593 77.1686 29.9653 74.341 33.9135C71.5118 37.8601 69.2914 42.2496 67.7954 46.8807C66.2958 51.511 65.5249 56.3793 65.4983 61.2551C65.5001 63.6936 65.677 66.131 66.0185 68.5482C66.3848 70.9624 66.9424 73.3455 67.6571 75.6821C69.7527 82.5317 73.7166 89.2648 78.7819 94.4627C80.4778 96.2152 82.2906 97.8591 84.2305 99.3439C88.0869 102.295 92.5109 104.876 97.1529 106.375C111.477 111.002 126.919 109.366 139.682 101.304C141.745 99.9373 143.708 98.4218 145.554 96.7713C147.392 95.1106 149.091 93.2993 150.663 91.3838C152.243 89.4728 153.642 87.4149 154.897 85.2753C155.543 84.2148 156.096 83.1023 156.661 81.9972C159.414 76.617 160.891 70.167 161.395 64.0808C161.724 59.1165 161.296 54.0951 160.113 49.2462Z" fill="white"/>
<circle cx="111.517" cy="117.81" r="1.19" fill="#D9D9D9"/>
</g>
<circle cx="4" cy="14" r="4" fill="#D9D9D9"/>
<circle cx="196" cy="64" r="4" fill="#D9D9D9"/>
<circle cx="193.5" cy="11.5" r="1.5" fill="#D9D9D9"/>
<circle cx="28.5" cy="77.5" r="1.5" fill="#D9D9D9"/>
<defs>
<clipPath id="clip0_304_181">
<rect width="119" height="119" fill="white" transform="translate(54)"/>
</clipPath>
</defs>
</svg>
