<svg width="21" height="20" viewBox="0 0 21 20" fill="none" xmlns="http://www.w3.org/2000/svg">
<path d="M14.5923 10.052C14.6133 12.322 16.5836 13.0774 16.6055 13.087C16.5888 13.1403 16.2906 14.1635 15.5674 15.2204C14.9422 16.1342 14.2933 17.0446 13.2712 17.0635C12.2668 17.082 11.9439 16.4679 10.7956 16.4679C9.64763 16.4679 9.28881 17.0447 8.33805 17.082C7.35141 17.1194 6.60006 16.0939 5.9697 15.1835C4.68158 13.3212 3.69718 9.92109 5.01897 7.62597C5.67561 6.4862 6.84907 5.76445 8.12276 5.74594C9.09162 5.72746 10.0061 6.39776 10.5984 6.39776C11.1903 6.39776 12.3016 5.59166 13.4698 5.71005C13.9589 5.73041 15.3318 5.90761 16.2133 7.19796C16.1423 7.24199 14.5752 8.15425 14.5923 10.052ZM12.7047 4.47798C13.2285 3.84392 13.581 2.96126 13.4848 2.08301C12.7298 2.11335 11.8168 2.58615 11.2752 3.21986C10.7899 3.78104 10.3648 4.67924 10.4795 5.5401C11.3211 5.60522 12.1808 5.11244 12.7047 4.47798Z" fill="black"/>
</svg>
