<svg width="21" height="18" viewBox="0 0 21 18" fill="none" xmlns="http://www.w3.org/2000/svg">
<path fill-rule="evenodd" clip-rule="evenodd" d="M7.91421 3.08579C8.28929 2.71071 8.79799 2.5 9.32843 2.5H15.5858C17.2426 2.5 18.5858 3.84315 18.5858 5.5V12.5C18.5858 14.1569 17.2426 15.5 15.5858 15.5H9.32843C8.79799 15.5 8.28929 15.2893 7.91421 14.9142L2 9L7.91421 3.08579ZM9.32843 0.5C8.26756 0.5 7.25014 0.921428 6.5 1.67157L0.585786 7.58579C-0.195263 8.36684 -0.195261 9.63317 0.585786 10.4142L6.5 16.3284C7.25015 17.0786 8.26756 17.5 9.32843 17.5H15.5858C18.3472 17.5 20.5858 15.2614 20.5858 12.5V5.5C20.5858 2.73858 18.3472 0.5 15.5858 0.5H9.32843ZM15.2845 6.57393C15.6014 6.23054 15.58 5.69522 15.2366 5.37824C14.8933 5.06127 14.3579 5.08268 14.041 5.42607L12.2014 7.41895L10.1841 5.40168C9.85366 5.07124 9.31791 5.07124 8.98746 5.40168C8.65702 5.73212 8.65702 6.26788 8.98746 6.59832L11.0526 8.66345L8.96403 10.9261C8.64706 11.2695 8.66847 11.8048 9.01186 12.1218C9.35524 12.4387 9.89057 12.4173 10.2075 12.0739L12.2502 9.86105L14.4875 12.0983C14.8179 12.4288 15.3537 12.4288 15.6841 12.0983C16.0146 11.7679 16.0146 11.2321 15.6841 10.9017L13.399 8.61655L15.2845 6.57393Z" fill="#010002"/>
</svg>
