<svg width="40" height="41" viewBox="0 0 40 41" fill="none" xmlns="http://www.w3.org/2000/svg">
<path d="M15.1203 1.00336L10.7939 8.49689L18.2874 12.8233M5.53527 18.0666C5.0179 21.3117 5.62429 24.6361 7.25406 27.4896C8.88382 30.343 11.4392 32.5543 14.4972 33.7573C17.5551 34.9603 20.9322 35.0829 24.0693 34.1048C27.2064 33.1266 29.9154 31.1065 31.7478 28.3787C33.5801 25.651 34.426 22.3792 34.1453 19.1052C33.8645 15.8311 32.4741 12.7511 30.2041 10.3751C27.9341 7.99908 24.9208 6.46956 21.663 6.03975C18.4051 5.60994 15.0982 6.30563 12.2897 8.01164" stroke="#E6E7F2" stroke-width="2" stroke-linecap="round" stroke-linejoin="round"/>
<path d="M14.2688 25.0195V17.0995H12.5768V16.0795H15.4568V25.0195H14.2688ZM20.3148 25.1635C19.8508 25.1635 19.4148 25.0835 19.0068 24.9235C18.5988 24.7555 18.2428 24.5195 17.9388 24.2155C17.6428 23.9035 17.4268 23.5395 17.2908 23.1235L18.2508 22.7155C18.4188 23.1555 18.6908 23.4995 19.0668 23.7475C19.4508 23.9875 19.8668 24.1075 20.3148 24.1075C20.6828 24.1075 21.0068 24.0275 21.2868 23.8675C21.5748 23.6995 21.7988 23.4715 21.9588 23.1835C22.1188 22.8875 22.1988 22.5595 22.1988 22.1995C22.1988 21.8235 22.1148 21.4915 21.9468 21.2035C21.7868 20.9155 21.5668 20.6915 21.2868 20.5315C21.0068 20.3635 20.6868 20.2795 20.3268 20.2795C19.9588 20.2795 19.6228 20.3635 19.3188 20.5315C19.0148 20.6995 18.7948 20.9115 18.6588 21.1675L17.7108 20.9635L18.3948 16.0795H23.0268V17.0995H18.8388L19.2948 16.6435L18.7668 20.4355L18.3588 20.1955C18.6228 19.8595 18.9308 19.6195 19.2828 19.4755C19.6428 19.3235 20.0308 19.2475 20.4468 19.2475C21.0308 19.2475 21.5428 19.3795 21.9828 19.6435C22.4228 19.9075 22.7668 20.2595 23.0148 20.6995C23.2628 21.1395 23.3868 21.6395 23.3868 22.1995C23.3868 22.7595 23.2508 23.2635 22.9788 23.7115C22.7148 24.1595 22.3508 24.5155 21.8868 24.7795C21.4308 25.0355 20.9068 25.1635 20.3148 25.1635Z" fill="#E6E7F2"/>
</svg>
