<svg width="24" height="24" viewBox="0 0 24 24" fill="none" xmlns="http://www.w3.org/2000/svg">
<path d="M4.20243 18.6183H19.9175C20.2389 18.6183 20.4995 18.3695 20.4995 18.0626V17.4838C20.4995 17.3348 20.4369 17.1921 20.3257 17.0876L18.6362 15.4999C18.525 15.3954 18.4624 15.2527 18.4624 15.1038V8.9075C18.4624 6.25168 16.2948 4.07929 13.5567 3.91544C13.3734 3.90447 13.224 3.76333 13.224 3.58793V3.11155C13.224 2.49766 12.7029 2 12.06 2C11.417 2 10.8959 2.49766 10.8959 3.11155V3.58793C10.8959 3.76333 10.7465 3.90447 10.5632 3.91544C7.82515 4.07929 5.65753 6.25168 5.65753 8.9075V15.1038C5.65753 15.2527 5.59492 15.3954 5.48375 15.4999L3.79417 17.0876C3.683 17.1921 3.62039 17.3348 3.62039 17.4838V18.0626C3.62039 18.3695 3.88098 18.6183 4.20243 18.6183Z" fill="#99BEB7"/>
<path d="M12.06 22.2C13.4267 22.2 14.5734 21.4003 14.886 20.3221C14.9782 20.0038 14.7015 19.7299 14.3701 19.7299H9.74976C9.41839 19.7299 9.14166 20.0038 9.23392 20.3221C9.54647 21.4003 10.6932 22.2 12.06 22.2Z" fill="#99BEB7"/>
</svg>
