<svg width="66" height="66" viewBox="0 0 66 66" fill="none" xmlns="http://www.w3.org/2000/svg">
<rect width="66" height="66" rx="33" fill="#1A6A73"/>
<path fill-rule="evenodd" clip-rule="evenodd" d="M39.0004 23.4004C40.9886 23.4004 42.6004 25.0122 42.6004 27.0004L42.6004 39.0005C42.6004 40.9887 40.9886 42.6005 39.0004 42.6005H27.0004C25.0122 42.6005 23.4004 40.9887 23.4004 39.0005V27.0004C23.4004 25.0122 25.0122 23.4004 27.0004 23.4004H39.0004ZM29.8008 28.9957C29.8008 28.4434 29.3531 27.9957 28.8008 27.9957C28.2485 27.9957 27.8008 28.4434 27.8008 28.9957V30.1657C27.8008 30.718 28.2485 31.1657 28.8008 31.1657C29.3531 31.1657 29.8008 30.718 29.8008 30.1657V28.9957ZM38.2008 28.9957C38.2008 28.4434 37.7531 27.9957 37.2008 27.9957C36.6485 27.9957 36.2008 28.4434 36.2008 28.9957V30.1657C36.2008 30.718 36.6485 31.1657 37.2008 31.1657C37.7531 31.1657 38.2008 30.718 38.2008 30.1657V28.9957ZM34.0008 29.5807C34.0008 29.0284 33.5531 28.5807 33.0008 28.5807C32.4485 28.5807 32.0008 29.0284 32.0008 29.5807V32.6061C32.0008 32.6429 31.986 32.6835 31.9512 32.7174L31.7027 32.9597C31.3072 33.3453 31.2992 33.9784 31.6848 34.3738C32.0703 34.7693 32.7034 34.7773 33.0989 34.3917L33.3474 34.1494C33.7627 33.7445 34.0008 33.1899 34.0008 32.6061V29.5807ZM36.4864 37.4752C36.9694 37.2074 37.1438 36.5987 36.876 36.1157C36.6082 35.6327 35.9995 35.4583 35.5165 35.7261C34.7406 36.1564 33.6711 36.3957 32.6236 36.3957C31.5505 36.3957 30.7001 36.1466 30.2659 35.8102C29.8293 35.4719 29.2012 35.5516 28.863 35.9882C28.5247 36.4248 28.6044 37.0529 29.041 37.3912C29.9749 38.1148 31.3426 38.3957 32.6236 38.3957C33.93 38.3957 35.3505 38.1051 36.4864 37.4752Z" fill="white"/>
</svg>
