<svg width="12" height="16" viewBox="0 0 12 16" fill="none" xmlns="http://www.w3.org/2000/svg">
<path d="M0.421875 6C0.421875 2.91929 2.91929 0.421875 6 0.421875C9.08071 0.421875 11.5781 2.91929 11.5781 6C11.5781 9.08071 9.08071 11.5781 6 11.5781C2.91929 11.5781 0.421875 9.08071 0.421875 6Z" fill="#99BEB7"/>
<path d="M9.5 13.0141C9.5 12.6305 9.08228 12.3852 8.72831 12.5332C7.88867 12.8842 6.96698 13.0781 6 13.0781C5.03302 13.0781 4.11133 12.8842 3.27169 12.5332C2.91771 12.3852 2.5 12.6305 2.5 13.0141V13.5C2.5 14.7861 3.54467 15.8288 4.83333 15.8288H7.16667C8.45533 15.8288 9.5 14.7861 9.5 13.5V13.0141Z" fill="#99BEB7"/>
</svg>
