<svg width="390" height="374" viewBox="0 0 390 374" fill="none" xmlns="http://www.w3.org/2000/svg">
<path fill-rule="evenodd" clip-rule="evenodd" d="M392.975 60.0359C397.143 62.0894 401.262 64.257 405.411 66.4725L405.58 66.3C401.902 63.5817 397.978 61.0424 393.903 58.6712L393.688 58.548C392.736 58.0023 391.783 57.4558 390.818 56.9244L387.673 55.2544C385.553 54.1795 383.413 53.1246 381.239 52.1365C376.893 50.1584 372.43 48.413 367.924 46.9443C363.417 45.4857 358.883 44.2256 354.364 43.198C345.335 41.1341 336.315 39.9757 327.899 40.1386C323.704 40.237 319.671 40.6619 315.937 41.4717C312.207 42.2866 308.823 43.5435 305.968 45.2287L306.233 45.456L307.396 44.9192L307.976 44.6509L308.59 44.4151L309.819 43.9469C310.09 43.8555 310.368 43.7698 310.644 43.6841L310.645 43.6841L310.645 43.6839L310.648 43.683L310.835 43.6251C310.893 43.6072 310.95 43.5892 311.008 43.5712L311.105 43.5405C311.706 43.333 312.348 43.1719 312.989 43.011C313.243 42.9472 313.498 42.8834 313.749 42.8168C314.033 42.7387 314.333 42.6808 314.633 42.6231C314.798 42.5912 314.964 42.5593 315.126 42.524C315.294 42.4921 315.46 42.4579 315.626 42.4237L315.627 42.4235C315.922 42.3629 316.216 42.3022 316.52 42.2548C320.301 41.6229 324.337 41.3735 328.5 41.442C336.819 41.5403 345.644 42.9258 354.4 45.1686L357.685 46.0608L360.963 47.0335L364.228 48.098C364.922 48.3353 365.615 48.5809 366.308 48.8263C366.697 48.9644 367.087 49.1024 367.477 49.2389C371.797 50.8021 376.079 52.4869 380.333 54.2773C382.288 55.0742 384.215 55.9432 386.145 56.8134L386.687 57.0578L389.842 58.5182C390.882 59.0273 391.926 59.5351 392.975 60.0359ZM150.929 14.4382C148.899 13.4408 146.862 12.5422 144.811 11.7109C144.447 11.5731 144.086 11.4306 143.725 11.2883L143.724 11.2881C143.059 11.0256 142.395 10.764 141.721 10.5347L140.177 9.97218L138.625 9.45038C137.986 9.22793 137.343 9.02816 136.701 8.82866L136.701 8.82856C136.308 8.70635 135.915 8.58423 135.524 8.45705C134.862 8.24679 134.197 8.05922 133.533 7.87189C133.162 7.76717 132.791 7.66253 132.421 7.55405L129.324 6.73477C128.95 6.64914 128.576 6.56004 128.203 6.47098C127.546 6.31437 126.889 6.15789 126.234 6.02066C122.124 5.11785 118.044 4.41488 114.025 3.96353C110.002 3.49818 106.065 3.39363 102.353 3.72001C98.6473 4.05114 95.1694 4.8112 92.0825 6.02679C89.0001 7.24423 86.289 8.89561 84.1011 10.9523C81.8977 12.9986 80.184 15.4089 78.86 18.03L77.9537 20.0439C77.7816 20.4787 77.6377 20.9266 77.4936 21.3751C77.4103 21.6341 77.327 21.8933 77.2382 22.1502L76.8831 23.2073L76.6293 24.3062L76.1231 26.5095L75.7619 26.3872L76.0688 24.098L76.2246 22.9517L76.4825 21.843C76.5456 21.5924 76.6045 21.34 76.6634 21.0874C76.7772 20.5995 76.8911 20.1112 77.0354 19.6355L77.7871 17.5075C78.9129 14.7253 80.4523 12.116 82.5416 9.84304C84.6582 7.59082 87.354 5.72487 90.4841 4.30364C93.6165 2.88285 97.2006 1.93003 101.05 1.43142C104.896 0.923642 108.996 0.851854 113.203 1.12697C117.418 1.41746 121.768 2.15636 126.109 3.27236C126.818 3.45542 127.527 3.65886 128.235 3.86211C128.611 3.96997 128.986 4.07778 129.362 4.18247L129.406 4.19593L129.406 4.19597C130.473 4.52578 131.541 4.85546 132.604 5.20917C134.756 5.9713 136.903 6.73952 139.012 7.66472C141.131 8.53922 143.206 9.57132 145.244 10.6282C147.262 11.7377 149.249 12.9045 151.08 14.2315L150.929 14.4382ZM-83.6745 90.727C-83.8536 92.0531 -83.8637 93.4069 -83.7187 94.7739C-88.3698 95.9616 -92.6822 97.6001 -96.3943 99.8243C-99.1115 101.449 -101.485 103.392 -103.382 105.652C-105.274 107.916 -106.673 110.492 -107.583 113.276C-108.037 114.669 -108.377 116.11 -108.612 117.588C-108.833 119.072 -108.944 120.592 -108.956 122.14C-108.973 125.237 -108.568 128.451 -107.737 131.72C-106.065 138.262 -102.693 144.991 -97.9997 151.416C-95.6533 154.63 -92.9894 157.775 -90.0154 160.785C-88.5468 162.299 -86.9701 163.761 -85.3643 165.205C-85.0966 165.434 -84.8318 165.664 -84.567 165.895C-84.0131 166.377 -83.4592 166.859 -82.8786 167.324L-81.6074 168.365L-80.3015 169.38C-76.8165 172.088 -73.0497 174.569 -69.1307 176.82C-65.1988 179.052 -61.0813 181.025 -56.8794 182.648C-52.6793 184.282 -48.4282 185.558 -44.2144 186.643C-39.9967 187.728 -35.8113 188.606 -31.6536 189.454C-30.7614 189.635 -29.8698 189.814 -28.9787 189.993L-28.9784 189.993C-21.5791 191.48 -14.2218 192.958 -6.96098 195.331C1.13895 197.947 9.08359 201.86 16.1468 206.672C23.2344 211.491 29.4103 217.185 34.7796 223.167C40.1593 229.163 44.7917 235.45 49.0894 241.803C52.9115 247.462 56.4767 253.183 60.0528 258.922C60.4957 259.632 60.9386 260.343 61.3823 261.054C65.4085 267.508 69.5002 273.984 74.078 280.41C76.3736 283.62 78.7895 286.817 81.4052 289.97C82.7197 291.544 84.0653 293.112 85.4863 294.658C86.9117 296.205 88.3703 297.727 89.884 299.224C95.9255 305.219 102.668 310.878 109.944 316.037C117.219 321.192 125.031 325.857 133.194 329.795C141.35 333.736 149.856 336.956 158.385 339.206C166.909 341.46 175.451 342.723 183.53 342.831C191.614 342.953 199.2 341.907 205.917 339.841C212.66 337.787 218.47 334.724 223.705 331.278C228.313 328.251 232.517 324.93 236.698 321.627C242.04 317.407 247.344 313.217 253.406 309.707C256.107 308.154 258.949 306.725 261.976 305.532C265.005 304.342 268.247 303.384 271.703 302.74C278.601 301.436 286.296 301.301 294.301 302.475C298.307 303.069 302.36 303.943 306.407 305.166C310.456 306.38 314.494 307.899 318.48 309.624C326.464 313.081 334.205 317.328 341.949 321.624C342.441 321.897 342.933 322.171 343.426 322.445L343.426 322.445C350.688 326.478 358.023 330.552 365.691 334.068C369.779 335.944 373.957 337.655 378.192 339.083C382.423 340.513 386.709 341.655 390.945 342.43C395.176 343.189 399.342 343.627 403.382 343.745C407.416 343.85 411.318 343.652 415.058 343.198C422.524 342.258 429.318 340.316 435.459 337.739C441.621 335.173 447.146 331.975 452.224 328.432C454.765 326.66 457.177 324.784 459.49 322.836C461.804 320.891 464.036 318.882 466.151 316.792C474.641 308.453 481.572 299.029 486.808 288.744C489.428 283.603 491.634 278.249 493.357 272.69C495.085 267.134 496.389 261.397 497.174 255.482C497.974 249.572 498.284 243.495 498.056 237.284C497.848 231.078 497.132 224.743 495.841 218.317C495.201 215.105 494.425 211.872 493.513 208.624C492.598 205.376 491.527 202.113 490.342 198.844C489.152 195.575 487.824 192.299 486.36 189.023C484.887 185.747 483.27 182.472 481.523 179.207C467.567 153.074 444.765 127.584 416.532 106.667C409.478 101.439 402.094 96.4906 394.431 91.9118C386.782 87.3212 378.844 83.0811 370.674 79.3698C362.507 75.6669 354.089 72.5134 345.615 70.1965C343.498 69.6234 341.379 69.0934 339.262 68.6267C337.146 68.1664 335.034 67.7567 332.931 67.4098C328.729 66.7385 324.564 66.2632 320.488 66.2062C316.433 66.1464 312.577 66.4751 308.881 67.0091C305.185 67.5476 301.652 68.304 298.212 69.1622C292.863 70.5027 287.752 72.1012 282.663 73.6929C281.21 74.1472 279.76 74.6009 278.306 75.0478C271.757 77.0529 265.145 78.9675 258.055 80.109C254.509 80.6679 250.853 81.0493 247.052 81.0706C245.152 81.0831 243.224 81.0207 241.266 80.8498C239.307 80.6744 237.323 80.3997 235.328 80.0156C231.336 79.2632 227.299 77.9972 223.37 76.3588C221.408 75.5238 219.475 74.5929 217.576 73.5882C215.688 72.5596 213.838 71.4738 212.02 70.3089C205.373 66.0482 199.317 61.0925 193.225 56.1075C192.649 55.6357 192.072 55.1636 191.494 54.6918C184.801 49.2243 177.934 43.8214 170.633 38.7872C163.345 33.7602 155.599 29.0865 147.415 25.2852C145.382 24.3339 143.278 23.4457 141.24 22.6155C139.191 21.7746 137.13 20.9385 135.051 20.1428C130.896 18.5507 126.643 17.1179 122.381 16.1383C118.122 15.1449 113.889 14.622 109.865 14.5559C107.845 14.5258 105.912 14.6025 103.979 14.6985C102.051 14.8059 100.152 14.9756 98.2935 15.2178C94.5765 15.6972 91.0358 16.5122 87.894 17.7784C84.7398 19.0295 82.0187 20.7488 79.8252 22.829C77.6088 24.8961 75.9107 27.3113 74.5857 29.8958C73.244 32.4757 72.318 35.2516 71.5888 38.093C70.8443 40.9299 70.4664 43.9157 70.1636 46.8938C69.8658 49.8805 69.6585 52.8938 69.5186 55.9267C69.3507 59.6195 69.2816 63.3409 69.3166 67.0895C42.5702 60.7804 20.0294 70.2387 17.3615 89.9934C17.2388 90.9019 17.1639 91.8182 17.1279 92.7399C16.204 92.3688 15.2688 92.0156 14.3168 91.6941C3.75899 88.1282 -6.1243 88.4957 -12.9789 91.957C-16.6834 88.2711 -21.5962 85.1523 -27.1519 83.2758C-33.0882 81.2709 -38.7203 81.035 -43.2069 82.2615C-45.5052 81.0411 -47.9378 79.9805 -50.476 79.1232C-55.0419 77.5811 -59.4676 76.854 -63.5258 76.8492C-65.5034 72.699 -70.037 68.7915 -75.6159 66.9072C-79.2281 65.6872 -82.6575 65.5266 -85.4098 66.2442C-86.5818 64.2572 -88.8232 62.4465 -91.5306 61.5321C-95.7929 60.0925 -99.5846 61.4177 -99.9998 64.4923C-100.415 67.5665 -97.2965 71.2257 -93.0341 72.6653C-92.5455 72.8303 -92.0643 72.9546 -91.5925 73.0485C-91.8696 77.7222 -87.9955 82.9846 -82.2673 86.1479C-82.9656 87.5384 -83.4501 89.065 -83.6745 90.727ZM70.3244 60.0982C70.8699 56.3996 71.688 52.7977 72.8965 49.3496C77.6436 35.8054 89.604 24.5336 108.437 23.7196C118.729 23.2749 130.336 25.996 141.257 30.5043C158.515 37.6283 173.867 48.8777 188.137 60.3455C189.032 61.0642 189.925 61.7856 190.818 62.5074C197.362 67.7941 203.934 73.1029 211.278 77.5581C237.651 93.5578 259.448 87.1102 281.168 80.6855C294.416 76.7665 307.637 72.8559 321.849 74.0545C343.027 75.8402 365.542 84.9029 385.783 96.2901C419.953 115.514 449.507 141.965 468.692 170.495C508.26 229.335 496.753 287.603 454.075 321.3C438.356 333.712 416.781 343.369 389.84 338.976C376.932 336.872 365.105 331.665 353.578 325.654C357.821 327.96 362.087 330.181 366.43 332.201C370.392 334.043 374.411 335.712 378.466 337.104C382.52 338.497 386.606 339.609 390.649 340.374C394.689 341.124 398.702 341.582 402.598 341.727C406.491 341.859 410.276 341.701 413.919 341.294C421.193 340.447 427.883 338.62 433.969 336.148C440.074 333.688 445.594 330.596 450.678 327.142C453.22 325.413 455.638 323.579 457.961 321.671C460.287 319.764 462.532 317.793 464.663 315.741C481.757 299.372 492.823 278.615 496.054 255.102C497.68 243.36 497.323 230.928 494.722 218.146C492.166 205.375 487.334 192.251 480.278 179.299C466.184 153.387 443.247 128.279 415.24 107.82C408.237 102.706 400.922 97.8778 393.348 93.422C385.785 88.9528 377.969 84.8485 369.969 81.28C361.977 77.7131 353.791 74.6709 345.601 72.4706C343.555 71.9261 341.51 71.4231 339.472 70.9823C337.434 70.5479 335.402 70.1623 333.383 69.8376C329.355 69.2166 325.332 68.762 321.531 68.7147C313.877 68.6293 306.806 69.9159 300.072 71.6056C294.977 72.8966 290.04 74.4247 285.084 75.9588L285.084 75.9589L285.084 75.9591C283.485 76.4541 281.883 76.9497 280.274 77.4382C273.677 79.4354 266.957 81.3679 259.627 82.5304C255.959 83.099 252.148 83.4896 248.134 83.5035C246.13 83.5124 244.084 83.4419 241.996 83.2556C239.905 83.0639 237.778 82.7656 235.631 82.3481C231.337 81.5313 226.965 80.1523 222.744 78.3677C220.636 77.4618 218.568 76.4561 216.547 75.3762C214.542 74.2753 212.573 73.1079 210.682 71.8859C203.819 67.4458 197.724 62.4187 191.72 57.4661C191.084 56.9414 190.448 56.4175 189.814 55.8952C183.193 50.4348 176.429 45.0969 169.311 40.1179C162.199 35.1508 154.685 30.5635 146.78 26.8372C144.798 25.8969 142.828 25.0514 140.78 24.2028C138.744 23.3535 136.715 22.5168 134.683 21.7261C130.624 20.1404 126.543 18.7518 122.477 17.7783C118.413 16.7956 114.384 16.2612 110.512 16.1596C106.656 16.0978 102.812 16.263 99.1894 16.6932C95.5549 17.1216 92.118 17.8725 89.0662 19.0554C87.5393 19.6442 86.108 20.3367 84.7813 21.1252C83.4566 21.9157 82.258 22.8192 81.1628 23.7995C78.9658 25.758 77.2509 28.0727 75.8914 30.5733C74.5155 33.0686 73.539 35.7763 72.7541 38.5598C71.9372 41.3358 71.5753 44.2756 71.2311 47.239C70.9059 50.2041 70.6697 53.2001 70.5013 56.2163C70.4301 57.5066 70.371 58.8006 70.3244 60.0982ZM317.482 306.778C310.988 303.919 304.336 301.548 297.393 300.054C282.344 296.814 268.772 297.793 257.605 302.385C248.432 306.157 241.096 311.741 233.807 317.289C233.807 317.289 233.807 317.29 233.807 317.29M-31.8436 187.426C-40.4465 185.665 -49.0643 183.687 -57.6285 180.108C-82.3041 169.795 -102.578 148.062 -105.717 128.559C-106.929 121.029 -105.746 113.834 -101.572 108.378C-97.5314 103.095 -90.8961 99.6547 -83.2223 97.5366C-83.4165 96.7643 -83.565 95.993 -83.6653 95.2254C-88.1286 96.4808 -92.2404 98.1651 -95.7726 100.374C-98.4045 102.019 -100.684 103.97 -102.487 106.219C-104.282 108.47 -105.591 111.021 -106.421 113.771C-106.834 115.146 -107.137 116.568 -107.335 118.025C-107.52 119.487 -107.597 120.984 -107.578 122.505C-107.532 125.551 -107.074 128.703 -106.203 131.895C-104.451 138.283 -101.105 144.829 -96.4582 151.061C-94.1387 154.177 -91.5149 157.222 -88.5975 160.126C-87.1577 161.587 -85.6134 162.996 -84.0441 164.385C-83.7774 164.609 -83.5137 164.835 -83.2502 165.061C-82.7143 165.521 -82.1785 165.98 -81.6172 166.422L-80.3787 167.421L-79.1067 168.395C-75.7139 170.99 -72.0621 173.356 -68.2798 175.493C-64.484 177.611 -60.5329 179.469 -56.5067 180.991C-48.427 184.059 -40.1522 185.803 -31.9022 187.414L-31.8441 187.426L-31.8436 187.426ZM-8.9647 192.579C-8.22504 192.798 -7.48444 193.027 -6.74292 193.264C1.77317 195.965 10.1588 200.039 17.6473 205.083C21.3934 207.6 24.9088 210.352 28.167 213.239C29.7956 214.684 31.3715 216.159 32.8742 217.665C34.384 219.167 35.8403 220.693 37.234 222.239C42.8297 228.422 47.5976 234.839 51.9952 241.27C55.8935 246.981 59.5094 252.718 63.1125 258.434L63.1173 258.442C63.5738 259.166 64.0301 259.89 64.4868 260.614C68.5552 267.048 72.6271 273.464 77.1374 279.758C81.6529 286.052 86.6141 292.204 92.4956 297.961C104.188 309.513 118.613 319.781 134.276 327.356C142.1 331.141 150.237 334.22 158.367 336.368C166.494 338.519 174.61 339.72 182.282 339.826C189.958 339.94 197.165 338.957 203.599 337.016C210.044 335.083 215.676 332.162 220.824 328.809C225.327 325.89 229.479 322.645 233.651 319.383C239.051 315.162 244.488 310.912 250.771 307.304C253.563 305.717 256.496 304.256 259.676 303.018C262.858 301.785 266.269 300.792 269.912 300.126C277.182 298.778 285.323 298.661 293.769 299.924C297.983 300.56 302.282 301.5 306.556 302.804C310.241 303.917 313.895 305.269 317.482 306.778M347.795 338.338C355.786 342.267 364.121 345.525 372.492 348.027C380.857 350.565 389.27 352.387 397.417 353.4C401.488 353.898 405.488 354.184 409.351 354.22C413.218 354.268 416.993 354.161 420.64 353.859C422.47 353.719 424.26 353.513 425.992 353.231L427.298 353.027C427.456 353.003 427.61 352.975 427.762 352.944C427.879 352.921 427.994 352.897 428.11 352.872L428.117 352.871C428.267 352.839 428.417 352.807 428.569 352.778L429.836 352.521L431.067 352.223C434.341 351.411 437.377 350.315 440.164 348.929L440.46 349.14C438.505 351.147 435.815 352.727 432.721 353.916L431.557 354.363L430.324 354.74C430.177 354.783 430.033 354.828 429.888 354.873L429.886 354.873C429.621 354.956 429.356 355.038 429.079 355.106L427.792 355.426C427.167 355.595 426.505 355.715 425.842 355.836L425.835 355.837C425.6 355.88 425.365 355.923 425.131 355.968C424.532 356.092 423.905 356.178 423.277 356.264L423.275 356.264C422.975 356.305 422.675 356.346 422.377 356.392C418.633 356.861 414.634 356.962 410.516 356.745C406.392 356.514 402.189 356.059 397.951 355.405C389.476 354.105 380.844 351.988 372.349 349.171C363.865 346.314 355.494 342.776 347.668 338.526L347.795 338.338ZM111.597 348.814C101.441 342.898 92.1245 336.122 83.9755 328.867L83.7204 328.959C91.4917 336.386 100.67 343.374 110.763 349.597C120.882 355.791 131.964 361.208 143.485 365.352C149.24 367.43 155.1 369.184 160.959 370.561C166.816 371.927 172.663 372.827 178.288 373.2C189.536 373.947 199.914 372.695 208.053 369.551L207.824 369.319C203.121 370.225 198.249 370.867 193.156 371.128C192.558 371.177 191.935 371.188 191.312 371.198L191.232 371.2L189.3 371.253C189.188 371.255 189.076 371.259 188.965 371.262L188.964 371.262L188.963 371.262C188.754 371.269 188.546 371.276 188.332 371.274L187.345 371.261L185.372 371.235C185.043 371.228 184.719 371.231 184.386 371.218L183.385 371.173L181.385 371.082C180.743 371.063 180.083 371.006 179.424 370.949L179.366 370.944L177.336 370.775C171.907 370.28 166.361 369.437 160.76 368.273C155.158 367.12 149.492 365.564 143.887 363.663C132.671 359.855 121.715 354.751 111.597 348.814ZM-112.46 152.915C-112.54 155.399 -112.319 157.96 -111.801 160.563C-111.277 163.168 -110.44 165.817 -109.31 168.467C-107.102 173.765 -103.715 179.075 -99.423 184.084C-97.2705 186.587 -94.8852 189.013 -92.3002 191.317C-89.7283 193.627 -87.0476 195.861 -84.2521 198.021C-83.8139 198.376 -83.3574 198.715 -82.9004 199.055C-82.6442 199.245 -82.3879 199.436 -82.1345 199.629C-81.7339 199.934 -81.3192 200.225 -80.904 200.516C-80.5862 200.739 -80.2682 200.962 -79.9559 201.191C-79.4923 201.526 -79.016 201.849 -78.5388 202.171L-78.5386 202.171L-78.5384 202.172L-78.5382 202.172L-78.5379 202.172L-78.5376 202.172L-78.5368 202.173L-78.536 202.173L-78.5352 202.174L-78.5344 202.174C-78.2665 202.355 -77.9983 202.537 -77.732 202.721C-77.3512 202.975 -76.9662 203.224 -76.5804 203.474L-76.5783 203.476L-76.5771 203.476L-76.5759 203.477L-76.5756 203.477L-76.5752 203.478C-76.2017 203.72 -75.8275 203.962 -75.4561 204.21C-72.3863 206.168 -69.1889 208.008 -65.8703 209.793L-65.943 210.028C-69.4965 208.905 -73.0287 207.389 -76.4343 205.629C-76.5555 205.565 -76.677 205.501 -76.7986 205.436L-77.0655 205.296C-77.7041 204.96 -78.3442 204.623 -78.9677 204.263C-79.2579 204.092 -79.5504 203.924 -79.8433 203.755L-79.8443 203.755C-80.383 203.445 -80.9226 203.134 -81.45 202.809C-83.0804 201.805 -84.6696 200.75 -86.2253 199.659C-89.3158 197.461 -92.1823 195.057 -94.7474 192.527C-97.2996 189.99 -99.6401 187.373 -101.735 184.705C-105.939 179.372 -109.12 173.816 -111.046 168.37C-112.919 162.93 -113.562 157.611 -112.823 152.798L-112.46 152.915ZM16.0206 75.8153C14.9396 80.7403 15.2239 86.1264 16.5356 91.5783L16.8969 91.6319C16.5297 88.9611 16.385 86.3412 16.5107 83.8107C16.6455 81.2833 17.0591 78.8459 17.8163 76.5711C19.2671 71.9974 22.0256 68.0346 25.9628 65.096C26.2773 64.8651 26.6054 64.646 26.9331 64.4272L26.934 64.4266L26.9346 64.4262C27.1228 64.3006 27.3109 64.175 27.4962 64.0474L29.1294 63.0962L29.3266 63.0004L29.4722 62.9297C29.9372 62.7037 30.4016 62.4779 30.8732 62.261C31.0961 62.1732 31.3165 62.0826 31.5367 61.9922L31.5377 61.9917C31.9235 61.8333 32.3088 61.675 32.7067 61.532C35.2009 60.622 37.8414 59.9099 40.6209 59.3925L41.6611 59.1924C41.8862 59.1542 42.1157 59.1232 42.3452 59.0922L42.3455 59.0922L42.3458 59.0921L42.3461 59.0921C42.4088 59.0836 42.4716 59.0752 42.5343 59.0665C42.5997 59.0575 42.665 59.0484 42.7302 59.0389L43.8055 58.8918L43.9018 58.8833L44.0679 58.8688C44.3483 58.8445 44.6288 58.8202 44.9058 58.7881C45.6135 58.6979 46.3456 58.6582 47.0803 58.6183L47.1323 58.6154C47.625 58.579 48.1281 58.5669 48.6328 58.5547C48.8926 58.5485 49.1528 58.5422 49.4122 58.5326C52.4885 58.4829 55.6906 58.6738 59.0101 59.0272L58.991 58.741C55.5837 57.5581 52.1023 56.81 48.7049 56.4377C48.6339 56.4305 48.5629 56.4231 48.4919 56.4157L48.2471 56.39C47.5495 56.3164 46.8494 56.2426 46.1704 56.2281L46.165 56.2278C45.3298 56.1867 44.492 56.1454 43.6757 56.1586C43.3576 56.1559 43.0429 56.161 42.7279 56.1661L42.7273 56.1661L42.5395 56.1691L42.4435 56.1705L41.2377 56.2408C41.0984 56.2502 40.9584 56.2583 40.8182 56.2665C40.5557 56.2818 40.2929 56.2972 40.0345 56.3202L38.856 56.4492C35.7339 56.8319 32.8375 57.6285 30.297 58.7993C27.7663 59.9813 25.5097 61.441 23.5788 63.1442C19.6869 66.532 17.1581 70.9214 16.0206 75.8153ZM13.837 91.4596C12.18 88.3082 11.0657 85.0784 10.246 81.8751C9.85778 80.274 9.55695 78.6775 9.33933 77.0908C9.14384 75.5087 9.03179 73.9379 9.00554 72.3835C8.98381 70.8313 8.98528 69.2758 9.10679 67.746C9.23739 66.2202 9.56151 64.7465 10.1213 63.3759C10.6796 62.006 11.4252 60.7155 12.4073 59.5822C13.39 58.458 14.6456 57.4817 16.2246 56.9438L16.483 57.1858C15.6941 58.3957 15.0799 59.6059 14.6058 60.9003C14.1226 62.1841 13.7415 63.5066 13.4111 64.8524L12.4348 68.9114C12.1 70.2705 11.8349 71.6702 11.7145 73.1175C11.5908 74.5634 11.5482 76.0383 11.5876 77.5345C11.6145 79.0286 11.7231 80.5446 11.9186 82.0775C12.2731 85.1396 13.0096 88.2744 14.1505 91.4343L13.837 91.4596ZM-118.942 157.65C-118.142 154.442 -116.863 151.423 -115.294 148.553L-115.6 148.354C-117.668 150.923 -119.318 153.805 -120.589 156.896C-120.787 157.403 -120.964 157.919 -121.141 158.437C-121.237 158.716 -121.333 158.995 -121.432 159.273C-121.595 159.8 -121.738 160.338 -121.88 160.877L-121.88 160.877C-121.955 161.162 -122.03 161.447 -122.109 161.731C-122.229 162.28 -122.329 162.838 -122.428 163.396C-122.481 163.689 -122.533 163.981 -122.588 164.273C-122.668 164.84 -122.729 165.412 -122.791 165.986C-122.823 166.285 -122.856 166.585 -122.891 166.884L-123.041 169.548L-123.039 172.262C-122.969 173.182 -122.879 174.107 -122.757 175.037C-122.577 175.975 -122.366 176.916 -122.136 177.855C-121.839 178.8 -121.543 179.742 -121.211 180.682C-120.828 181.622 -120.442 182.559 -120.018 183.49C-119.551 184.418 -119.055 185.34 -118.55 186.253L-118.473 186.374L-118.473 186.375C-117.925 187.24 -117.381 188.1 -116.771 188.94L-116.461 188.899C-116.617 188.028 -116.836 187.174 -117.052 186.327L-117.101 186.137C-117.145 185.945 -117.187 185.753 -117.23 185.562L-117.231 185.556L-117.234 185.545L-117.234 185.545L-117.234 185.542C-117.392 184.832 -117.55 184.127 -117.732 183.426C-117.913 182.529 -118.099 181.638 -118.305 180.75C-118.463 179.864 -118.625 178.982 -118.804 178.101L-119.012 176.786C-119.058 176.502 -119.113 176.218 -119.167 175.933L-119.167 175.932C-119.197 175.778 -119.226 175.624 -119.254 175.47C-119.373 174.598 -119.524 173.721 -119.685 172.84L-120.032 170.212L-120.037 170.132C-120.092 169.293 -120.147 168.45 -120.172 167.614C-120.163 167.302 -120.158 166.989 -120.152 166.676C-120.143 166.135 -120.133 165.594 -120.108 165.057C-120.079 164.755 -120.053 164.452 -120.027 164.149C-119.981 163.612 -119.936 163.075 -119.871 162.543C-119.825 162.248 -119.782 161.95 -119.739 161.652C-119.663 161.123 -119.586 160.592 -119.489 160.07C-119.423 159.782 -119.361 159.492 -119.299 159.202C-119.187 158.683 -119.075 158.162 -118.942 157.65Z" fill="#1A6A73"/>
</svg>
