<svg width="17" height="18" viewBox="0 0 17 18" fill="none" xmlns="http://www.w3.org/2000/svg">
<path d="M4.66665 0.666504C4.20641 0.666504 3.83331 1.0396 3.83331 1.49984C3.83331 1.96007 4.20641 2.33317 4.66665 2.33317H11.75C12.2102 2.33317 12.5833 1.96007 12.5833 1.49984C12.5833 1.0396 12.2102 0.666504 11.75 0.666504H4.66665Z" fill="#070707"/>
<path fill-rule="evenodd" clip-rule="evenodd" d="M12.0003 17.4998H4.0003C2.89573 17.4998 2.00031 16.6044 2.00031 15.4998L1.33299 5.16649H1.08331C0.531028 5.16649 0.083313 4.71878 0.083313 4.16649C0.083313 3.61421 0.531028 3.16649 1.08331 3.16649C1.08331 3.16649 2.83966 3.15828 3.91181 3.16649C5.57344 3.17923 8.16599 3.16649 8.16599 3.16649H15.2493C15.8016 3.16649 16.2493 3.61421 16.2493 4.16649C16.2493 4.71878 15.8016 5.16649 15.2493 5.16649H14.9997L14.0003 15.4998C14.0003 16.6044 13.1049 17.4998 12.0003 17.4998ZM7.0003 8.4998C7.0003 7.94751 6.55259 7.4998 6.0003 7.4998C5.44802 7.4998 5.0003 7.94751 5.0003 8.4998V13.4998C5.0003 14.0521 5.44802 14.4998 6.0003 14.4998C6.55259 14.4998 7.0003 14.0521 7.0003 13.4998V8.4998ZM11.0003 8.4998C11.0003 7.94751 10.5526 7.4998 10.0003 7.4998C9.44802 7.4998 9.0003 7.94751 9.0003 8.4998V13.4998C9.0003 14.0521 9.44802 14.4998 10.0003 14.4998C10.5526 14.4998 11.0003 14.0521 11.0003 13.4998V8.4998Z" fill="#070707"/>
</svg>
