<svg width="17" height="16" viewBox="0 0 17 16" fill="none" xmlns="http://www.w3.org/2000/svg">
<path fill-rule="evenodd" clip-rule="evenodd" d="M14.9003 4.0001C14.9003 2.67461 13.8258 1.6001 12.5003 1.6001H4.50034C3.17486 1.6001 2.10034 2.67462 2.10034 4.0001V12.0002C2.10034 13.3257 3.17486 14.4002 4.50034 14.4002H12.5003C13.8258 14.4002 14.9003 13.3257 14.9003 12.0002L14.9003 4.0001ZM9.31349 4.50272C9.52118 4.29806 9.85799 4.29792 10.0659 4.50241L10.9839 5.40552C11.1918 5.6101 11.192 5.94198 10.9842 6.14673L5.93967 10.9038C5.86556 10.9768 5.77119 11.0266 5.66842 11.047L4.22483 11.3335C3.99103 11.3799 3.7855 11.173 3.83341 10.9395L4.1233 9.52683C4.14403 9.42582 4.19453 9.33308 4.2685 9.26019L9.31349 4.50272ZM8.83342 10.0002C8.46522 10.0002 8.16675 10.2986 8.16675 10.6668C8.16675 11.035 8.46522 11.3335 8.83342 11.3335H12.5001C12.8683 11.3335 13.1667 11.035 13.1667 10.6668C13.1667 10.2986 12.8683 10.0002 12.5001 10.0002H8.83342Z" fill="white"/>
</svg>
