<svg width="18" height="22" viewBox="0 0 18 22" fill="none" xmlns="http://www.w3.org/2000/svg">
<path fill-rule="evenodd" clip-rule="evenodd" d="M9.99988 3.50002V1.6171C9.99988 0.978583 10.7469 0.632116 11.2343 1.04456L15.8232 4.92748C16.1773 5.22707 16.1773 5.77298 15.8232 6.07256L11.2343 9.95548C10.7469 10.3679 9.99988 10.0215 9.99988 9.38295V7.50002C6.2915 7.50002 4.30213 7.50002 0.844404 10.289C0.510035 10.5587 0.00892839 10.3229 0.0469668 9.89498C0.61546 3.50002 6.20686 3.50002 9.99988 3.50002ZM7.99988 18.5V20.3829C7.99988 21.0215 7.25286 21.3679 6.76542 20.9555L2.17652 17.0726C1.82246 16.773 1.82246 16.2271 2.17652 15.9275L6.76542 12.0446C7.25286 11.6321 7.99988 11.9786 7.99988 12.6171V14.5C11.7083 14.5 13.6976 14.5 17.1554 11.7111C17.4897 11.4414 17.9908 11.6772 17.9528 12.1051C17.3843 18.5 11.7929 18.5 7.99988 18.5Z" fill="white"/>
</svg>
