<svg width="40" height="41" viewBox="0 0 40 41" fill="none" xmlns="http://www.w3.org/2000/svg">
<path d="M24.8802 1.00336L29.2066 8.49689L21.7131 12.8233M34.4652 18.0666C34.9826 21.3117 34.3762 24.6361 32.7464 27.4896C31.1167 30.343 28.5613 32.5543 25.5033 33.7573C22.4454 34.9603 19.0683 35.0829 15.9312 34.1048C12.7941 33.1266 10.0851 31.1065 8.25271 28.3787C6.42034 25.651 5.5745 22.3792 5.85522 19.1052C6.13594 15.8311 7.52639 12.7511 9.79637 10.3751C12.0663 7.99908 15.0797 6.46956 18.3375 6.03975C21.5954 5.60994 24.9023 6.30563 27.7108 8.01164" stroke="#E6E7F2" stroke-width="2" stroke-linecap="round" stroke-linejoin="round"/>
<path d="M14.0906 25.0195V17.0995H12.3986V16.0795H15.2786V25.0195H14.0906ZM20.1366 25.1635C19.6726 25.1635 19.2366 25.0835 18.8286 24.9235C18.4206 24.7555 18.0646 24.5195 17.7606 24.2155C17.4646 23.9035 17.2486 23.5395 17.1126 23.1235L18.0726 22.7155C18.2406 23.1555 18.5126 23.4995 18.8886 23.7475C19.2726 23.9875 19.6886 24.1075 20.1366 24.1075C20.5046 24.1075 20.8286 24.0275 21.1086 23.8675C21.3966 23.6995 21.6206 23.4715 21.7806 23.1835C21.9406 22.8875 22.0206 22.5595 22.0206 22.1995C22.0206 21.8235 21.9366 21.4915 21.7686 21.2035C21.6086 20.9155 21.3886 20.6915 21.1086 20.5315C20.8286 20.3635 20.5086 20.2795 20.1486 20.2795C19.7806 20.2795 19.4446 20.3635 19.1406 20.5315C18.8366 20.6995 18.6166 20.9115 18.4806 21.1675L17.5326 20.9635L18.2166 16.0795H22.8486V17.0995H18.6606L19.1166 16.6435L18.5886 20.4355L18.1806 20.1955C18.4446 19.8595 18.7526 19.6195 19.1046 19.4755C19.4646 19.3235 19.8526 19.2475 20.2686 19.2475C20.8526 19.2475 21.3646 19.3795 21.8046 19.6435C22.2446 19.9075 22.5886 20.2595 22.8366 20.6995C23.0846 21.1395 23.2086 21.6395 23.2086 22.1995C23.2086 22.7595 23.0726 23.2635 22.8006 23.7115C22.5366 24.1595 22.1726 24.5155 21.7086 24.7795C21.2526 25.0355 20.7286 25.1635 20.1366 25.1635Z" fill="#E6E7F2"/>
</svg>
