<svg width="22" height="22" viewBox="0 0 22 22" fill="none" xmlns="http://www.w3.org/2000/svg">
<path d="M17.0423 6.42724C16.9017 6.06536 16.7338 5.80688 16.4624 5.53548C16.1911 5.26407 15.9327 5.09606 15.5709 4.95551C15.2979 4.84889 14.8877 4.72288 14.1318 4.68895C13.3145 4.65179 13.069 4.64372 10.9984 4.64372C10.74 4.64372 10.509 4.64372 10.3023 4.64372C8.85675 4.64372 8.58056 4.65341 7.86506 4.68572C7.10918 4.71965 6.69893 4.84566 6.42597 4.95228C6.06418 5.09283 5.80576 5.26084 5.53442 5.53225C5.26308 5.80365 5.0951 6.06213 4.95458 6.42401C4.84799 6.69703 4.722 7.10737 4.68809 7.86343C4.65094 8.68087 4.64286 8.92482 4.64286 10.9959C4.64286 13.067 4.65094 13.3125 4.68809 14.13C4.722 14.886 4.8496 15.2964 4.95458 15.5694C5.0951 15.9313 5.26308 16.1898 5.53442 16.4612C5.80576 16.7326 6.06418 16.9006 6.42597 17.0411C6.69893 17.1478 7.10918 17.2738 7.86506 17.3093C8.68232 17.3465 8.92782 17.3545 10.9984 17.3545C13.069 17.3545 13.3145 17.3465 14.1318 17.3093C14.8877 17.2754 15.2979 17.1494 15.5709 17.0427C15.9327 16.9022 16.1911 16.7342 16.4624 16.4628C16.7338 16.1914 16.9017 15.9345 17.0423 15.5726C17.1489 15.2996 17.2748 14.8893 17.3088 14.1332C17.3459 13.3158 17.354 13.0702 17.354 11.0007C17.354 8.93128 17.3459 8.68572 17.3088 7.86827C17.2748 7.11222 17.1472 6.70188 17.0423 6.42885V6.42724ZM10.9984 14.983C8.80022 14.983 7.01711 13.2011 7.01711 11.0007C7.01711 8.80042 8.80022 7.01852 10.9984 7.01852C13.1966 7.01852 14.9797 8.80204 14.9797 11.0007C14.9797 13.1995 13.1982 14.983 10.9984 14.983ZM15.1364 7.79234C14.6228 7.79234 14.2061 7.37554 14.2061 6.86181C14.2061 6.34808 14.6228 5.93128 15.1364 5.93128C15.65 5.93128 16.0667 6.34808 16.0667 6.86181C16.0667 7.37554 15.65 7.79234 15.1364 7.79234Z" fill="url(#paint0_radial_2114_16173)"/>
<path d="M17.0423 6.42724C16.9017 6.06536 16.7338 5.80688 16.4624 5.53548C16.1911 5.26407 15.9327 5.09606 15.5709 4.95551C15.2979 4.84889 14.8877 4.72288 14.1318 4.68895C13.3145 4.65179 13.069 4.64372 10.9984 4.64372C10.74 4.64372 10.509 4.64372 10.3023 4.64372C8.85675 4.64372 8.58056 4.65341 7.86506 4.68572C7.10918 4.71965 6.69893 4.84566 6.42597 4.95228C6.06418 5.09283 5.80576 5.26084 5.53442 5.53225C5.26308 5.80365 5.0951 6.06213 4.95458 6.42401C4.84799 6.69703 4.722 7.10737 4.68809 7.86343C4.65094 8.68087 4.64286 8.92482 4.64286 10.9959C4.64286 13.067 4.65094 13.3125 4.68809 14.13C4.722 14.886 4.8496 15.2964 4.95458 15.5694C5.0951 15.9313 5.26308 16.1898 5.53442 16.4612C5.80576 16.7326 6.06418 16.9006 6.42597 17.0411C6.69893 17.1478 7.10918 17.2738 7.86506 17.3093C8.68232 17.3465 8.92782 17.3545 10.9984 17.3545C13.069 17.3545 13.3145 17.3465 14.1318 17.3093C14.8877 17.2754 15.2979 17.1494 15.5709 17.0427C15.9327 16.9022 16.1911 16.7342 16.4624 16.4628C16.7338 16.1914 16.9017 15.9345 17.0423 15.5726C17.1489 15.2996 17.2748 14.8893 17.3088 14.1332C17.3459 13.3158 17.354 13.0702 17.354 11.0007C17.354 8.93128 17.3459 8.68572 17.3088 7.86827C17.2748 7.11222 17.1472 6.70188 17.0423 6.42885V6.42724ZM10.9984 14.983C8.80022 14.983 7.01711 13.2011 7.01711 11.0007C7.01711 8.80042 8.80022 7.01852 10.9984 7.01852C13.1966 7.01852 14.9797 8.80204 14.9797 11.0007C14.9797 13.1995 13.1982 14.983 10.9984 14.983ZM15.1364 7.79234C14.6228 7.79234 14.2061 7.37554 14.2061 6.86181C14.2061 6.34808 14.6228 5.93128 15.1364 5.93128C15.65 5.93128 16.0667 6.34808 16.0667 6.86181C16.0667 7.37554 15.65 7.79234 15.1364 7.79234Z" fill="url(#paint1_radial_2114_16173)"/>
<path d="M10.9984 13.5856C12.4256 13.5856 13.5826 12.4284 13.5826 11.0008C13.5826 9.57328 12.4256 8.41602 10.9984 8.41602C9.57116 8.41602 8.41416 9.57328 8.41416 11.0008C8.41416 12.4284 9.57116 13.5856 10.9984 13.5856Z" fill="url(#paint2_radial_2114_16173)"/>
<path d="M10.9984 13.5856C12.4256 13.5856 13.5826 12.4284 13.5826 11.0008C13.5826 9.57328 12.4256 8.41602 10.9984 8.41602C9.57116 8.41602 8.41416 9.57328 8.41416 11.0008C8.41416 12.4284 9.57116 13.5856 10.9984 13.5856Z" fill="url(#paint3_radial_2114_16173)"/>
<path d="M21.4806 5.05089C21.4144 4.20759 21.2706 3.64055 20.9751 3.0412C20.7328 2.55008 20.4647 2.18498 20.0754 1.81018C19.3809 1.1462 18.5314 0.742326 17.5187 0.596931C17.0277 0.525848 16.9308 0.504847 14.4209 0.5H11.0032C6.61975 0.5 5.33733 0.504847 5.0886 0.525848C4.18897 0.600162 3.62852 0.742326 3.01961 1.04604C2.54961 1.28029 2.17813 1.55008 1.81311 1.92973C1.14605 2.62116 0.74227 3.47092 0.596908 4.48384C0.525842 4.97496 0.504845 5.07512 0.5 7.58239C0.5 8.41922 0.5 9.51939 0.5 10.996C0.5 15.3772 0.504845 16.6583 0.525842 16.9071C0.598523 17.7827 0.73581 18.3336 1.02653 18.9362C1.58214 20.0897 2.64329 20.9556 3.8934 21.2787C4.32626 21.3901 4.80434 21.4515 5.41809 21.4806C5.67813 21.4919 8.32856 21.5 10.9806 21.5C13.6327 21.5 16.2847 21.4968 16.5383 21.4838C17.249 21.4499 17.6624 21.395 18.1179 21.2771C19.3761 20.9523 20.4179 20.0994 20.9848 18.9297C21.269 18.3417 21.4144 17.7698 21.4806 16.9394C21.4952 16.7585 21.5 13.8732 21.5 10.9927C21.5 8.11228 21.4935 5.23182 21.479 5.05089H21.4806ZM18.7042 14.1979C18.6654 15.0234 18.5346 15.5872 18.344 16.08C18.1454 16.5905 17.8805 17.0218 17.4492 17.4531C17.018 17.8845 16.5868 18.1494 16.0764 18.3481C15.5838 18.5404 15.0185 18.6712 14.1931 18.7084C13.3662 18.7456 13.1029 18.7552 10.9968 18.7552C8.89063 18.7552 8.62736 18.7456 7.80042 18.7084C6.97508 18.6712 6.4114 18.5404 5.91878 18.3481C5.4084 18.1494 4.97716 17.8845 4.54592 17.4531C4.11467 17.0218 3.84979 16.5889 3.65113 16.08C3.45893 15.5872 3.32972 15.0234 3.29096 14.1979C3.25381 13.3708 3.24412 13.1074 3.24412 11.0008C3.24412 8.89418 3.25381 8.63086 3.29096 7.80371C3.3281 6.97819 3.45893 6.41438 3.65113 5.92165C3.84979 5.41115 4.11467 4.97981 4.54592 4.54846C4.97716 4.11712 5.41001 3.85218 5.91878 3.65509C6.4114 3.46284 6.97508 3.33199 7.80042 3.29483C8.62736 3.25767 8.89225 3.24798 10.9952 3.24798H10.9984C13.1029 3.24798 13.3662 3.25767 14.1931 3.29483C15.0185 3.33199 15.5821 3.46284 16.0764 3.65509C16.5868 3.85218 17.018 4.11712 17.4492 4.54846C17.8805 4.97981 18.1454 5.41276 18.344 5.92165C18.5346 6.41438 18.6654 6.97819 18.7042 7.80371C18.7413 8.63086 18.751 8.8958 18.751 11.0008C18.751 13.1058 18.7413 13.3708 18.7042 14.1979Z" fill="url(#paint4_radial_2114_16173)"/>
<path d="M21.4806 5.05089C21.4144 4.20759 21.2706 3.64055 20.9751 3.0412C20.7328 2.55008 20.4647 2.18498 20.0754 1.81018C19.3809 1.1462 18.5314 0.742326 17.5187 0.596931C17.0277 0.525848 16.9308 0.504847 14.4209 0.5H11.0032C6.61975 0.5 5.33733 0.504847 5.0886 0.525848C4.18897 0.600162 3.62852 0.742326 3.01961 1.04604C2.54961 1.28029 2.17813 1.55008 1.81311 1.92973C1.14605 2.62116 0.74227 3.47092 0.596908 4.48384C0.525842 4.97496 0.504845 5.07512 0.5 7.58239C0.5 8.41922 0.5 9.51939 0.5 10.996C0.5 15.3772 0.504845 16.6583 0.525842 16.9071C0.598523 17.7827 0.73581 18.3336 1.02653 18.9362C1.58214 20.0897 2.64329 20.9556 3.8934 21.2787C4.32626 21.3901 4.80434 21.4515 5.41809 21.4806C5.67813 21.4919 8.32856 21.5 10.9806 21.5C13.6327 21.5 16.2847 21.4968 16.5383 21.4838C17.249 21.4499 17.6624 21.395 18.1179 21.2771C19.3761 20.9523 20.4179 20.0994 20.9848 18.9297C21.269 18.3417 21.4144 17.7698 21.4806 16.9394C21.4952 16.7585 21.5 13.8732 21.5 10.9927C21.5 8.11228 21.4935 5.23182 21.479 5.05089H21.4806ZM18.7042 14.1979C18.6654 15.0234 18.5346 15.5872 18.344 16.08C18.1454 16.5905 17.8805 17.0218 17.4492 17.4531C17.018 17.8845 16.5868 18.1494 16.0764 18.3481C15.5838 18.5404 15.0185 18.6712 14.1931 18.7084C13.3662 18.7456 13.1029 18.7552 10.9968 18.7552C8.89063 18.7552 8.62736 18.7456 7.80042 18.7084C6.97508 18.6712 6.4114 18.5404 5.91878 18.3481C5.4084 18.1494 4.97716 17.8845 4.54592 17.4531C4.11467 17.0218 3.84979 16.5889 3.65113 16.08C3.45893 15.5872 3.32972 15.0234 3.29096 14.1979C3.25381 13.3708 3.24412 13.1074 3.24412 11.0008C3.24412 8.89418 3.25381 8.63086 3.29096 7.80371C3.3281 6.97819 3.45893 6.41438 3.65113 5.92165C3.84979 5.41115 4.11467 4.97981 4.54592 4.54846C4.97716 4.11712 5.41001 3.85218 5.91878 3.65509C6.4114 3.46284 6.97508 3.33199 7.80042 3.29483C8.62736 3.25767 8.89225 3.24798 10.9952 3.24798H10.9984C13.1029 3.24798 13.3662 3.25767 14.1931 3.29483C15.0185 3.33199 15.5821 3.46284 16.0764 3.65509C16.5868 3.85218 17.018 4.11712 17.4492 4.54846C17.8805 4.97981 18.1454 5.41276 18.344 5.92165C18.5346 6.41438 18.6654 6.97819 18.7042 7.80371C18.7413 8.63086 18.751 8.8958 18.751 11.0008C18.751 13.1058 18.7413 13.3708 18.7042 14.1979Z" fill="url(#paint5_radial_2114_16173)"/>
<defs>
<radialGradient id="paint0_radial_2114_16173" cx="0" cy="0" r="1" gradientUnits="userSpaceOnUse" gradientTransform="translate(6.07815 23.1174) rotate(-90) scale(20.8126 19.3573)">
<stop stop-color="#FFDD55"/>
<stop offset="0.1" stop-color="#FFDD55"/>
<stop offset="0.5" stop-color="#FF543E"/>
<stop offset="1" stop-color="#C837AB"/>
</radialGradient>
<radialGradient id="paint1_radial_2114_16173" cx="0" cy="0" r="1" gradientUnits="userSpaceOnUse" gradientTransform="translate(-3.01761 2.0128) rotate(78.6806) scale(9.3033 38.3486)">
<stop stop-color="#3771C8"/>
<stop offset="0.128" stop-color="#3771C8"/>
<stop offset="1" stop-color="#6600FF" stop-opacity="0"/>
</radialGradient>
<radialGradient id="paint2_radial_2114_16173" cx="0" cy="0" r="1" gradientUnits="userSpaceOnUse" gradientTransform="translate(6.07815 23.1174) rotate(-90) scale(20.8126 19.3573)">
<stop stop-color="#FFDD55"/>
<stop offset="0.1" stop-color="#FFDD55"/>
<stop offset="0.5" stop-color="#FF543E"/>
<stop offset="1" stop-color="#C837AB"/>
</radialGradient>
<radialGradient id="paint3_radial_2114_16173" cx="0" cy="0" r="1" gradientUnits="userSpaceOnUse" gradientTransform="translate(-3.01761 2.0128) rotate(78.6806) scale(9.3033 38.3486)">
<stop stop-color="#3771C8"/>
<stop offset="0.128" stop-color="#3771C8"/>
<stop offset="1" stop-color="#6600FF" stop-opacity="0"/>
</radialGradient>
<radialGradient id="paint4_radial_2114_16173" cx="0" cy="0" r="1" gradientUnits="userSpaceOnUse" gradientTransform="translate(6.07815 23.1174) rotate(-90) scale(20.8126 19.3573)">
<stop stop-color="#FFDD55"/>
<stop offset="0.1" stop-color="#FFDD55"/>
<stop offset="0.5" stop-color="#FF543E"/>
<stop offset="1" stop-color="#C837AB"/>
</radialGradient>
<radialGradient id="paint5_radial_2114_16173" cx="0" cy="0" r="1" gradientUnits="userSpaceOnUse" gradientTransform="translate(-3.01761 2.0128) rotate(78.6806) scale(9.3033 38.3486)">
<stop stop-color="#3771C8"/>
<stop offset="0.128" stop-color="#3771C8"/>
<stop offset="1" stop-color="#6600FF" stop-opacity="0"/>
</radialGradient>
</defs>
</svg>
