<svg width="24" height="24" viewBox="0 0 24 24" fill="none" xmlns="http://www.w3.org/2000/svg">
<path fill-rule="evenodd" clip-rule="evenodd" d="M12.0016 1.39844C8.44306 1.39844 5.60156 4.30786 5.60156 7.88415V9.10811C5.11955 9.4371 4.80078 9.99605 4.80078 10.627V19.7698C4.80078 20.7755 5.61078 21.5984 6.60078 21.5984H17.4008C18.3908 21.5984 19.2008 20.7755 19.2008 19.7698V10.627C19.2008 9.62126 18.3908 8.7984 17.4008 8.7984H7.60156V7.88415C7.60156 5.38262 9.57721 3.39844 12.0016 3.39844C13.5148 3.39844 14.8473 4.16744 15.6407 5.35423C15.9477 5.81335 16.5687 5.93671 17.0278 5.62976C17.487 5.3228 17.6103 4.70177 17.3034 4.24265C16.1572 2.52831 14.2151 1.39844 12.0016 1.39844ZM13.8012 15.1984C13.8012 14.1927 12.9912 13.3699 12.0012 13.3699C11.0112 13.3699 10.2012 14.1927 10.2012 15.1984C10.2012 16.2042 11.0112 17.027 12.0012 17.027C12.9912 17.027 13.8012 16.2042 13.8012 15.1984Z" fill="#99BEB7"/>
</svg>
