<svg width="24" height="24" viewBox="0 0 24 24" fill="none" xmlns="http://www.w3.org/2000/svg">
<path d="M19.125 9.42701V11.5V13.573C19.125 13.7426 19.3228 13.8352 19.453 13.7266L21.9406 11.6536C22.0366 11.5737 22.0366 11.4263 21.9406 11.3464L19.453 9.27336C19.3228 9.16481 19.125 9.25744 19.125 9.42701Z" fill="#A6C9AE"/>
<path d="M15.625 11.5H19.125M19.125 11.5V9.42701C19.125 9.25744 19.3228 9.16481 19.453 9.27336L21.9406 11.3464C22.0366 11.4263 22.0366 11.5737 21.9406 11.6536L19.453 13.7266C19.3228 13.8352 19.125 13.7426 19.125 13.573V11.5Z" stroke="#A6C9AE" stroke-width="1.5" stroke-linecap="round"/>
<path fill-rule="evenodd" clip-rule="evenodd" d="M5.625 1.25C3.55393 1.25 1.875 2.92893 1.875 5V19C1.875 21.0711 3.55393 22.75 5.625 22.75H13.625C15.6961 22.75 17.375 21.0711 17.375 19V15.5H15.875V19C15.875 20.2426 14.8676 21.25 13.625 21.25V2.75C14.8676 2.75 15.875 3.75736 15.875 5V8H17.375V5C17.375 2.92893 15.6961 1.25 13.625 1.25H5.625ZM12.625 11.5C12.625 12.3284 11.9534 13 11.125 13C10.2966 13 9.625 12.3284 9.625 11.5C9.625 10.6716 10.2966 10 11.125 10C11.9534 10 12.625 10.6716 12.625 11.5Z" fill="#A6C9AE"/>
</svg>
