<svg width="100" height="25" viewBox="0 0 100 25" fill="none" xmlns="http://www.w3.org/2000/svg">
<path d="M92.0571 23.3088C91.3319 23.3088 90.5954 23.1613 89.8475 22.8662C89.0997 22.5485 88.4538 22.0379 87.9099 21.3343C87.3887 20.6308 87.1281 19.7003 87.1281 18.5428C87.1281 16.818 87.9212 15.5925 89.5076 14.8662C91.1166 14.14 93.2128 13.7769 95.7963 13.7769H96.8161C96.8161 11.5528 96.5102 10.0322 95.8983 9.21516C95.2864 8.39814 94.4026 7.98963 93.2468 7.98963C92.227 7.98963 91.4112 8.20523 90.7993 8.63644C90.1874 9.06765 89.7569 9.81658 89.5076 10.8832H87.9779C87.9779 10.1116 88.0232 9.5102 88.1139 9.07899C88.2045 8.62509 88.4425 8.20523 88.8277 7.81942C89.2356 7.41091 89.9042 7.11587 90.8333 6.93431C91.7851 6.73006 92.8162 6.62793 93.9267 6.62793C95.7623 6.62793 97.2127 7.12722 98.2778 8.1258C99.3429 9.10169 99.8755 10.9854 99.8755 13.7769V22.9684H98.1758L96.9861 21.4364H96.8161C96.4082 21.9584 95.8076 22.401 95.0145 22.7641C94.2213 23.1272 93.2355 23.3088 92.0571 23.3088ZM93.5868 21.7769C94.3346 21.7769 94.9578 21.5953 95.4564 21.2322C95.9549 20.8691 96.4082 20.3698 96.8161 19.7343V15.1386H95.7963C94.1193 15.1386 92.7936 15.4563 91.8191 16.0918C90.8446 16.7045 90.3574 17.5215 90.3574 18.5428C90.3574 19.5868 90.6633 20.3925 91.2752 20.9598C91.9098 21.5045 92.6803 21.7769 93.5868 21.7769Z" fill="#98BDB6"/>
<path d="M75.011 11.0535C75.011 9.89601 74.8523 9.04495 74.5351 8.50027C74.2178 7.93289 73.5832 7.64921 72.6314 7.64921H72.2915V6.96836H75.011C75.8721 6.96836 76.518 7.09318 76.9486 7.34282C77.4018 7.56977 77.7191 7.95559 77.9004 8.50027H78.0703C78.4783 7.97828 79.0222 7.53573 79.702 7.17261C80.4045 6.80949 81.2204 6.62793 82.1495 6.62793C83.056 6.62793 83.7359 6.79814 84.1891 7.13857C84.5744 7.4336 84.971 7.94424 85.3789 8.67048L84.0192 9.69176C83.7699 9.35133 83.4073 9.10169 82.9314 8.94282C82.4555 8.76126 81.9116 8.67048 81.2997 8.67048C80.6198 8.67048 79.9966 8.82935 79.4301 9.14708C78.8635 9.44211 78.4103 9.85062 78.0703 10.3726V22.9684H75.011V11.0535Z" fill="#98BDB6"/>
<path d="M67.978 23.3091C66.7089 23.3091 65.7118 22.946 64.9866 22.2197C64.2614 21.4935 63.8988 20.3815 63.8988 18.8836V8.33039H61.5193V6.96869H63.8988V3.90486L65.5985 1.8623H66.9582V6.96869H71.0374V8.33039H66.9582V18.8836C66.9582 20.9261 67.7514 21.9474 69.3377 21.9474C69.8816 21.9474 70.3349 21.8907 70.6974 21.7772C71.0827 21.6637 71.4793 21.4935 71.8872 21.2666L72.2271 21.9474C71.7059 22.3332 71.128 22.6623 70.4935 22.9346C69.8589 23.1843 69.0205 23.3091 67.978 23.3091Z" fill="#98BDB6"/>
<path d="M45.2724 11.0535C45.2724 9.89601 45.1138 9.04495 44.7965 8.50027C44.4792 7.93289 43.8447 7.64921 42.8929 7.64921H42.213V6.96836H45.2724C46.1109 6.96836 46.7454 7.08183 47.176 7.30878C47.6293 7.53573 47.9579 7.87616 48.1618 8.33006H48.3318C48.8077 7.85346 49.4196 7.4563 50.1674 7.13857C50.9379 6.79814 51.7991 6.62793 52.7509 6.62793C54.4506 6.62793 55.8329 7.08183 56.8981 7.98963C57.9858 8.89743 58.5297 10.4861 58.5297 12.7556V22.9684H55.4704V12.7556C55.4704 11.1669 55.1078 10.0095 54.3826 9.28325C53.68 8.53431 52.7962 8.15984 51.7311 8.15984C50.53 8.15984 49.3969 8.76126 48.3318 9.9641V22.9684H45.2724V11.0535Z" fill="#98BDB6"/>
<path d="M34.385 23.3088C32.844 23.3088 31.5409 22.9457 30.4758 22.2194C29.4107 21.4705 28.6062 20.4719 28.0623 19.2237C27.5184 17.9528 27.2465 16.5343 27.2465 14.9684C27.2465 13.4251 27.5184 12.018 28.0623 10.7471C28.6062 9.47616 29.388 8.47758 30.4078 7.75133C31.4503 7.0024 32.6627 6.62793 34.0451 6.62793C36.334 6.62793 38.0336 7.27474 39.1441 8.56836C40.2772 9.83928 40.8437 11.6889 40.8437 14.1173L40.7757 15.479H30.4758C30.4758 17.3854 30.8837 18.94 31.6996 20.1428C32.5154 21.3457 33.6372 21.9471 35.0649 21.9471C36.13 21.9471 37.0252 21.7201 37.7504 21.2662C38.4982 20.8123 39.1894 20.1315 39.8239 19.2237L40.5038 19.7343C39.756 20.9825 38.8835 21.8903 37.8863 22.4577C36.8892 23.0251 35.7221 23.3088 34.385 23.3088ZM37.6144 14.1173C37.6144 12.1201 37.3198 10.5996 36.7306 9.55559C36.1413 8.51162 35.2462 7.98963 34.0451 7.98963C33.3652 7.98963 32.7534 8.26197 32.2095 8.80665C31.6656 9.32864 31.235 10.0549 30.9177 10.9854C30.6231 11.9159 30.4758 12.9598 30.4758 14.1173H37.6144Z" fill="#98BDB6"/>
<path d="M25.7892 24.5C24.1576 24.5 22.8885 24.2504 21.982 23.7511C21.0755 23.2518 20.4297 22.4801 20.0444 21.4362C19.6818 20.3695 19.5005 18.9511 19.5005 17.1809V4.07447L11.0022 22.9681H10.3223L1.48412 3.73404V22.9681H0.12439V0.5H3.35374L11.5121 18.2021L19.5005 0.5H22.5599V17.1809C22.5599 19.2915 22.8205 20.9255 23.3417 22.083C23.8856 23.2404 24.7015 23.8192 25.7892 23.8192V24.5Z" fill="#98BDB6"/>
</svg>
