<svg width="20" height="20" viewBox="0 0 20 20" fill="none" xmlns="http://www.w3.org/2000/svg">
<path fill-rule="evenodd" clip-rule="evenodd" d="M10.4142 3.41421C9.63317 4.19526 9.63317 5.46159 10.4142 6.24264L13.2426 9.07107C14.0237 9.85212 15.29 9.85212 16.0711 9.07107L18.8995 6.24264C19.6805 5.46159 19.6805 4.19526 18.8995 3.41421L16.0711 0.585786C15.29 -0.195262 14.0237 -0.195262 13.2426 0.585786L10.4142 3.41421ZM2 1.17218C0.895431 1.17218 0 2.06761 0 3.17218L0 7.17218C0 8.27675 0.895431 9.17218 2 9.17218H6C7.10457 9.17218 8 8.27675 8 7.17218V3.17218C8 2.06761 7.10457 1.17218 6 1.17218H2ZM2 11.1722C0.895431 11.1722 0 12.0676 0 13.1722L0 17.1722C0 18.2767 0.895431 19.1722 2 19.1722H6C7.10457 19.1722 8 18.2767 8 17.1722V13.1722C8 12.0676 7.10457 11.1722 6 11.1722H2ZM11 13.1722C11 12.0676 11.8954 11.1722 13 11.1722H17C18.1046 11.1722 19 12.0676 19 13.1722V17.1722C19 18.2767 18.1046 19.1722 17 19.1722H13C11.8954 19.1722 11 18.2767 11 17.1722V13.1722Z" fill="#1A6A73"/>
</svg>
