<svg width="21" height="21" viewBox="0 0 21 21" fill="none" xmlns="http://www.w3.org/2000/svg">
<path d="M10.5001 0.916748C8.68636 0.916897 6.9099 1.43169 5.37712 2.40133C3.84434 3.37096 2.61816 4.75562 1.84105 6.39443C1.06394 8.03324 0.767793 9.85892 0.987027 11.6593C1.20626 13.4598 1.93187 15.161 3.07956 16.5655L1.19754 18.4475C1.06352 18.5815 0.972239 18.7523 0.935255 18.9382C0.898271 19.1241 0.91724 19.3167 0.989764 19.4918C1.06229 19.6669 1.18511 19.8166 1.3427 19.9219C1.50028 20.0272 1.68555 20.0834 1.87508 20.0834H10.5001C13.0417 20.0834 15.4793 19.0737 17.2765 17.2765C19.0737 15.4793 20.0834 13.0417 20.0834 10.5001C20.0834 7.95842 19.0737 5.52086 17.2765 3.72364C15.4793 1.92642 13.0417 0.916748 10.5001 0.916748ZM7.62508 5.70841L13.3751 5.70841C13.6292 5.70841 13.873 5.80938 14.0527 5.9891C14.2324 6.16883 14.3334 6.41258 14.3334 6.66675C14.3334 6.92091 14.2324 7.16467 14.0527 7.34439C13.873 7.52411 13.6292 7.62508 13.3751 7.62508L7.62508 7.62508C7.37092 7.62508 7.12716 7.52411 6.94744 7.34439C6.76772 7.16467 6.66675 6.92091 6.66675 6.66675C6.66675 6.41258 6.76772 6.16883 6.94744 5.9891C7.12716 5.80938 7.37092 5.70841 7.62508 5.70841ZM13.3751 15.2917H7.62508C7.37092 15.2917 7.12716 15.1908 6.94744 15.0111C6.76772 14.8313 6.66675 14.5876 6.66675 14.3334C6.66675 14.0792 6.76772 13.8355 6.94744 13.6558C7.12716 13.476 7.37092 13.3751 7.62508 13.3751H13.3751C13.6292 13.3751 13.873 13.476 14.0527 13.6558C14.2324 13.8355 14.3334 14.0792 14.3334 14.3334C14.3334 14.5876 14.2324 14.8313 14.0527 15.0111C13.873 15.1908 13.6292 15.2917 13.3751 15.2917ZM15.2917 11.4584H5.70842C5.45425 11.4584 5.2105 11.3574 5.03077 11.1777C4.85105 10.998 4.75008 10.7542 4.75008 10.5001C4.75008 10.2459 4.85105 10.0022 5.03077 9.82244C5.2105 9.64271 5.45425 9.54175 5.70842 9.54175H15.2917C15.5459 9.54175 15.7897 9.64271 15.9694 9.82244C16.1491 10.0022 16.2501 10.2459 16.2501 10.5001C16.2501 10.7542 16.1491 10.998 15.9694 11.1777C15.7897 11.3574 15.5459 11.4584 15.2917 11.4584Z" fill="#99BEB7"/>
</svg>
