<svg width="18" height="18" viewBox="0 0 18 18" fill="none" xmlns="http://www.w3.org/2000/svg">
<path d="M0.191682 10.8545C-0.0671492 9.63202 -0.0671492 8.36892 0.191682 7.14647C1.19068 7.26347 2.06368 6.93317 2.34808 6.24557C2.63338 5.55707 2.25088 4.70657 1.46068 4.08287C2.14202 3.03556 3.03507 2.14251 4.08238 1.46117C4.70518 2.25047 5.55658 2.63387 6.24508 2.34857C6.93358 2.06327 7.26388 1.19117 7.14598 0.19217C8.36843 -0.0666609 9.63153 -0.0666609 10.854 0.19217C10.737 1.19117 11.0673 2.06417 11.7549 2.34857C12.4434 2.63387 13.2939 2.25137 13.9176 1.46117C14.9649 2.14251 15.8579 3.03556 16.5393 4.08287C15.75 4.70567 15.3666 5.55707 15.6519 6.24557C15.9372 6.93407 16.8093 7.26437 17.8083 7.14647C18.0671 8.36892 18.0671 9.63202 17.8083 10.8545C16.8093 10.7375 15.9363 11.0678 15.6519 11.7554C15.3666 12.4439 15.7491 13.2944 16.5393 13.9181C15.8579 14.9654 14.9649 15.8584 13.9176 16.5398C13.2948 15.7505 12.4434 15.3671 11.7549 15.6524C11.0664 15.9377 10.7361 16.8098 10.854 17.8088C9.63153 18.0676 8.36843 18.0676 7.14598 17.8088C7.26298 16.8098 6.93268 15.9368 6.24508 15.6524C5.55658 15.3671 4.70608 15.7496 4.08238 16.5398C3.03507 15.8584 2.14202 14.9654 1.46068 13.9181C2.24998 13.2953 2.63338 12.4439 2.34808 11.7554C2.06278 11.0669 1.19068 10.7366 0.191682 10.8545ZM1.79998 9.18947C2.78998 9.46397 3.60628 10.0913 4.01128 11.0669C4.41538 12.0434 4.28128 13.0649 3.77548 13.9577C3.86188 14.0495 3.95098 14.1386 4.04278 14.225C4.93648 13.7192 5.95708 13.586 6.93358 13.9892C7.90918 14.3942 8.53648 15.2105 8.81098 16.2005C8.93698 16.2041 9.06298 16.2041 9.18898 16.2005C9.46348 15.2105 10.0908 14.3942 11.0664 13.9892C12.0429 13.5851 13.0644 13.7192 13.9572 14.225C14.049 14.1386 14.1381 14.0495 14.2245 13.9577C13.7187 13.064 13.5855 12.0434 13.9887 11.0669C14.3937 10.0913 15.21 9.46397 16.2 9.18947C16.2036 9.06347 16.2036 8.93747 16.2 8.81147C15.21 8.53697 14.3937 7.90967 13.9887 6.93407C13.5846 5.95757 13.7187 4.93607 14.2245 4.04327C14.1378 3.95183 14.0486 3.8627 13.9572 3.77597C13.0635 4.28177 12.0429 4.41497 11.0664 4.01177C10.0908 3.60677 9.46348 2.79047 9.18898 1.80047C9.063 1.79713 8.93696 1.79713 8.81098 1.80047C8.53648 2.79047 7.90918 3.60677 6.93358 4.01177C5.95708 4.41587 4.93558 4.28177 4.04278 3.77597C3.95098 3.86237 3.86188 3.95147 3.77548 4.04327C4.28128 4.93697 4.41448 5.95757 4.01128 6.93407C3.60628 7.90967 2.78998 8.53697 1.79998 8.81147C1.79638 8.93747 1.79638 9.06347 1.79998 9.18947ZM8.99998 11.7005C8.2839 11.7005 7.59714 11.416 7.09079 10.9097C6.58444 10.4033 6.29998 9.71655 6.29998 9.00047C6.29998 8.28439 6.58444 7.59763 7.09079 7.09128C7.59714 6.58493 8.2839 6.30047 8.99998 6.30047C9.71607 6.30047 10.4028 6.58493 10.9092 7.09128C11.4155 7.59763 11.7 8.28439 11.7 9.00047C11.7 9.71655 11.4155 10.4033 10.9092 10.9097C10.4028 11.416 9.71607 11.7005 8.99998 11.7005ZM8.99998 9.90047C9.23868 9.90047 9.4676 9.80565 9.63638 9.63687C9.80516 9.46808 9.89998 9.23917 9.89998 9.00047C9.89998 8.76178 9.80516 8.53286 9.63638 8.36407C9.4676 8.19529 9.23868 8.10047 8.99998 8.10047C8.76129 8.10047 8.53237 8.19529 8.36359 8.36407C8.1948 8.53286 8.09998 8.76178 8.09998 9.00047C8.09998 9.23917 8.1948 9.46808 8.36359 9.63687C8.53237 9.80565 8.76129 9.90047 8.99998 9.90047Z" fill="#0A0D14"/>
</svg>
