<svg width="24" height="24" viewBox="0 0 24 24" fill="none" xmlns="http://www.w3.org/2000/svg">
<g clip-path="url(#clip0_820_16769)">
<path fill-rule="evenodd" clip-rule="evenodd" d="M0.999756 11.8001V12.2001C0.999756 13.8802 0.999756 14.7203 1.32674 15.3621C1.61436 15.9265 2.0733 16.3855 2.63778 16.6731C3.27952 17.0001 4.1196 17.0001 5.79976 17.0001H6.13263C6.82292 17.0001 7.16807 17.0001 7.49506 17.0741C7.78505 17.1397 8.06367 17.2481 8.32179 17.3957C8.61284 17.5621 8.86726 17.7953 9.37611 18.2617L11.3186 20.0424C12.1666 20.8196 12.5905 21.2083 12.9517 21.2257C13.2653 21.2408 13.5678 21.1077 13.7686 20.8663C13.9998 20.5884 13.9998 20.0132 13.9998 18.8629V5.13726C13.9998 3.98694 13.9998 3.41179 13.7686 3.13384C13.5678 2.89244 13.2653 2.75937 12.9517 2.77448C12.5905 2.79187 12.1666 3.18052 11.3186 3.95781L9.37611 5.73842C8.86726 6.20487 8.61284 6.43809 8.32179 6.60449C8.06367 6.75206 7.78505 6.86044 7.49506 6.92607C7.16807 7.00008 6.82292 7.00008 6.13263 7.00008H5.79976C4.1196 7.00008 3.27952 7.00008 2.63778 7.32706C2.0733 7.61468 1.61436 8.07362 1.32674 8.63811C0.999756 9.27985 0.999756 10.1199 0.999756 11.8001ZM20.2498 5.00007C20.8021 4.58586 21.5856 4.69779 21.9998 5.25007L20.9998 6.00007C21.9998 5.25007 22.0001 5.25055 22.0005 5.25103L22.0012 5.25204L22.0029 5.25421L22.0065 5.2591L22.0153 5.27119C22.0219 5.28026 22.0299 5.29138 22.0392 5.30454C22.0577 5.33085 22.0813 5.36534 22.1093 5.408C22.1653 5.49332 22.2388 5.61139 22.3236 5.76225C22.4933 6.06397 22.7086 6.49697 22.9202 7.06117C23.3442 8.1919 23.7498 9.84025 23.7498 12.0001C23.7498 14.1599 23.3442 15.8082 22.9202 16.939C22.7086 17.5032 22.4933 17.9362 22.3236 18.2379C22.2388 18.3888 22.1653 18.5068 22.1093 18.5921C22.0813 18.6348 22.0577 18.6693 22.0392 18.6956L22.0257 18.7146L22.0153 18.729L22.0065 18.741L22.0029 18.7459L22.0012 18.7481L22.0005 18.7491C22.0001 18.7496 21.9998 18.7501 20.9998 18.0001L21.9998 18.7501C21.5856 19.3024 20.8021 19.4143 20.2498 19.0001C19.7004 18.5881 19.5868 17.8107 19.9932 17.2589L19.9941 17.2577C19.9975 17.2527 20.0061 17.2403 20.0192 17.2205C20.0452 17.1808 20.0889 17.1114 20.1447 17.0122C20.2562 16.814 20.4159 16.497 20.5794 16.0612C20.9053 15.1919 21.2498 13.8403 21.2498 12.0001C21.2498 10.1599 20.9053 8.80824 20.5794 7.93898C20.4159 7.50318 20.2562 7.18617 20.1447 6.9879C20.0889 6.88875 20.0452 6.81933 20.0192 6.77964C20.0061 6.75981 19.9975 6.74742 19.9941 6.74248L19.9932 6.74121C19.5868 6.18943 19.7004 5.41208 20.2498 5.00007ZM16.1159 8.11618C16.604 7.62802 17.3955 7.62802 17.8836 8.11618L16.9998 9.00006C17.8836 8.11618 17.8841 8.11661 17.8845 8.11705L17.8854 8.11795L17.8873 8.11983L17.8913 8.1239L17.9004 8.13325L17.9229 8.15685C17.9397 8.17477 17.9601 8.19709 17.9834 8.22381C18.0302 8.27721 18.0892 8.34844 18.156 8.43756C18.2896 8.61564 18.4556 8.86666 18.6178 9.19104C18.9442 9.8439 19.2498 10.7841 19.2498 12.0001C19.2498 13.216 18.9442 14.1562 18.6178 14.8091C18.4556 15.1335 18.2896 15.3845 18.156 15.5626C18.0892 15.6517 18.0302 15.7229 17.9834 15.7763C17.9601 15.803 17.9397 15.8254 17.9229 15.8433L17.9004 15.8669L17.8913 15.8762L17.8873 15.8803L17.8854 15.8822L17.8845 15.8831C17.8841 15.8835 17.8836 15.8839 16.9998 15.0001L17.8836 15.8839C17.3955 16.3721 16.604 16.3721 16.1159 15.8839C15.6331 15.4012 15.6278 14.6217 16.1 14.1324L16.102 14.1301C16.11 14.121 16.1291 14.0984 16.156 14.0626C16.2099 13.9906 16.2939 13.8667 16.3817 13.691C16.5553 13.3439 16.7498 12.7841 16.7498 12.0001C16.7498 11.216 16.5553 10.6562 16.3817 10.3091C16.2939 10.1335 16.2099 10.0095 16.156 9.93756C16.1291 9.90169 16.11 9.87916 16.102 9.87007L16.1 9.86774C15.6278 9.37843 15.6331 8.59897 16.1159 8.11618Z" fill="white"/>
</g>
<defs>
<clipPath id="clip0_820_16769">
<rect width="24" height="24" fill="white"/>
</clipPath>
</defs>
</svg>
