<svg width="323" height="95" viewBox="0 0 323 95" fill="none" xmlns="http://www.w3.org/2000/svg">
<path d="M77.9427 47.3382C77.698 36.4413 65.2043 23.6292 51.8427 25.3592C39.8561 26.9108 29.7445 36.0871 29.515 49.1831C29.5115 49.3625 30.1732 49.298 30.0397 49.1831C28.3192 47.6947 21.0102 41.9513 19.4678 48.1252C19.4432 48.2248 19.469 48.0219 19.4678 48.1252C19.4549 48.8476 18.3423 51.2003 23.2986 53.9518C23.5035 54.0656 23.3946 54.3916 23.1662 54.3494C21.5969 54.0621 20.2946 54.5077 20.133 56.3163C19.8742 59.2073 27.2875 62.7716 28.3462 63.1856C28.4211 63.2149 28.1483 62.4209 28.1541 62.503C28.1576 62.5452 28.1611 62.6015 28.1658 62.6637C28.2689 62.6039 30.8876 63.7462 30.8981 63.7615C31.7366 64.8839 30.3477 63.8154 31.6324 63.8435C33.2041 63.8776 34.7148 64.2364 36.2654 64.4663C36.0968 64.5672 35.9281 64.6681 35.7595 64.7689C35.1962 65.1888 35.0908 65.5231 35.6588 66.0954C36.2022 66.6443 36.7374 67.124 37.2129 67.7503C38.1369 68.9665 39.0844 69.9388 40.3515 70.7645C40.574 70.9099 40.9148 71.1175 41.1983 71.3591C42.9526 68.8539 44.9225 66.4484 47.0083 64.5989C49.9232 62.0139 53.8067 60.9267 57.579 61.6574C60.6438 62.2508 64.8541 63.7063 69.2716 67.1756C69.7963 67.5873 71.1642 66.2913 71.6174 65.7963C74.1084 63.0671 78.1477 56.4136 77.9427 47.3382Z" fill="#98BDB6"/>
<path fill-rule="evenodd" clip-rule="evenodd" d="M42.2714 59.2054C42.2715 59.2056 42.2716 59.2057 42.0017 59.4309C41.7317 59.6561 41.7317 59.6561 41.7316 59.656L41.7311 59.6554L41.729 59.6528L41.7203 59.6425C41.7126 59.6332 41.7009 59.6192 41.6854 59.6008C41.6544 59.564 41.6082 59.5093 41.5477 59.4383C41.4266 59.2963 41.2484 59.089 41.0204 58.8289C40.5643 58.3087 39.9095 57.5777 39.1155 56.7356C37.526 55.0497 35.385 52.9255 33.1675 51.1559C30.9347 49.3741 28.6812 47.9991 26.8594 47.7354C25.9637 47.6058 25.2036 47.749 24.5937 48.214C23.984 48.6788 23.4729 49.5039 23.1546 50.8448C23.1559 50.8716 23.1585 50.9124 23.1638 50.9658C23.1747 51.076 23.1969 51.2393 23.2421 51.4424C23.3325 51.8487 23.5145 52.4127 23.8809 53.0294C24.6084 54.2541 26.0848 55.7237 29.111 56.5632C29.288 56.6123 29.3974 56.7895 29.362 56.97C29.3267 57.1503 29.1587 57.2731 28.9764 57.2517L28.9763 57.2517L28.9747 57.2515L28.9664 57.2506C28.9616 57.2501 28.9551 57.2495 28.9469 57.2487C28.9419 57.2482 28.9363 57.2476 28.9301 57.2471C28.8975 57.244 28.8486 57.2399 28.786 57.2359C28.6605 57.2278 28.4805 57.2201 28.2657 57.2218C27.8333 57.2253 27.2734 57.267 26.7377 57.4141C26.1992 57.562 25.7184 57.8071 25.4025 58.1927C25.0963 58.5664 24.9095 59.1152 25.0361 59.9542C25.0888 60.3033 25.3089 60.6624 25.7168 61.0282C26.1235 61.3931 26.6908 61.7407 27.3796 62.0672C28.7566 62.7198 30.5566 63.2592 32.3587 63.6883C34.157 64.1165 35.9403 64.431 37.2753 64.6385C37.9424 64.7422 38.4968 64.819 38.884 64.8699C39.0776 64.8953 39.2293 64.9143 39.3325 64.9268C39.3841 64.9331 39.4235 64.9378 39.4499 64.9409C39.4631 64.9425 39.473 64.9436 39.4796 64.9444L39.487 64.9452L39.4888 64.9454L39.4892 64.9455C39.4892 64.9455 39.4892 64.9455 39.4498 65.2951C39.4103 65.6447 39.4102 65.6447 39.41 65.6447L39.4095 65.6446L39.4073 65.6444L39.3993 65.6435C39.3922 65.6426 39.3818 65.6414 39.3681 65.6398C39.3407 65.6366 39.3003 65.6318 39.2477 65.6254C39.1425 65.6126 38.9885 65.5934 38.7926 65.5676C38.4007 65.5161 37.8409 65.4385 37.1675 65.3339C35.8216 65.1247 34.0187 64.8069 32.1961 64.3729C30.3774 63.9399 28.5218 63.3871 27.079 62.7033C26.358 62.3615 25.7244 61.9798 25.248 61.5524C24.7727 61.1261 24.4274 60.63 24.3413 60.0593C24.1904 59.0587 24.4059 58.2997 24.8593 57.7463C25.3029 57.2049 25.9389 56.9038 26.5519 56.7355C26.7468 56.682 26.9427 56.6409 27.1342 56.6097C25.0927 55.7109 23.9319 54.4916 23.277 53.3892C22.8665 52.6982 22.66 52.0621 22.5562 51.5954C22.5043 51.362 22.4779 51.1706 22.4645 51.0351C22.4578 50.9673 22.4544 50.9135 22.4526 50.8753C22.4517 50.8562 22.4512 50.841 22.451 50.83C22.4508 50.8244 22.4508 50.8199 22.4507 50.8165L22.4507 50.8121L22.4507 50.8105L22.4507 50.8099C22.4507 50.8096 22.4507 50.8094 22.802 50.8094H22.4507C22.4507 50.7825 22.4537 50.7558 22.4598 50.7296C22.7987 49.2705 23.3754 48.2583 24.1681 47.6541C24.9671 47.045 25.9326 46.8902 26.9599 47.0389C28.9843 47.332 31.3666 48.8189 33.6054 50.6056C35.8597 52.4045 38.0263 54.5554 39.6264 56.2525C40.4272 57.1018 41.0878 57.8392 41.5484 58.3646C41.7787 58.6273 41.9591 58.8371 42.0821 58.9815C42.1436 59.0536 42.1908 59.1094 42.2227 59.1473C42.2386 59.1663 42.2508 59.1808 42.259 59.1905L42.2683 59.2017L42.2714 59.2054ZM39.4498 65.2951L39.4103 65.6447C39.6031 65.6666 39.7771 65.5277 39.7989 65.3346C39.8207 65.1416 39.682 64.9673 39.4892 64.9455L39.4498 65.2951ZM42.2265 59.7013C42.0774 59.8256 41.8559 59.8054 41.7317 59.6561L42.0017 59.4309L42.2716 59.2057C42.3958 59.355 42.3756 59.5769 42.2265 59.7013Z" fill="#002C3C"/>
<path fill-rule="evenodd" clip-rule="evenodd" d="M64.5525 52.9534C64.5524 52.9534 64.5524 52.9534 64.4348 52.6849C64.3172 52.4163 64.3173 52.4163 64.3174 52.4163L64.3444 52.4044C64.3622 52.3967 64.3884 52.3853 64.4226 52.3705C64.4909 52.3409 64.591 52.2978 64.7183 52.2435C64.9731 52.1349 65.3373 51.9815 65.7755 51.8022C66.6515 51.4437 67.8253 50.9807 69.0133 50.5641C70.1979 50.1487 71.4096 49.7749 72.3571 49.5999C72.8275 49.5131 73.2558 49.4707 73.5907 49.5074C73.9064 49.5419 74.2713 49.6661 74.3733 50.0402L74.3734 50.0405C74.4556 50.3427 74.3526 50.6257 74.1849 50.8604C74.0188 51.0929 73.7683 51.3099 73.4813 51.5096C72.905 51.9108 72.1102 52.2905 71.321 52.6161C70.8189 52.8233 70.3124 53.0112 69.855 53.1712C69.9038 53.1751 69.9528 53.1793 70.0017 53.1839C70.4958 53.2302 71.0155 53.3185 71.4154 53.4895C71.8039 53.6557 72.1924 53.9558 72.1627 54.4659C72.1372 54.9021 71.8918 55.2194 71.5184 55.4304C71.16 55.6328 70.6711 55.7471 70.0982 55.8084C68.9482 55.9315 67.3313 55.8521 65.4106 55.6993C65.2494 55.6865 65.1291 55.5452 65.1419 55.3838C65.1547 55.2224 65.2958 55.1019 65.457 55.1147C67.3835 55.268 68.948 55.3417 70.036 55.2253C70.5821 55.1668 70.9764 55.0632 71.2307 54.9196C71.4699 54.7845 71.5667 54.6277 71.5781 54.4317M68.0431 53.7444C67.8936 53.7546 67.7605 53.6501 67.7348 53.5022C67.709 53.3543 67.799 53.2108 67.9433 53.1698L67.9464 53.181C67.9433 53.1698 67.9432 53.1698 67.9433 53.1698L67.9474 53.1686L67.9608 53.1648C67.9726 53.1614 67.9904 53.1562 68.0137 53.1494C68.0603 53.1358 68.1288 53.1155 68.216 53.0892C68.3905 53.0365 68.6398 52.9594 68.9378 52.8622C69.5344 52.6677 70.3233 52.3935 71.0979 52.0739C71.8763 51.7528 72.6239 51.3923 73.1471 51.0281C73.4099 50.8452 73.5986 50.6733 73.7087 50.5192C73.8173 50.3672 73.8278 50.2659 73.8084 50.1946C73.8062 50.1867 73.8024 50.1735 73.7684 50.1538C73.7269 50.1297 73.6513 50.1039 73.5271 50.0903C73.2783 50.0631 72.9172 50.0928 72.4633 50.1766C71.562 50.343 70.3852 50.7044 69.2068 51.1176C68.0317 51.5296 66.8679 51.9886 65.997 52.345C65.5618 52.5231 65.2003 52.6754 64.9477 52.783C64.8214 52.8369 64.7224 52.8795 64.655 52.9087C64.6213 52.9233 64.5956 52.9345 64.5783 52.9421L64.5525 52.9534M64.1667 52.8026C64.1018 52.6543 64.1692 52.4814 64.3172 52.4163L64.4348 52.6849L64.5525 52.9534C64.4044 53.0184 64.2316 52.9509 64.1667 52.8026ZM68.0431 53.7444L68.0435 53.7444L68.0431 53.7444ZM68.0435 53.7444L68.0453 53.7443L68.0435 53.7444ZM68.0453 53.7443L68.0529 53.7438L68.0453 53.7443ZM68.0529 53.7438C68.0598 53.7433 68.0703 53.7427 68.0841 53.7419L68.0529 53.7438ZM68.0841 53.7419C68.1117 53.7403 68.1526 53.7381 68.2048 53.7357L68.0841 53.7419ZM68.2048 53.7357C68.3094 53.731 68.4592 53.7255 68.639 53.7229L68.2048 53.7357ZM68.639 53.7229C68.9996 53.7176 69.476 53.7235 69.9472 53.7677L68.639 53.7229ZM69.9472 53.7677C70.4242 53.8124 70.8708 53.8943 71.1854 54.0288L69.9472 53.7677ZM71.1854 54.0288C71.5113 54.1682 71.5852 54.3091 71.5781 54.4317L71.1854 54.0288Z" fill="#002C3C"/>
<path fill-rule="evenodd" clip-rule="evenodd" d="M59.5712 42.8839C59.7323 42.8703 59.8739 42.9901 59.8875 43.1514L59.5957 43.176C59.8875 43.1514 59.8875 43.1514 59.8875 43.1514L59.8875 43.1518L59.8877 43.1546L59.8884 43.1628C59.889 43.17 59.8898 43.1804 59.8908 43.1939C59.8928 43.2209 59.8957 43.2604 59.899 43.311C59.9057 43.412 59.9142 43.5574 59.9218 43.7359C59.9371 44.0926 59.9489 44.5835 59.9348 45.1189C59.9208 45.6535 59.8809 46.238 59.7912 46.7805C59.7047 47.304 59.5681 47.8125 59.3474 48.2003C59.3451 48.2072 59.3425 48.2151 59.3395 48.2239C59.3276 48.2592 59.31 48.3092 59.2863 48.3711C59.239 48.4948 59.167 48.6665 59.0674 48.8628C58.8696 49.2525 58.5559 49.752 58.0978 50.1588C57.6358 50.569 57.0224 50.8879 56.2407 50.896C55.4632 50.904 54.5573 50.6042 53.5066 49.8523C51.4339 48.3692 50.549 46.9567 50.2585 45.8668C50.1137 45.3237 50.1168 44.8602 50.1973 44.5139C50.2373 44.3419 50.2983 44.1906 50.3772 44.0723C50.4486 43.9653 50.568 43.8364 50.7416 43.8066C50.901 43.7792 51.0523 43.8864 51.0797 44.046C51.1046 44.1914 51.0179 44.3302 50.8817 44.3744C50.8773 44.3795 50.8714 44.3871 50.8642 44.3979C50.8336 44.4439 50.7958 44.5255 50.7676 44.6469C50.7117 44.8874 50.7008 45.2526 50.8242 45.7155C51.0701 46.6377 51.85 47.9462 53.847 49.3752C54.8311 50.0794 55.6178 50.316 56.2346 50.3096C56.8472 50.3033 57.3297 50.057 57.7093 49.72C58.0928 49.3795 58.3664 48.9497 58.5454 48.597C58.6343 48.422 58.6982 48.2693 58.7395 48.1612C58.7602 48.1072 58.7752 48.0646 58.7848 48.0362C58.7896 48.022 58.793 48.0113 58.7951 48.0046C58.7957 48.003 58.7961 48.0016 58.7965 48.0004C58.7969 47.9992 58.7971 47.9982 58.7974 47.9975L58.7976 47.9966C58.7977 47.9965 58.7977 47.9964 58.7977 47.9964C58.7977 47.9965 58.7976 47.9966 59.0781 48.0809M58.7977 47.9964C58.8045 47.9737 58.814 47.952 58.826 47.9317C59.0021 47.6334 59.1289 47.1966 59.2135 46.6847C59.2972 46.1782 59.3358 45.6228 59.3494 45.1035C59.3631 44.5852 59.3516 44.1084 59.3368 43.761C59.3294 43.5875 59.3211 43.4466 59.3147 43.3495C59.3115 43.3009 59.3088 43.2633 59.3069 43.238C59.3059 43.2254 59.3052 43.2158 59.3047 43.2096L59.3041 43.2026L59.304 43.201L59.304 43.2006C59.2904 43.0393 59.41 42.8974 59.5712 42.8839M50.8907 44.3652C50.8907 44.3653 50.89 44.3659 50.8886 44.367C50.89 44.3657 50.8907 44.3651 50.8907 44.3652Z" fill="#002C3C"/>
<path fill-rule="evenodd" clip-rule="evenodd" d="M72.922 40.2979C73.0508 40.2 73.2344 40.2253 73.3322 40.3543L73.0989 40.5315C73.3322 40.3543 73.3323 40.3544 73.3323 40.3545L73.3325 40.3547L73.3331 40.3555L73.335 40.358L73.3417 40.367C73.3473 40.3746 73.3554 40.3856 73.3657 40.3998C73.3863 40.4282 73.4158 40.4695 73.4522 40.5224C73.5251 40.6282 73.6262 40.7808 73.7412 40.9704C73.9704 41.3489 74.2573 41.8796 74.483 42.4839C74.9276 43.6747 75.1692 45.2544 74.0949 46.4736C73.0387 47.6724 71.3879 47.9549 69.8857 47.2542C68.3849 46.5542 67.054 44.8912 66.5229 42.237C66.4911 42.0782 66.5939 41.9237 66.7524 41.8919C66.9109 41.86 67.0652 41.963 67.097 42.1217C67.6011 44.6409 68.8409 46.12 70.133 46.7226C71.4236 47.3247 72.788 47.0706 73.6559 46.0856C74.5059 45.1209 74.3592 43.8266 73.9345 42.6893C73.7255 42.1296 73.4575 41.6328 73.2405 41.2746C73.1323 41.0961 73.0375 40.9531 72.9702 40.8554C72.9366 40.8066 72.9099 40.7692 72.8919 40.7443C72.8829 40.7319 72.876 40.7226 72.8716 40.7166L72.8668 40.7102L72.8658 40.7088L72.8657 40.7087C72.8657 40.7087 72.8657 40.7087 72.8656 40.7086M72.922 40.2979C72.7932 40.3958 72.768 40.5796 72.8656 40.7086L72.922 40.2979Z" fill="#002C3C"/>
<mask id="mask0_2732_62322" style="mask-type:luminance" maskUnits="userSpaceOnUse" x="30" y="24" width="56" height="55">
<path d="M33.2509 51.7795L30.0397 49.1828L33.8271 31.5914L49.3646 24.9238L71.3949 28.0858L82.6051 39.1797L85.1019 64.988L74.1084 77.4612L44.1484 78.4968L32.8844 68.4948L32.4956 63.8961L36.2666 64.4638L33.2509 51.7795Z" fill="white"/>
</mask>
<g mask="url(#mask0_2732_62322)">
<path fill-rule="evenodd" clip-rule="evenodd" d="M55.2589 27.3931C42.2713 27.3931 31.7261 38.3015 31.7261 51.7787C31.7261 65.256 42.2713 76.1644 55.2589 76.1644C68.2465 76.1644 78.7918 65.256 78.7918 51.7787C78.7918 38.3015 68.2465 27.3931 55.2589 27.3931ZM31.1405 51.7787C31.1405 37.9964 41.9295 26.8066 55.2589 26.8066C68.5884 26.8066 79.3774 37.9964 79.3774 51.7787C79.3774 65.561 68.5884 76.7508 55.2589 76.7508C41.9295 76.7508 31.1405 65.561 31.1405 51.7787Z" fill="#002C3C"/>
</g>
<path d="M270.137 66.1278C268.894 66.1278 267.631 65.8749 266.35 65.3692C265.068 64.8247 263.961 63.9494 263.029 62.7436C262.135 61.5377 261.688 59.9428 261.688 57.959C261.688 55.0027 263.048 52.9022 265.767 51.6574C268.525 50.4126 272.118 49.7902 276.546 49.7902H278.294C278.294 45.9782 277.769 43.3719 276.72 41.9716C275.672 40.5712 274.157 39.871 272.176 39.871C270.428 39.871 269.03 40.2406 267.981 40.9797C266.932 41.7187 266.194 43.0024 265.767 44.8306H263.145C263.145 43.5081 263.223 42.4773 263.378 41.7382C263.533 40.9602 263.941 40.2406 264.602 39.5793C265.301 38.8791 266.447 38.3734 268.039 38.0622C269.671 37.7122 271.438 37.5371 273.341 37.5371C276.487 37.5371 278.973 38.3929 280.799 40.1044C282.625 41.7771 283.537 45.0057 283.537 49.7902V65.5443H280.624L278.585 62.9186H278.294C277.594 63.8133 276.565 64.5718 275.206 65.1942C273.846 65.8166 272.157 66.1278 270.137 66.1278ZM272.759 63.5021C274.04 63.5021 275.109 63.1909 275.963 62.5685C276.818 61.9461 277.594 61.0904 278.294 60.0012V52.1242H276.546C273.671 52.1242 271.399 52.6688 269.729 53.7579C268.059 54.8082 267.224 56.2086 267.224 57.959C267.224 59.7484 267.748 61.1293 268.797 62.1017C269.884 63.0353 271.205 63.5021 272.759 63.5021Z" fill="#98BDB6"/>
<path d="M240.92 45.1224C240.92 43.1385 240.648 41.6798 240.104 40.7463C239.56 39.7738 238.473 39.2876 236.841 39.2876H236.259V38.1206H240.92C242.396 38.1206 243.503 38.3345 244.241 38.7624C245.018 39.1514 245.561 39.8127 245.872 40.7463H246.163C246.863 39.8516 247.795 39.0931 248.96 38.4707C250.164 37.8483 251.563 37.5371 253.155 37.5371C254.709 37.5371 255.874 37.8289 256.651 38.4123C257.311 38.918 257.991 39.7932 258.69 41.038L256.36 42.7885C255.932 42.205 255.311 41.7771 254.495 41.5048C253.679 41.1936 252.747 41.038 251.699 41.038C250.533 41.038 249.465 41.3103 248.494 41.8549C247.523 42.3606 246.746 43.0607 246.163 43.9554V65.5443H240.92V45.1224Z" fill="#98BDB6"/>
<path d="M228.866 66.1285C226.69 66.1285 224.981 65.5062 223.738 64.2614C222.495 63.0166 221.874 61.1106 221.874 58.5433V40.4553H217.795V38.1214H221.874V32.87L224.787 29.3691H227.118V38.1214H234.109V40.4553H227.118V58.5433C227.118 62.0442 228.477 63.7946 231.196 63.7946C232.128 63.7946 232.905 63.6974 233.527 63.5029C234.187 63.3084 234.867 63.0166 235.566 62.6277L236.148 63.7946C235.255 64.4559 234.265 65.0199 233.177 65.4867C232.089 65.9146 230.652 66.1285 228.866 66.1285Z" fill="#98BDB6"/>
<path d="M189.949 45.1224C189.949 43.1385 189.677 41.6798 189.133 40.7463C188.589 39.7738 187.501 39.2876 185.87 39.2876H184.705V38.1206H189.949C191.386 38.1206 192.473 38.3151 193.211 38.7041C193.988 39.0931 194.551 39.6765 194.901 40.4545H195.192C196.008 39.6376 197.057 38.9569 198.339 38.4123C199.659 37.8289 201.135 37.5371 202.767 37.5371C205.68 37.5371 208.049 38.3151 209.875 39.871C211.739 41.427 212.671 44.1499 212.671 48.0398V65.5443H207.428V48.0398C207.428 45.3169 206.806 43.333 205.563 42.0883C204.359 40.8046 202.844 40.1628 201.019 40.1628C198.96 40.1628 197.018 41.1936 195.192 43.2552V65.5443H189.949V45.1224Z" fill="#98BDB6"/>
<path d="M171.288 66.1278C168.647 66.1278 166.413 65.5054 164.588 64.2606C162.762 62.977 161.383 61.2654 160.451 59.126C159.519 56.9476 159.052 54.5165 159.052 51.8324C159.052 49.1873 159.519 46.7756 160.451 44.5972C161.383 42.4189 162.723 40.7074 164.471 39.4626C166.258 38.1789 168.336 37.5371 170.705 37.5371C174.628 37.5371 177.541 38.6457 179.445 40.863C181.387 43.0413 182.358 46.2116 182.358 50.3737L182.241 52.7077H164.588C164.588 55.9752 165.287 58.6397 166.685 60.7014C168.083 62.763 170.006 63.7938 172.453 63.7938C174.279 63.7938 175.813 63.4048 177.056 62.6269C178.338 61.8489 179.522 60.6819 180.61 59.126L181.775 60.0012C180.494 62.1406 178.998 63.6966 177.289 64.6691C175.58 65.6415 173.58 66.1278 171.288 66.1278ZM176.823 50.3737C176.823 46.9506 176.318 44.3444 175.308 42.5551C174.298 40.7657 172.764 39.871 170.705 39.871C169.54 39.871 168.491 40.3378 167.559 41.2714C166.627 42.1661 165.889 43.4108 165.345 45.0057C164.84 46.6005 164.588 48.3899 164.588 50.3737H176.823Z" fill="#98BDB6"/>
<path d="M156.555 68.1707C153.758 68.1707 151.583 67.7428 150.029 66.887C148.476 66.0313 147.369 64.7087 146.708 62.9193C146.087 61.0911 145.776 58.6599 145.776 55.6258V33.1617L131.21 65.545H130.045L114.896 32.5782V65.545H112.566V27.0352H118.101L132.084 57.3763L145.776 27.0352H151.02V55.6258C151.02 59.2434 151.466 62.0441 152.36 64.028C153.292 66.0118 154.69 67.0037 156.555 67.0037V68.1707Z" fill="#98BDB6"/>
</svg>
