<svg width="20" height="20" viewBox="0 0 20 20" fill="none" xmlns="http://www.w3.org/2000/svg">
<path d="M8.94501 1.10189C9.36186 0.163954 10.6379 0.163954 11.0548 1.10189L13.0226 5.52942C13.192 5.91074 13.5381 6.17345 13.9375 6.22404L18.5753 6.81139C19.5578 6.93582 19.9522 8.20398 19.2273 8.90807L15.8056 12.2318C15.5109 12.518 15.3787 12.9431 15.4561 13.3557L16.3547 18.1462C16.5451 19.1611 15.5127 19.9448 14.6479 19.4421L10.5654 17.0687C10.2138 16.8643 9.78604 16.8643 9.43443 17.0687L5.35195 19.4421C4.48711 19.9448 3.45474 19.1611 3.6451 18.1462L4.54368 13.3557C4.62107 12.9431 4.48889 12.518 4.1942 12.2318L0.772501 8.90807C0.0476455 8.20398 0.441977 6.93582 1.42446 6.81139L6.0623 6.22404C6.46174 6.17345 6.80778 5.91074 6.97725 5.52942L8.94501 1.10189Z" fill="#99BEB7"/>
</svg>
