<svg width="24" height="24" viewBox="0 0 24 24" fill="none" xmlns="http://www.w3.org/2000/svg">
<path fill-rule="evenodd" clip-rule="evenodd" d="M7.17217 7.67199C6.96094 7.8833 6.81337 8.14974 6.74631 8.4409L6.19172 10.8385C6.18316 10.8837 6.15908 10.9245 6.12365 10.9538C6.08822 10.9832 6.04365 10.9992 5.99765 10.9992C5.95164 10.9992 5.90708 10.9832 5.87165 10.9538C5.83622 10.9245 5.81214 10.8837 5.80357 10.8385L5.25047 8.4409C5.18365 8.14958 5.03632 7.88289 4.82528 7.67125C4.61424 7.4596 4.34798 7.3115 4.05686 7.24383L1.66026 6.69073C1.61506 6.68216 1.57426 6.65809 1.54492 6.62265C1.51557 6.58722 1.49951 6.54266 1.49951 6.49665C1.49951 6.45065 1.51557 6.40609 1.54492 6.37065C1.57426 6.33522 1.61506 6.31114 1.66026 6.30258L4.05587 5.74947C4.34696 5.68238 4.61333 5.53479 4.82456 5.32356C5.03579 5.11233 5.18337 4.84597 5.25047 4.55488L5.80456 2.16074C5.81313 2.11554 5.8372 2.07475 5.87263 2.0454C5.90807 2.01606 5.95263 2 5.99863 2C6.04464 2 6.08921 2.01606 6.12464 2.0454C6.16007 2.07475 6.18415 2.11554 6.19272 2.16074L6.74581 4.55685C6.81312 4.84784 6.96078 5.11409 7.17198 5.32529C7.38317 5.53648 7.64942 5.68414 7.94041 5.75145L10.3385 6.30455C10.3837 6.31312 10.4245 6.3372 10.4538 6.37263C10.4832 6.40806 10.4992 6.45262 10.4992 6.49863C10.4992 6.54463 10.4832 6.5892 10.4538 6.62463C10.4245 6.66006 10.3837 6.68414 10.3385 6.69271L7.9409 7.24581C7.64977 7.313 7.3834 7.46067 7.17217 7.67199ZM16.2449 16.7357C16.3567 16.2504 16.6027 15.8063 16.9547 15.4541C17.3068 15.1019 17.7508 14.8557 18.2361 14.7438L22.2324 13.8218C22.3078 13.8076 22.3757 13.7674 22.4247 13.7084C22.4736 13.6493 22.5003 13.575 22.5003 13.4984C22.5003 13.4217 22.4736 13.3474 22.4247 13.2883C22.3757 13.2293 22.3078 13.1891 22.2324 13.1749L18.2353 12.2529C17.7502 12.1408 17.3065 11.8946 16.9544 11.5426C16.6024 11.1906 16.3563 10.7468 16.2441 10.2618L15.3222 6.26793C15.3079 6.19259 15.2678 6.12459 15.2087 6.07568C15.1497 6.02677 15.0754 6 14.9987 6C14.922 6 14.8477 6.02677 14.7887 6.07568C14.7296 6.12459 14.6895 6.19259 14.6752 6.26793L13.7516 10.2585C13.6398 10.7437 13.3938 11.1877 13.0417 11.5397C12.6896 11.8918 12.2457 12.1378 11.7605 12.2497L7.76744 13.1716C7.6921 13.1859 7.62411 13.226 7.57519 13.285C7.52628 13.3441 7.49951 13.4184 7.49951 13.4951C7.49951 13.5717 7.52628 13.646 7.57519 13.7051C7.62411 13.7641 7.6921 13.8043 7.76744 13.8186L11.7621 14.7405C12.2474 14.8533 12.6912 15.1001 13.0429 15.4529C13.3947 15.8057 13.6403 16.2502 13.7516 16.7357L14.6736 20.7321C14.6878 20.8074 14.728 20.8754 14.787 20.9243C14.8461 20.9732 14.9204 21 14.997 21C15.0737 21 15.148 20.9732 15.2071 20.9243C15.2661 20.8754 15.3063 20.8074 15.3205 20.7321L16.2449 16.7357ZM8.41465 20.5786C8.45191 20.4168 8.5339 20.2688 8.65126 20.1514C8.76862 20.034 8.91662 19.9519 9.07837 19.9146L10.4105 19.6073C10.4356 19.6025 10.4583 19.5891 10.4746 19.5695C10.4909 19.5498 10.4998 19.525 10.4998 19.4995C10.4998 19.4739 10.4909 19.4491 10.4746 19.4294C10.4583 19.4098 10.4356 19.3964 10.4105 19.3916L9.07809 19.0843C8.91642 19.0469 8.76849 18.9649 8.65115 18.8475C8.53381 18.7302 8.45177 18.5823 8.41437 18.4206L8.10707 17.0893C8.10231 17.0642 8.08893 17.0415 8.06925 17.0252C8.04956 17.0089 8.0248 17 7.99924 17C7.97368 17 7.94892 17.0089 7.92923 17.0252C7.90955 17.0415 7.89617 17.0642 7.89141 17.0893L7.58355 18.4195C7.54628 18.5812 7.46428 18.7292 7.34692 18.8466C7.22956 18.9639 7.08156 19.0459 6.91983 19.0832L5.58882 19.3905C5.56371 19.3953 5.54104 19.4087 5.52474 19.4283C5.50843 19.448 5.49951 19.4728 5.49951 19.4984C5.49951 19.5239 5.50843 19.5487 5.52474 19.5684C5.54104 19.588 5.56371 19.6014 5.58882 19.6062L6.92038 19.9135C7.08213 19.9511 7.23006 20.0334 7.34732 20.151C7.46457 20.2686 7.54643 20.4167 7.58355 20.5786L7.89086 21.9107C7.89562 21.9358 7.909 21.9585 7.92868 21.9748C7.94837 21.9911 7.97313 22 7.99869 22C8.02425 22 8.04901 21.9911 8.0687 21.9748C8.08838 21.9585 8.10176 21.9358 8.10652 21.9107L8.41465 20.5786Z" fill="#99BEB7"/>
</svg>
