<svg width="22" height="22" viewBox="0 0 22 22" fill="none" xmlns="http://www.w3.org/2000/svg">
<path d="M18.1114 8.0206C17.9916 8.14042 17.827 8.20446 17.6577 8.19709L15.0038 8.08171L12.7433 10.5934C12.3738 11.0039 11.7416 11.0372 11.331 10.6677C10.9205 10.2983 10.8873 9.66598 11.2567 9.25547L13.9151 6.30171L13.8311 4.37054C13.8238 4.20124 13.8878 4.03662 14.0076 3.9168L17.743 0.181424C17.9811 -0.0567002 18.387 0.129964 18.3611 0.465731L18.1052 3.79321C18.0995 3.86714 18.1611 3.92872 18.235 3.92304L21.5625 3.66708C21.8983 3.64125 22.0849 4.0471 21.8468 4.28522L18.1114 8.0206Z" fill="#99BEB7"/>
<path d="M2 11.9244C2 7.50614 5.58172 3.92442 10 3.92442C10.7019 3.92442 11.3812 4.01457 12.0277 4.18339C12.5621 4.32293 13.1084 4.00286 13.2479 3.46849C13.3875 2.93413 13.0674 2.38782 12.533 2.24828C11.723 2.03675 10.8739 1.92442 10 1.92442C4.47715 1.92442 0 6.40158 0 11.9244C0 17.4473 4.47715 21.9244 10 21.9244C15.5228 21.9244 20 17.4473 20 11.9244C20 11.3577 19.9528 10.8012 19.8618 10.259C19.7704 9.71429 19.2548 9.34683 18.7101 9.43821C18.1654 9.52958 17.798 10.0452 17.8893 10.5899C17.962 11.0232 18 11.469 18 11.9244C18 16.3427 14.4183 19.9244 10 19.9244C5.58172 19.9244 2 16.3427 2 11.9244Z" fill="#99BEB7"/>
<path d="M14.9961 12.1246C15.0004 12.0143 14.9105 11.9244 14.8 11.9244H10.5C10.2239 11.9244 10 11.7006 10 11.4244V7.12442C10 7.01397 9.91015 6.92401 9.79978 6.92836C7.13118 7.03345 5 9.23005 5 11.9244C5 14.6858 7.23858 16.9244 10 16.9244C12.6944 16.9244 14.891 14.7932 14.9961 12.1246Z" fill="#99BEB7"/>
</svg>
