<svg width="92" height="92" viewBox="0 0 92 92" fill="none" xmlns="http://www.w3.org/2000/svg">
<path fill-rule="evenodd" clip-rule="evenodd" d="M46 92C71.4051 92 92 71.4051 92 46C92 20.5949 71.4051 0 46 0C20.5949 0 0 20.5949 0 46C0 71.4051 20.5949 92 46 92ZM89 46C89 69.7482 69.7482 89 46 89C22.2518 89 3 69.7482 3 46C3 22.2518 22.2518 3 46 3C69.7482 3 89 22.2518 89 46ZM63.5723 36.5489C64.1516 35.9568 64.1411 35.0071 63.5489 34.4277C62.9568 33.8484 62.0071 33.8589 61.4277 34.4511L39.9883 56.367L29.5607 45.9393C28.9749 45.3536 28.0251 45.3536 27.4393 45.9393C26.8536 46.5251 26.8536 47.4749 27.4393 48.0607L38.2244 58.8457C39.2083 59.8296 40.8062 59.8209 41.7793 58.8262L63.5723 36.5489Z" fill="#C4E0A3"/>
</svg>
