<svg width="20" height="20" viewBox="0 0 20 20" fill="none" xmlns="http://www.w3.org/2000/svg">
<path fill-rule="evenodd" clip-rule="evenodd" d="M9.99942 0.398438C4.69748 0.398436 0.399415 4.6965 0.399414 9.99844C0.399413 15.3004 4.69748 19.5984 9.99941 19.5984C15.3013 19.5984 19.5994 15.3004 19.5994 9.99844C19.5994 4.69651 15.3014 0.398439 9.99942 0.398438ZM8.97084 15.1985C8.97084 15.7666 9.43135 16.2271 9.99941 16.2271C10.5675 16.2271 11.028 15.7666 11.028 15.1985C11.028 14.6305 10.5675 14.17 9.99941 14.17C9.43135 14.17 8.97084 14.6305 8.97084 15.1985ZM8.45656 8.19844C8.45656 7.34634 9.14732 6.65558 9.99941 6.65558C10.8515 6.65558 11.5423 7.34634 11.5423 8.19844C11.5423 9.05054 10.8515 9.7413 9.99941 9.7413C9.43135 9.7413 8.97084 10.2018 8.97084 10.7699V12.1128C8.97084 12.6809 9.43135 13.1414 9.99941 13.1414C10.5675 13.1414 11.028 12.6809 11.028 12.1128V11.6494C12.515 11.2068 13.5994 9.82925 13.5994 8.19844C13.5994 6.21022 11.9876 4.59844 9.99941 4.59844C8.01119 4.59844 6.39941 6.21021 6.39941 8.19844C6.39941 8.7665 6.85992 9.22701 7.42798 9.22701C7.99605 9.22701 8.45656 8.7665 8.45656 8.19844Z" fill="#99BEB7"/>
</svg>
